{
.appVersion = "116";
copyright = "Created by P.J. Onori with FontForge 2.0 (http://fontforge.sf.net)";
date = "2014-07-02 03:39:22 +0000";
familyName = Icons;
featurePrefixes = (
{
automatic = 1;
code = "languagesystem DFLT dflt;\012";
name = Languagesystems;
}
);
fontMaster = (
{
ascender = 800;
capHeight = 0;
custom = iconic;
descender = -200;
horizontalStems = (
50,
94,
100,
200,
250,
300,
400,
404,
500,
600,
800
);
id = "A0563635-EBCB-42F0-BA53-80B4033C9352";
verticalStems = (
50,
100,
200,
208,
250,
266,
300,
307,
400,
500,
600,
800
);
weightValue = 400;
widthValue = 5;
xHeight = 0;
}
);
glyphs = (
{
glyphname = a;
layers = (
{
hints = (
{
horizontal = 1;
place = "{0, 300}";
type = Stem;
},
{
horizontal = 1;
place = "{500, 300}";
type = Stem;
},
{
place = "{700, 100}";
type = Stem;
}
);
layerId = "A0563635-EBCB-42F0-BA53-80B4033C9352";
paths = (
{
closed = 1;
nodes = (
"179 800 OFFCURVE",
"0 621 OFFCURVE",
"0 400 CURVE SMOOTH",
"0 179 OFFCURVE",
"179 0 OFFCURVE",
"400 0 CURVE SMOOTH",
"621 0 OFFCURVE",
"800 179 OFFCURVE",
"800 400 CURVE SMOOTH",
"800 621 OFFCURVE",
"621 800 OFFCURVE",
"400 800 CURVE SMOOTH"
);
},
{
closed = 1;
nodes = (
"400 700 LINE",
"400 500 LINE",
"700 500 LINE",
"700 300 LINE",
"400 300 LINE",
"400 100 LINE",
"100 400 LINE"
);
}
);
width = 800;
}
);
note = a;
unicode = 0061;
},
{
glyphname = aa;
layers = (
{
hints = (
{
horizontal = 1;
place = "{0, 21}";
target = up;
type = BottomGhost;
},
{
horizontal = 1;
place = "{300, 200}";
type = Stem;
},
{
place = "{300, 200}";
type = Stem;
}
);
layerId = "A0563635-EBCB-42F0-BA53-80B4033C9352";
paths = (
{
closed = 1;
nodes = (
"300 800 LINE",
"300 500 LINE",
"0 500 LINE",
"0 300 LINE",
"300 300 LINE",
"300 0 LINE",
"500 0 LINE",
"500 300 LINE",
"800 300 LINE",
"800 500 LINE",
"500 500 LINE",
"500 800 LINE"
);
}
);
width = 800;
}
);
note = aa;
unicode = A733;
},
{
glyphname = ae;
layers = (
{
hints = (
{
horizontal = 1;
place = "{231, 100}";
type = Stem;
}
);
layerId = "A0563635-EBCB-42F0-BA53-80B4033C9352";
paths = (
{
closed = 1;
nodes = (
"283 564 OFFCURVE",
"242 428 OFFCURVE",
"200 291 CURVE",
"197 297 LINE",
"188 331 LINE",
"0 331 LINE",
"0 231 LINE",
"116 231 LINE",
"144 144 OFFCURVE",
"172 57 OFFCURVE",
"200 -31 CURVE",
"242 102 OFFCURVE",
"283 236 OFFCURVE",
"325 369 CURVE",
"365 241 OFFCURVE",
"406 113 OFFCURVE",
"444 -16 CURVE",
"482 75 OFFCURVE",
"519 167 OFFCURVE",
"556 259 CURVE",
"569 231 LINE",
"800 231 LINE",
"800 331 LINE",
"631 331 LINE",
"602 389 OFFCURVE",
"574 446 OFFCURVE",
"544 503 CURVE",
"515 429 OFFCURVE",
"485 355 OFFCURVE",
"456 281 CURVE",
"412 420 OFFCURVE",
"367 559 OFFCURVE",
"325 700 CURVE"
);
}
);
width = 800;
}
);
note = ae;
unicode = 00E6;
},
{
glyphname = b;
layers = (
{
hints = (
{
horizontal = 1;
place = "{0, 300}";
type = Stem;
},
{
horizontal = 1;
place = "{500, 300}";
type = Stem;
},
{
place = "{0, 100}";
type = Stem;
}
);
layerId = "A0563635-EBCB-42F0-BA53-80B4033C9352";
paths = (
{
closed = 1;
nodes = (
"179 800 OFFCURVE",
"0 621 OFFCURVE",
"0 400 CURVE SMOOTH",
"0 179 OFFCURVE",
"179 0 OFFCURVE",
"400 0 CURVE SMOOTH",
"621 0 OFFCURVE",
"800 179 OFFCURVE",
"800 400 CURVE SMOOTH",
"800 621 OFFCURVE",
"621 800 OFFCURVE",
"400 800 CURVE SMOOTH"
);
},
{
closed = 1;
nodes = (
"400 700 LINE",
"700 400 LINE",
"400 100 LINE",
"400 300 LINE",
"100 300 LINE",
"100 500 LINE",
"400 500 LINE"
);
}
);
width = 800;
}
);
note = b;
unicode = 0062;
},
{
glyphname = c;
layers = (
{
hints = (
{
horizontal = 1;
place = "{0, 100}";
type = Stem;
},
{
place = "{0, 300}";
type = Stem;
},
{
place = "{500, 300}";
type = Stem;
}
);
layerId = "A0563635-EBCB-42F0-BA53-80B4033C9352";
paths = (
{
closed = 1;
nodes = (
"179 800 OFFCURVE",
"0 621 OFFCURVE",
"0 400 CURVE SMOOTH",
"0 179 OFFCURVE",
"179 0 OFFCURVE",
"400 0 CURVE SMOOTH",
"621 0 OFFCURVE",
"800 179 OFFCURVE",
"800 400 CURVE SMOOTH",
"800 621 OFFCURVE",
"621 800 OFFCURVE",
"400 800 CURVE SMOOTH"
);
},
{
closed = 1;
nodes = (
"400 700 LINE",
"700 400 LINE",
"500 400 LINE",
"500 100 LINE",
"300 100 LINE",
"300 400 LINE",
"100 400 LINE"
);
}
);
width = 800;
}
);
note = c;
unicode = 0063;
},
{
glyphname = d;
layers = (
{
hints = (
{
horizontal = 1;
place = "{300, 100}";
type = Stem;
}
);
layerId = "A0563635-EBCB-42F0-BA53-80B4033C9352";
paths = (
{
closed = 1;
nodes = (
"300 600 LINE",
"0 347 LINE",
"300 100 LINE",
"300 300 LINE",
"800 300 LINE",
"800 400 LINE",
"300 400 LINE"
);
}
);
width = 800;
}
);
note = d;
unicode = 0064;
},
{
glyphname = e;
layers = (
{
hints = (
{
horizontal = 1;
place = "{300, 100}";
type = Stem;
}
);
layerId = "A0563635-EBCB-42F0-BA53-80B4033C9352";
paths = (
{
closed = 1;
nodes = (
"500 600 LINE",
"500 400 LINE",
"0 400 LINE",
"0 300 LINE",
"500 300 LINE",
"500 100 LINE",
"800 353 LINE"
);
}
);
width = 800;
}
);
note = e;
unicode = 0065;
},
{
glyphname = f;
layers = (
{
hints = (
{
horizontal = 1;
place = "{0, 21}";
target = up;
type = BottomGhost;
},
{
place = "{200, 200}";
type = Stem;
}
);
layerId = "A0563635-EBCB-42F0-BA53-80B4033C9352";
paths = (
{
closed = 1;
nodes = (
"200 800 LINE",
"200 300 LINE",
"0 300 LINE",
"303 0 LINE",
"600 300 LINE",
"400 300 LINE",
"400 800 LINE"
);
}
);
width = 600;
}
);
note = f;
unicode = 0066;
},
{
glyphname = one;
layers = (
{
hints = (
{
place = "{0, 100}";
type = Stem;
},
{
place = "{300, 100}";
type = Stem;
},
{
place = "{600, 100}";
type = Stem;
},
{
place = "{700, 100}";
type = Stem;
}
);
layerId = "A0563635-EBCB-42F0-BA53-80B4033C9352";
paths = (
{
closed = 1;
nodes = (
"300 700 LINE",
"300 600 LINE",
"700 600 LINE",
"700 100 LINE",
"300 100 LINE",
"300 0 LINE",
"800 0 LINE",
"800 700 LINE"
);
},
{
closed = 1;
nodes = (
"200 500 LINE",
"0 350 LINE",
"200 200 LINE",
"200 300 LINE",
"600 300 LINE",
"600 400 LINE",
"200 400 LINE"
);
}
);
width = 800;
}
);
note = "1";
unicode = 0031;
},
{
glyphname = two;
layers = (
{
hints = (
{
horizontal = 1;
place = "{600, 100}";
type = Stem;
},
{
place = "{500, 200}";
type = Stem;
}
);
layerId = "A0563635-EBCB-42F0-BA53-80B4033C9352";
paths = (
{
closed = 1;
nodes = (
"157 700 OFFCURVE",
"0 543 OFFCURVE",
"0 350 CURVE",
"0 488 OFFCURVE",
"112 600 OFFCURVE",
"250 600 CURVE SMOOTH",
"388 600 OFFCURVE",
"500 488 OFFCURVE",
"500 350 CURVE SMOOTH",
"500 300 LINE",
"400 300 LINE",
"600 100 LINE",
"800 300 LINE",
"700 300 LINE",
"700 350 LINE SMOOTH",
"700 543 OFFCURVE",
"543 700 OFFCURVE",
"350 700 CURVE SMOOTH"
);
}
);
width = 800;
}
);
note = "2";
unicode = 0032;
},
{
glyphname = three;
layers = (
{
hints = (
{
horizontal = 1;
place = "{600, 100}";
type = Stem;
},
{
place = "{100, 200}";
type = Stem;
}
);
layerId = "A0563635-EBCB-42F0-BA53-80B4033C9352";
paths = (
{
closed = 1;
nodes = (
"257 700 OFFCURVE",
"100 543 OFFCURVE",
"100 350 CURVE SMOOTH",
"100 300 LINE",
"0 300 LINE",
"200 100 LINE",
"400 300 LINE",
"300 300 LINE",
"300 350 LINE SMOOTH",
"300 488 OFFCURVE",
"412 600 OFFCURVE",
"550 600 CURVE SMOOTH",
"688 600 OFFCURVE",
"800 488 OFFCURVE",
"800 350 CURVE",
"800 543 OFFCURVE",
"643 700 OFFCURVE",
"450 700 CURVE SMOOTH"
);
}
);
width = 800;
}
);
note = "3";
unicode = 0033;
},
{
glyphname = four;
layers = (
{
hints = (
{
horizontal = 1;
place = "{0, 100}";
type = Stem;
},
{
horizontal = 1;
place = "{200, 100}";
type = Stem;
},
{
horizontal = 1;
place = "{400, 100}";
type = Stem;
},
{
horizontal = 1;
place = "{600, 100}";
type = Stem;
}
);
layerId = "A0563635-EBCB-42F0-BA53-80B4033C9352";
paths = (
{
closed = 1;
nodes = (
"0 700 LINE",
"0 600 LINE",
"800 600 LINE",
"800 700 LINE"
);
},
{
closed = 1;
nodes = (
"100 500 LINE",
"100 400 LINE",
"700 400 LINE",
"700 500 LINE"
);
},
{
closed = 1;
nodes = (
"0 300 LINE",
"0 200 LINE",
"800 200 LINE",
"800 300 LINE"
);
},
{
closed = 1;
nodes = (
"100 100 LINE",
"100 0 LINE",
"700 0 LINE",
"700 100 LINE"
);
}
);
width = 800;
}
);
note = "4";
unicode = 0034;
},
{
glyphname = five;
layers = (
{
hints = (
{
horizontal = 1;
place = "{0, 100}";
type = Stem;
},
{
horizontal = 1;
place = "{200, 100}";
type = Stem;
},
{
horizontal = 1;
place = "{400, 100}";
type = Stem;
},
{
horizontal = 1;
place = "{600, 100}";
type = Stem;
}
);
layerId = "A0563635-EBCB-42F0-BA53-80B4033C9352";
paths = (
{
closed = 1;
nodes = (
"0 700 LINE",
"0 600 LINE",
"800 600 LINE",
"800 700 LINE"
);
},
{
closed = 1;
nodes = (
"0 500 LINE",
"0 400 LINE",
"600 400 LINE",
"600 500 LINE"
);
},
{
closed = 1;
nodes = (
"0 300 LINE",
"0 200 LINE",
"800 200 LINE",
"800 300 LINE"
);
},
{
closed = 1;
nodes = (
"0 100 LINE",
"0 0 LINE",
"600 0 LINE",
"600 100 LINE"
);
}
);
width = 800;
}
);
note = "5";
unicode = 0035;
},
{
glyphname = six;
layers = (
{
hints = (
{
horizontal = 1;
place = "{0, 100}";
type = Stem;
},
{
horizontal = 1;
place = "{200, 100}";
type = Stem;
},
{
horizontal = 1;
place = "{400, 100}";
type = Stem;
},
{
horizontal = 1;
place = "{600, 100}";
type = Stem;
}
);
layerId = "A0563635-EBCB-42F0-BA53-80B4033C9352";
paths = (
{
closed = 1;
nodes = (
"0 700 LINE",
"0 600 LINE",
"800 600 LINE",
"800 700 LINE"
);
},
{
closed = 1;
nodes = (
"200 500 LINE",
"200 400 LINE",
"800 400 LINE",
"800 500 LINE"
);
},
{
closed = 1;
nodes = (
"0 300 LINE",
"0 200 LINE",
"800 200 LINE",
"800 300 LINE"
);
},
{
closed = 1;
nodes = (
"200 100 LINE",
"200 0 LINE",
"800 0 LINE",
"800 100 LINE"
);
}
);
width = 800;
}
);
note = "6";
unicode = 0036;
},
{
glyphname = seven;
layers = (
{
hints = (
{
place = "{0, 800}";
type = Stem;
}
);
layerId = "A0563635-EBCB-42F0-BA53-80B4033C9352";
paths = (
{
closed = 1;
nodes = (
"331 700 OFFCURVE",
"266 681 OFFCURVE",
"209 650 CURVE",
"531 416 LINE",
"606 641 LINE",
"546 677 OFFCURVE",
"475 700 OFFCURVE",
"400 700 CURVE SMOOTH"
);
},
{
closed = 1;
nodes = (
"125 588 LINE",
"49 515 OFFCURVE",
"0 414 OFFCURVE",
"0 300 CURVE SMOOTH",
"0 275 OFFCURVE",
"2 252 OFFCURVE",
"6 228 CURVE",
"316 450 LINE"
);
},
{
closed = 1;
nodes = (
"566 200 LINE",
"784 200 LINE",
"792 232 OFFCURVE",
"800 265 OFFCURVE",
"800 300 CURVE SMOOTH",
"800 407 OFFCURVE",
"757 503 OFFCURVE",
"688 575 CURVE"
);
},
{
closed = 1;
nodes = (
"216 253 LINE",
"41 128 LINE",
"96 15 OFFCURVE",
"200 -71 OFFCURVE",
"328 -94 CURVE"
);
},
{
closed = 1;
nodes = (
"372 100 LINE",
"434 -97 LINE",
"567 -85 OFFCURVE",
"680 -9 OFFCURVE",
"744 100 CURVE"
);
}
);
width = 800;
}
);
note = "7";
unicode = 0037;
},
{
glyphname = eight;
layers = (
{
hints = (
{
horizontal = 1;
place = "{0, 21}";
target = up;
type = BottomGhost;
},
{
place = "{200, 100}";
type = Stem;
}
);
layerId = "A0563635-EBCB-42F0-BA53-80B4033C9352";
paths = (
{
closed = 1;
nodes = (
"200 800 LINE",
"200 300 LINE",
"0 300 LINE",
"253 0 LINE",
"500 300 LINE",
"300 300 LINE",
"300 800 LINE"
);
}
);
width = 600;
}
);
note = "8";
unicode = 0038;
},
{
glyphname = nine;
layers = (
{
hints = (
{
horizontal = 1;
place = "{0, 21}";
target = up;
type = BottomGhost;
},
{
horizontal = 1;
place = "{700, 100}";
type = Stem;
},
{
place = "{0, 300}";
type = Stem;
},
{
place = "{500, 300}";
type = Stem;
}
);
layerId = "A0563635-EBCB-42F0-BA53-80B4033C9352";
paths = (
{
closed = 1;
nodes = (
"179 800 OFFCURVE",
"0 621 OFFCURVE",
"0 400 CURVE SMOOTH",
"0 179 OFFCURVE",
"179 0 OFFCURVE",
"400 0 CURVE SMOOTH",
"621 0 OFFCURVE",
"800 179 OFFCURVE",
"800 400 CURVE SMOOTH",
"800 621 OFFCURVE",
"621 800 OFFCURVE",
"400 800 CURVE SMOOTH"
);
},
{
closed = 1;
nodes = (
"300 700 LINE",
"500 700 LINE",
"500 400 LINE",
"700 400 LINE",
"400 100 LINE",
"100 400 LINE",
"300 400 LINE"
);
}
);
width = 800;
}
);
note = "9";
unicode = 0039;
},
{
glyphname = .notdef;
layers = (
{
hints = (
{
place = "{0, 100}";
type = Stem;
},
{
place = "{300, 100}";
type = Stem;
},
{
place = "{600, 100}";
type = Stem;
},
{
place = "{700, 100}";
type = Stem;
}
);
layerId = "A0563635-EBCB-42F0-BA53-80B4033C9352";
paths = (
{
closed = 1;
nodes = (
"40 0 LINE",
"360 0 LINE",
"360 533 LINE",
"40 533 LINE"
);
},
{
closed = 1;
nodes = (
"80 40 LINE",
"80 493 LINE",
"320 493 LINE",
"320 40 LINE"
);
},
{
closed = 1;
nodes = (
"300 700 LINE",
"300 600 LINE",
"700 600 LINE",
"700 100 LINE",
"300 100 LINE",
"300 0 LINE",
"800 0 LINE",
"800 700 LINE"
);
},
{
closed = 1;
nodes = (
"400 500 LINE",
"400 400 LINE",
"0 400 LINE",
"0 300 LINE",
"400 300 LINE",
"400 200 LINE",
"600 350 LINE"
);
}
);
width = 800;
}
);
note = .notdef;
},
{
glyphname = uniE010;
layers = (
{
hints = (
{
horizontal = 1;
place = "{300, 200}";
type = Stem;
}
);
layerId = "A0563635-EBCB-42F0-BA53-80B4033C9352";
paths = (
{
closed = 1;
nodes = (
"300 700 LINE",
"0 397 LINE",
"300 100 LINE",
"300 300 LINE",
"800 300 LINE",
"800 500 LINE",
"300 500 LINE"
);
}
);
width = 800;
}
);
note = "10";
unicode = E010;
},
{
glyphname = uniE011;
layers = (
{
hints = (
{
horizontal = 1;
place = "{300, 200}";
type = Stem;
}
);
layerId = "A0563635-EBCB-42F0-BA53-80B4033C9352";
paths = (
{
closed = 1;
nodes = (
"500 700 LINE",
"500 500 LINE",
"0 500 LINE",
"0 300 LINE",
"500 300 LINE",
"500 100 LINE",
"800 403 LINE"
);
}
);
width = 800;
}
);
note = "11";
unicode = E011;
},
{
glyphname = uniE012;
layers = (
{
hints = (
{
horizontal = 1;
place = "{0, 21}";
target = up;
type = BottomGhost;
},
{
place = "{200, 200}";
type = Stem;
}
);
layerId = "A0563635-EBCB-42F0-BA53-80B4033C9352";
paths = (
{
closed = 1;
nodes = (
"297 800 LINE",
"0 500 LINE",
"200 500 LINE",
"200 0 LINE",
"400 0 LINE",
"400 500 LINE",
"600 500 LINE"
);
}
);
width = 600;
}
);
note = "12";
unicode = E012;
},
{
glyphname = uniE013;
layers = (
{
hints = (
{
horizontal = 1;
place = "{0, 21}";
target = up;
type = BottomGhost;
},
{
place = "{200, 100}";
type = Stem;
}
);
layerId = "A0563635-EBCB-42F0-BA53-80B4033C9352";
paths = (
{
closed = 1;
nodes = (
"247 800 LINE",
"0 500 LINE",
"200 500 LINE",
"200 0 LINE",
"300 0 LINE",
"300 500 LINE",
"500 500 LINE"
);
}
);
width = 600;
}
);
note = "13";
unicode = E013;
},
{
glyphname = uniE014;
layers = (
{
hints = (
{
horizontal = 1;
place = "{0, 21}";
target = up;
type = BottomGhost;
},
{
place = "{0, 100}";
type = Stem;
},
{
place = "{200, 100}";
type = Stem;
},
{
place = "{400, 100}";
type = Stem;
},
{
place = "{600, 100}";
type = Stem;
}
);
layerId = "A0563635-EBCB-42F0-BA53-80B4033C9352";
paths = (
{
closed = 1;
nodes = (
"400 800 LINE",
"400 0 LINE",
"500 0 LINE",
"500 800 LINE"
);
},
{
closed = 1;
nodes = (
"200 700 LINE",
"200 100 LINE",
"300 100 LINE",
"300 700 LINE"
);
},
{
closed = 1;
nodes = (
"600 600 LINE",
"600 200 LINE",
"700 200 LINE",
"700 600 LINE"
);
},
{
closed = 1;
nodes = (
"0 500 LINE",
"0 300 LINE",
"100 300 LINE",
"100 500 LINE"
);
}
);
width = 800;
}
);
note = "14";
unicode = E014;
},
{
glyphname = uniE015;
layers = (
{
hints = (
{
place = "{0, 100}";
type = Stem;
},
{
place = "{200, 100}";
type = Stem;
},
{
place = "{500, 100}";
type = Stem;
},
{
place = "{700, 100}";
type = Stem;
}
);
layerId = "A0563635-EBCB-42F0-BA53-80B4033C9352";
paths = (
{
closed = 1;
nodes = (
"116 600 LINE",
"44 528 OFFCURVE",
"0 429 OFFCURVE",
"0 319 CURVE SMOOTH",
"0 209 OFFCURVE",
"44 106 OFFCURVE",
"116 34 CURVE",
"188 106 LINE",
"134 160 OFFCURVE",
"100 236 OFFCURVE",
"100 319 CURVE SMOOTH",
"100 402 OFFCURVE",
"134 474 OFFCURVE",
"188 528 CURVE"
);
},
{
closed = 1;
nodes = (
"612 528 LINE",
"666 474 OFFCURVE",
"700 402 OFFCURVE",
"700 319 CURVE SMOOTH",
"700 236 OFFCURVE",
"666 160 OFFCURVE",
"612 106 CURVE",
"684 34 LINE",
"756 106 OFFCURVE",
"800 209 OFFCURVE",
"800 319 CURVE SMOOTH",
"800 429 OFFCURVE",
"756 528 OFFCURVE",
"684 600 CURVE"
);
},
{
closed = 1;
nodes = (
"259 460 LINE",
"223 424 OFFCURVE",
"200 374 OFFCURVE",
"200 319 CURVE SMOOTH",
"200 264 OFFCURVE",
"223 211 OFFCURVE",
"259 175 CURVE",
"328 247 LINE",
"310 265 OFFCURVE",
"300 291 OFFCURVE",
"300 319 CURVE SMOOTH",
"300 347 OFFCURVE",
"310 370 OFFCURVE",
"328 388 CURVE"
);
},
{
closed = 1;
nodes = (
"472 388 LINE",
"490 370 OFFCURVE",
"500 347 OFFCURVE",
"500 319 CURVE SMOOTH",
"500 291 OFFCURVE",
"490 265 OFFCURVE",
"472 247 CURVE",
"541 175 LINE",
"577 211 OFFCURVE",
"600 264 OFFCURVE",
"600 319 CURVE SMOOTH",
"600 374 OFFCURVE",
"577 423 OFFCURVE",
"541 459 CURVE"
);
}
);
width = 800;
}
);
note = "15";
unicode = E015;
},
{
glyphname = uniE016;
layers = (
{
hints = (
{
horizontal = 1;
place = "{0, 21}";
target = up;
type = BottomGhost;
},
{
horizontal = 1;
place = "{400, 400}";
type = Stem;
},
{
place = "{0, 400}";
type = Stem;
}
);
layerId = "A0563635-EBCB-42F0-BA53-80B4033C9352";
paths = (
{
closed = 1;
nodes = (
"90 800 OFFCURVE",
"0 710 OFFCURVE",
"0 600 CURVE SMOOTH",
"0 490 OFFCURVE",
"90 400 OFFCURVE",
"200 400 CURVE SMOOTH",
"310 400 OFFCURVE",
"400 490 OFFCURVE",
"400 600 CURVE SMOOTH",
"400 710 OFFCURVE",
"310 800 OFFCURVE",
"200 800 CURVE SMOOTH"
);
},
{
closed = 1;
nodes = (
"100 0 LINE",
"200 100 LINE",
"300 0 LINE",
"300 319 LINE",
"268 308 OFFCURVE",
"235 300 OFFCURVE",
"200 300 CURVE SMOOTH",
"165 300 OFFCURVE",
"131 308 OFFCURVE",
"100 319 CURVE"
);
}
);
width = 400;
}
);
note = "16";
unicode = E016;
},
{
glyphname = uniE017;
layers = (
{
hints = (
{
horizontal = 1;
place = "{0, 100}";
type = Stem;
},
{
horizontal = 1;
place = "{700, 100}";
type = Stem;
},
{
place = "{0, 100}";
type = Stem;
}
);
layerId = "A0563635-EBCB-42F0-BA53-80B4033C9352";
paths = (
{
closed = 1;
nodes = (
"180 800 OFFCURVE",
"0 620 OFFCURVE",
"0 400 CURVE SMOOTH",
"0 180 OFFCURVE",
"180 0 OFFCURVE",
"400 0 CURVE SMOOTH",
"620 0 OFFCURVE",
"800 180 OFFCURVE",
"800 400 CURVE SMOOTH",
"800 620 OFFCURVE",
"620 800 OFFCURVE",
"400 800 CURVE SMOOTH"
);
},
{
closed = 1;
nodes = (
"466 700 OFFCURVE",
"526 679 OFFCURVE",
"575 644 CURVE",
"156 225 LINE",
"121 274 OFFCURVE",
"100 334 OFFCURVE",
"100 400 CURVE SMOOTH",
"100 566 OFFCURVE",
"234 700 OFFCURVE",
"400 700 CURVE SMOOTH"
);
},
{
closed = 1;
nodes = (
"644 575 LINE",
"679 526 OFFCURVE",
"700 466 OFFCURVE",
"700 400 CURVE SMOOTH",
"700 234 OFFCURVE",
"566 100 OFFCURVE",
"400 100 CURVE SMOOTH",
"334 100 OFFCURVE",
"274 121 OFFCURVE",
"225 156 CURVE"
);
}
);
width = 800;
}
);
note = "17";
unicode = E017;
},
{
glyphname = uniE018;
layers = (
{
hints = (
{
horizontal = 1;
place = "{0, 100}";
type = Stem;
},
{
place = "{0, 100}";
type = Stem;
},
{
place = "{200, 200}";
type = Stem;
},
{
place = "{500, 200}";
type = Stem;
}
);
layerId = "A0563635-EBCB-42F0-BA53-80B4033C9352";
paths = (
{
closed = 1;
nodes = (
"0 700 LINE",
"0 0 LINE",
"800 0 LINE",
"800 100 LINE",
"100 100 LINE",
"100 700 LINE"
);
},
{
closed = 1;
nodes = (
"500 700 LINE",
"500 200 LINE",
"700 200 LINE",
"700 700 LINE"
);
},
{
closed = 1;
nodes = (
"200 500 LINE",
"200 200 LINE",
"400 200 LINE",
"400 500 LINE"
);
}
);
width = 800;
}
);
note = "18";
unicode = E018;
},
{
glyphname = uniE019;
layers = (
{
hints = (
{
horizontal = 1;
place = "{0, 100}";
type = Stem;
},
{
horizontal = 1;
place = "{400, 100}";
type = Stem;
},
{
place = "{100, 100}";
type = Stem;
},
{
place = "{300, 200}";
type = Stem;
},
{
place = "{600, 100}";
type = Stem;
}
);
layerId = "A0563635-EBCB-42F0-BA53-80B4033C9352";
paths = (
{
closed = 1;
nodes = (
"384 799 OFFCURVE",
"371 792 OFFCURVE",
"362 781 CURVE SMOOTH",
"128 500 LINE",
"0 500 LINE",
"0 400 LINE",
"100 400 LINE",
"100 34 LINE SMOOTH",
"100 16 OFFCURVE",
"116 0 OFFCURVE",
"134 0 CURVE SMOOTH",
"666 0 LINE SMOOTH",
"684 0 OFFCURVE",
"700 16 OFFCURVE",
"700 34 CURVE SMOOTH",
"700 400 LINE",
"800 400 LINE",
"800 500 LINE",
"672 500 LINE",
"645 533 OFFCURVE",
"433 785 OFFCURVE",
"431 787 CURVE",
"420 796 OFFCURVE",
"410 801 OFFCURVE",
"397 800 CURVE SMOOTH"
);
},
{
closed = 1;
nodes = (
"400 672 LINE",
"544 500 LINE",
"256 500 LINE"
);
},
{
closed = 1;
nodes = (
"278 300 OFFCURVE",
"300 278 OFFCURVE",
"300 250 CURVE SMOOTH",
"300 150 LINE SMOOTH",
"300 122 OFFCURVE",
"278 100 OFFCURVE",
"250 100 CURVE SMOOTH",
"222 100 OFFCURVE",
"200 122 OFFCURVE",
"200 150 CURVE SMOOTH",
"200 250 LINE SMOOTH",
"200 278 OFFCURVE",
"222 300 OFFCURVE",
"250 300 CURVE SMOOTH"
);
},
{
closed = 1;
nodes = (
"578 300 OFFCURVE",
"600 278 OFFCURVE",
"600 250 CURVE SMOOTH",
"600 150 LINE SMOOTH",
"600 122 OFFCURVE",
"578 100 OFFCURVE",
"550 100 CURVE SMOOTH",
"522 100 OFFCURVE",
"500 122 OFFCURVE",
"500 150 CURVE SMOOTH",
"500 250 LINE SMOOTH",
"500 278 OFFCURVE",
"522 300 OFFCURVE",
"550 300 CURVE SMOOTH"
);
}
);
width = 800;
}
);
note = "19";
unicode = E019;
},
{
glyphname = uniE01A;
layers = (
{
hints = (
{
horizontal = 1;
place = "{100, 100}";
type = Stem;
},
{
horizontal = 1;
place = "{600, 100}";
type = Stem;
},
{
place = "{0, 100}";
type = Stem;
},
{
place = "{600, 200}";
type = Stem;
},
{
place = "{600, 100}";
type = Stem;
}
);
layerId = "A0563635-EBCB-42F0-BA53-80B4033C9352";
paths = (
{
closed = 1;
nodes = (
"9 700 LINE SMOOTH",
"3 700 OFFCURVE",
"0 697 OFFCURVE",
"0 691 CURVE SMOOTH",
"0 109 LINE SMOOTH",
"0 103 OFFCURVE",
"3 100 OFFCURVE",
"9 100 CURVE SMOOTH",
"691 100 LINE SMOOTH",
"697 100 OFFCURVE",
"700 103 OFFCURVE",
"700 109 CURVE SMOOTH",
"700 300 LINE",
"800 300 LINE",
"800 500 LINE",
"700 500 LINE",
"700 690 LINE SMOOTH",
"700 696 OFFCURVE",
"697 700 OFFCURVE",
"691 700 CURVE SMOOTH"
);
},
{
closed = 1;
nodes = (
"100 600 LINE",
"600 600 LINE",
"600 200 LINE",
"100 200 LINE"
);
}
);
width = 800;
}
);
note = "1a";
unicode = E01A;
},
{
glyphname = uniE01B;
layers = (
{
hints = (
{
horizontal = 1;
place = "{100, 600}";
type = Stem;
}
);
layerId = "A0563635-EBCB-42F0-BA53-80B4033C9352";
paths = (
{
closed = 1;
nodes = (
"9 700 LINE SMOOTH",
"3 700 OFFCURVE",
"0 697 OFFCURVE",
"0 691 CURVE SMOOTH",
"0 109 LINE SMOOTH",
"0 103 OFFCURVE",
"3 100 OFFCURVE",
"9 100 CURVE SMOOTH",
"691 100 LINE SMOOTH",
"697 100 OFFCURVE",
"700 103 OFFCURVE",
"700 109 CURVE SMOOTH",
"700 300 LINE",
"800 300 LINE",
"800 500 LINE",
"700 500 LINE",
"700 690 LINE SMOOTH",
"700 696 OFFCURVE",
"697 700 OFFCURVE",
"691 700 CURVE SMOOTH"
);
}
);
width = 800;
}
);
note = "1b";
unicode = E01B;
},
{
glyphname = uniE01C;
layers = (
{
hints = (
{
horizontal = 1;
place = "{-100, 300}";
type = Stem;
},
{
horizontal = 1;
place = "{600, 100}";
type = Stem;
},
{
place = "{200, 100}";
type = Stem;
},
{
place = "{500, 100}";
type = Stem;
}
);
layerId = "A0563635-EBCB-42F0-BA53-80B4033C9352";
paths = (
{
closed = 1;
nodes = (
"92 622 OFFCURVE",
"114 599 OFFCURVE",
"142 599 CURVE SMOOTH",
"144 599 OFFCURVE",
"148 600 OFFCURVE",
"150 600 CURVE SMOOTH",
"200 600 LINE",
"200 459 LINE",
"191 442 OFFCURVE",
"80 228 OFFCURVE",
"34 150 CURVE SMOOTH",
"18 124 OFFCURVE",
"0 90 OFFCURVE",
"0 44 CURVE SMOOTH",
"0 5 OFFCURVE",
"15 -33 OFFCURVE",
"41 -59 CURVE SMOOTH",
"67 -85 OFFCURVE",
"105 -100 OFFCURVE",
"144 -100 CURVE SMOOTH",
"656 -100 LINE SMOOTH",
"694 -100 OFFCURVE",
"730 -84 OFFCURVE",
"756 -59 CURVE",
"759 -59 LINE",
"785 -33 OFFCURVE",
"800 5 OFFCURVE",
"800 44 CURVE SMOOTH",
"800 89 OFFCURVE",
"782 124 OFFCURVE",
"766 150 CURVE SMOOTH",
"720 228 OFFCURVE",
"609 442 OFFCURVE",
"600 459 CURVE",
"600 600 LINE",
"650 600 LINE SMOOTH",
"678 600 OFFCURVE",
"700 622 OFFCURVE",
"700 650 CURVE SMOOTH",
"700 678 OFFCURVE",
"678 700 OFFCURVE",
"650 700 CURVE SMOOTH",
"150 700 LINE",
"145 700 LINE",
"140 700 LINE",
"137 700 LINE SMOOTH",
"111 700 OFFCURVE",
"92 673 OFFCURVE",
"92 650 CURVE SMOOTH"
);
},
{
closed = 1;
nodes = (
"500 600 LINE",
"500 438 LINE",
"506 428 LINE",
"506 428 OFFCURVE",
"569 305 OFFCURVE",
"625 200 CURVE",
"175 200 LINE",
"231 305 OFFCURVE",
"294 428 OFFCURVE",
"294 428 CURVE",
"300 438 LINE",
"300 600 LINE"
);
}
);
width = 800;
}
);
note = "1c";
unicode = E01C;
},
{
glyphname = uniE01D;
layers = (
{
hints = (
{
horizontal = 1;
place = "{0, 100}";
type = Stem;
},
{
horizontal = 1;
place = "{200, 600}";
type = Stem;
}
);
layerId = "A0563635-EBCB-42F0-BA53-80B4033C9352";
paths = (
{
closed = 1;
nodes = (
"290 800 OFFCURVE",
"200 710 OFFCURVE",
"200 600 CURVE SMOOTH",
"200 496 OFFCURVE",
"148 402 OFFCURVE",
"66 334 CURVE SMOOTH",
"25 300 OFFCURVE",
"0 252 OFFCURVE",
"0 200 CURVE",
"800 200 LINE",
"800 252 OFFCURVE",
"775 300 OFFCURVE",
"734 334 CURVE SMOOTH",
"652 402 OFFCURVE",
"600 496 OFFCURVE",
"600 600 CURVE SMOOTH",
"600 710 OFFCURVE",
"510 800 OFFCURVE",
"400 800 CURVE SMOOTH"
);
},
{
closed = 1;
nodes = (
"300 100 LINE",
"300 45 OFFCURVE",
"345 0 OFFCURVE",
"400 0 CURVE SMOOTH",
"455 0 OFFCURVE",
"500 45 OFFCURVE",
"500 100 CURVE"
);
}
);
width = 800;
}
);
note = "1d";
unicode = E01D;
},
{
glyphname = uniE01E;
layers = (
{
hints = (
{
horizontal = 1;
place = "{0, 21}";
target = up;
type = BottomGhost;
},
{
place = "{150, 100}";
type = Stem;
}
);
layerId = "A0563635-EBCB-42F0-BA53-80B4033C9352";
paths = (
{
closed = 1;
nodes = (
"150 800 LINE",
"150 550 LINE",
"75 625 LINE",
"0 550 LINE",
"150 400 LINE",
"0 250 LINE",
"75 175 LINE",
"150 250 LINE",
"150 0 LINE",
"200 0 LINE",
"550 250 LINE",
"325 403 LINE",
"550 550 LINE",
"200 800 LINE"
);
},
{
closed = 1;
nodes = (
"250 650 LINE",
"400 550 LINE",
"250 450 LINE"
);
},
{
closed = 1;
nodes = (
"250 350 LINE",
"400 250 LINE",
"250 150 LINE"
);
}
);
width = 600;
}
);
note = "1e";
unicode = E01E;
},
{
glyphname = uniE01F;
layers = (
{
hints = (
{
horizontal = 1;
place = "{0, 100}";
type = Stem;
},
{
horizontal = 1;
place = "{400, 100}";
type = Stem;
},
{
horizontal = 1;
place = "{700, 100}";
type = Stem;
},
{
place = "{100, 200}";
type = Stem;
},
{
place = "{600, 200}";
type = Stem;
},
{
place = "{500, 200}";
type = Stem;
}
);
layerId = "A0563635-EBCB-42F0-BA53-80B4033C9352";
paths = (
{
closed = 1;
nodes = (
"0 800 LINE",
"0 700 LINE",
"55 700 OFFCURVE",
"100 655 OFFCURVE",
"100 600 CURVE SMOOTH",
"100 200 LINE SMOOTH",
"100 145 OFFCURVE",
"55 100 OFFCURVE",
"0 100 CURVE",
"0 0 LINE",
"550 0 LINE SMOOTH",
"688 0 OFFCURVE",
"800 112 OFFCURVE",
"800 250 CURVE SMOOTH",
"800 350 OFFCURVE",
"741 435 OFFCURVE",
"656 475 CURVE",
"683 509 OFFCURVE",
"700 553 OFFCURVE",
"700 600 CURVE SMOOTH",
"700 710 OFFCURVE",
"610 800 OFFCURVE",
"500 800 CURVE SMOOTH"
);
},
{
closed = 1;
nodes = (
"300 700 LINE",
"400 700 LINE SMOOTH",
"455 700 OFFCURVE",
"500 655 OFFCURVE",
"500 600 CURVE SMOOTH",
"500 545 OFFCURVE",
"455 500 OFFCURVE",
"400 500 CURVE SMOOTH",
"300 500 LINE"
);
},
{
closed = 1;
nodes = (
"300 400 LINE",
"450 400 LINE SMOOTH",
"533 400 OFFCURVE",
"600 333 OFFCURVE",
"600 250 CURVE SMOOTH",
"600 167 OFFCURVE",
"533 100 OFFCURVE",
"450 100 CURVE SMOOTH",
"300 100 LINE"
);
}
);
width = 800;
}
);
note = "1f";
unicode = E01F;
},
{
glyphname = uniE020;
layers = (
{
hints = (
{
horizontal = 1;
place = "{0, 21}";
target = up;
type = BottomGhost;
}
);
layerId = "A0563635-EBCB-42F0-BA53-80B4033C9352";
paths = (
{
closed = 1;
nodes = (
"300 800 LINE",
"0 300 LINE",
"200 300 LINE",
"200 0 LINE",
"500 500 LINE",
"300 500 LINE"
);
}
);
width = 600;
}
);
note = "20";
unicode = E020;
},
{
glyphname = uniE021;
layers = (
{
hints = (
{
horizontal = 1;
place = "{0, 100}";
type = Stem;
},
{
place = "{0, 100}";
type = Stem;
},
{
place = "{600, 100}";
type = Stem;
}
);
layerId = "A0563635-EBCB-42F0-BA53-80B4033C9352";
paths = (
{
closed = 1;
nodes = (
"100 800 LINE",
"81 797 LINE",
"42 789 OFFCURVE",
"11 758 OFFCURVE",
"3 719 CURVE",
"0 700 LINE",
"0 150 LINE SMOOTH",
"0 67 OFFCURVE",
"67 0 OFFCURVE",
"150 0 CURVE SMOOTH",
"700 0 LINE",
"700 100 LINE",
"150 100 LINE SMOOTH",
"122 100 OFFCURVE",
"100 122 OFFCURVE",
"100 150 CURVE SMOOTH",
"100 178 OFFCURVE",
"122 200 OFFCURVE",
"150 200 CURVE SMOOTH",
"700 200 LINE",
"700 750 LINE SMOOTH",
"700 778 OFFCURVE",
"678 800 OFFCURVE",
"650 800 CURVE SMOOTH",
"600 800 LINE",
"600 500 LINE",
"500 600 LINE",
"400 500 LINE",
"400 800 LINE"
);
}
);
width = 800;
}
);
note = "21";
unicode = E021;
},
{
glyphname = uniE022;
layers = (
{
hints = (
{
horizontal = 1;
place = "{0, 21}";
target = up;
type = BottomGhost;
},
{
place = "{0, 400}";
type = Stem;
}
);
layerId = "A0563635-EBCB-42F0-BA53-80B4033C9352";
paths = (
{
closed = 1;
nodes = (
"0 800 LINE",
"0 0 LINE",
"200 200 LINE",
"400 0 LINE",
"400 800 LINE"
);
}
);
width = 400;
}
);
note = "22";
unicode = E022;
},
{
glyphname = uniE023;
layers = (
{
hints = (
{
horizontal = 1;
place = "{700, 100}";
type = Stem;
}
);
layerId = "A0563635-EBCB-42F0-BA53-80B4033C9352";
paths = (
{
closed = 1;
nodes = (
"0 800 LINE",
"0 700 LINE",
"800 700 LINE",
"800 800 LINE"
);
},
{
closed = 1;
nodes = (
"0 600 LINE",
"0 9 LINE SMOOTH",
"0 3 OFFCURVE",
"3 0 OFFCURVE",
"9 0 CURVE SMOOTH",
"791 0 LINE SMOOTH",
"797 0 OFFCURVE",
"800 3 OFFCURVE",
"800 9 CURVE SMOOTH",
"800 600 LINE",
"503 600 LINE",
"503 497 LINE",
"300 497 LINE",
"300 600 LINE"
);
}
);
width = 800;
}
);
note = "23";
unicode = E023;
},
{
glyphname = uniE024;
layers = (
{
hints = (
{
horizontal = 1;
place = "{0, 200}";
type = Stem;
},
{
horizontal = 1;
place = "{300, 300}";
type = Stem;
},
{
horizontal = 1;
place = "{700, 100}";
type = Stem;
},
{
place = "{200, 100}";
type = Stem;
},
{
place = "{500, 100}";
type = Stem;
}
);
layerId = "A0563635-EBCB-42F0-BA53-80B4033C9352";
paths = (
{
closed = 1;
nodes = (
"300 800 LINE SMOOTH",
"245 800 OFFCURVE",
"200 755 OFFCURVE",
"200 700 CURVE SMOOTH",
"200 600 LINE",
"9 600 LINE SMOOTH",
"3 600 OFFCURVE",
"0 597 OFFCURVE",
"0 591 CURVE SMOOTH",
"0 350 LINE SMOOTH",
"0 322 OFFCURVE",
"22 300 OFFCURVE",
"50 300 CURVE SMOOTH",
"750 300 LINE SMOOTH",
"778 300 OFFCURVE",
"800 322 OFFCURVE",
"800 350 CURVE SMOOTH",
"800 591 LINE SMOOTH",
"800 597 OFFCURVE",
"797 600 OFFCURVE",
"791 600 CURVE SMOOTH",
"600 600 LINE",
"600 700 LINE SMOOTH",
"600 755 OFFCURVE",
"555 800 OFFCURVE",
"500 800 CURVE SMOOTH"
);
},
{
closed = 1;
nodes = (
"300 700 LINE",
"500 700 LINE",
"500 600 LINE",
"300 600 LINE"
);
},
{
closed = 1;
nodes = (
"0 9 LINE SMOOTH",
"0 3 OFFCURVE",
"3 0 OFFCURVE",
"9 0 CURVE SMOOTH",
"791 0 LINE SMOOTH",
"797 0 OFFCURVE",
"800 3 OFFCURVE",
"800 9 CURVE SMOOTH",
"800 209 LINE",
"784 203 OFFCURVE",
"768 200 OFFCURVE",
"750 200 CURVE SMOOTH",
"50 200 LINE SMOOTH",
"32 200 OFFCURVE",
"16 203 OFFCURVE",
"0 209 CURVE"
);
}
);
width = 800;
}
);
note = "24";
unicode = E024;
},
{
glyphname = uniE025;
layers = (
{
hints = (
{
horizontal = 1;
place = "{0, 100}";
type = Stem;
},
{
horizontal = 1;
place = "{300, 100}";
type = Stem;
},
{
horizontal = 1;
place = "{700, 100}";
type = Stem;
},
{
place = "{100, 100}";
type = Stem;
},
{
place = "{400, 100}";
type = Stem;
},
{
place = "{122, 100}";
type = Stem;
}
);
layerId = "A0563635-EBCB-42F0-BA53-80B4033C9352";
paths = (
{
closed = 1;
nodes = (
"238 800 OFFCURVE",
"184 774 OFFCURVE",
"150 731 CURVE SMOOTH",
"116 689 OFFCURVE",
"100 633 OFFCURVE",
"100 575 CURVE SMOOTH",
"100 506 OFFCURVE",
"117 450 OFFCURVE",
"125 400 CURVE",
"0 400 LINE",
"0 300 LINE",
"122 300 LINE",
"111 255 OFFCURVE",
"85 203 OFFCURVE",
"16 134 CURVE",
"0 122 LINE",
"0 0 LINE",
"600 0 LINE",
"600 100 LINE",
"109 100 LINE",
"173 173 OFFCURVE",
"208 240 OFFCURVE",
"222 300 CURVE",
"400 300 LINE",
"400 400 LINE",
"228 400 LINE",
"220 468 OFFCURVE",
"200 524 OFFCURVE",
"200 575 CURVE SMOOTH",
"200 614 OFFCURVE",
"211 648 OFFCURVE",
"228 669 CURVE SMOOTH",
"245 690 OFFCURVE",
"265 700 OFFCURVE",
"300 700 CURVE SMOOTH",
"339 700 OFFCURVE",
"361 689 OFFCURVE",
"375 675 CURVE SMOOTH",
"389 661 OFFCURVE",
"400 639 OFFCURVE",
"400 600 CURVE",
"500 600 LINE",
"500 658 OFFCURVE",
"484 710 OFFCURVE",
"447 747 CURVE SMOOTH",
"410 784 OFFCURVE",
"358 800 OFFCURVE",
"300 800 CURVE SMOOTH"
);
}
);
width = 600;
}
);
note = "25";
unicode = E025;
},
{
glyphname = uniE026;
layers = (
{
hints = (
{
horizontal = 1;
place = "{-100, 100}";
type = Stem;
},
{
horizontal = 1;
place = "{400, 100}";
type = Stem;
},
{
horizontal = 1;
place = "{600, 100}";
type = Stem;
},
{
place = "{0, 100}";
type = Stem;
},
{
place = "{200, 100}";
type = Stem;
},
{
place = "{700, 100}";
type = Stem;
}
);
layerId = "A0563635-EBCB-42F0-BA53-80B4033C9352";
paths = (
{
closed = 1;
nodes = (
"34 700 LINE",
"15 694 OFFCURVE",
"0 672 OFFCURVE",
"0 652 CURVE SMOOTH",
"0 650 LINE",
"0 -50 LINE SMOOTH",
"0 -78 OFFCURVE",
"22 -100 OFFCURVE",
"50 -100 CURVE SMOOTH",
"750 -100 LINE SMOOTH",
"778 -100 OFFCURVE",
"800 -78 OFFCURVE",
"800 -50 CURVE SMOOTH",
"800 650 LINE SMOOTH",
"800 678 OFFCURVE",
"778 700 OFFCURVE",
"750 700 CURVE SMOOTH",
"50 700 LINE",
"45 700 LINE",
"41 700 LINE",
"38 700 LINE"
);
},
{
closed = 1;
nodes = (
"178 600 OFFCURVE",
"200 578 OFFCURVE",
"200 550 CURVE SMOOTH",
"200 522 OFFCURVE",
"178 500 OFFCURVE",
"150 500 CURVE SMOOTH",
"122 500 OFFCURVE",
"100 522 OFFCURVE",
"100 550 CURVE SMOOTH",
"100 578 OFFCURVE",
"122 600 OFFCURVE",
"150 600 CURVE SMOOTH"
);
},
{
closed = 1;
nodes = (
"650 600 LINE SMOOTH",
"678 600 OFFCURVE",
"700 578 OFFCURVE",
"700 550 CURVE SMOOTH",
"700 522 OFFCURVE",
"678 500 OFFCURVE",
"650 500 CURVE SMOOTH",
"350 500 LINE SMOOTH",
"322 500 OFFCURVE",
"300 522 OFFCURVE",
"300 550 CURVE SMOOTH",
"300 578 OFFCURVE",
"322 600 OFFCURVE",
"350 600 CURVE SMOOTH"
);
},
{
closed = 1;
nodes = (
"100 400 LINE",
"700 400 LINE",
"700 0 LINE",
"100 0 LINE"
);
}
);
width = 800;
}
);
note = "26";
unicode = E026;
},
{
glyphname = uniE027;
layers = (
{
hints = (
{
horizontal = 1;
place = "{0, 21}";
target = up;
type = BottomGhost;
},
{
place = "{134, 266}";
type = Stem;
}
);
layerId = "A0563635-EBCB-42F0-BA53-80B4033C9352";
paths = (
{
closed = 1;
nodes = (
"744 797 LINE",
"738 794 LINE",
"363 528 LINE",
"350 513 LINE",
"338 488 LINE",
"410 465 OFFCURVE",
"465 410 OFFCURVE",
"488 338 CURVE",
"513 350 LINE",
"528 363 LINE",
"794 738 LINE SMOOTH",
"797 742 OFFCURVE",
"798 746 OFFCURVE",
"794 750 CURVE SMOOTH",
"750 794 LINE"
);
},
{
closed = 1;
nodes = (
"192 400 OFFCURVE",
"134 340 OFFCURVE",
"134 266 CURVE SMOOTH",
"134 167 OFFCURVE",
"80 80 OFFCURVE",
"0 34 CURVE",
"39 12 OFFCURVE",
"86 0 OFFCURVE",
"134 0 CURVE SMOOTH",
"281 0 OFFCURVE",
"400 119 OFFCURVE",
"400 266 CURVE SMOOTH",
"400 340 OFFCURVE",
"340 400 OFFCURVE",
"266 400 CURVE SMOOTH"
);
}
);
width = 800;
}
);
note = "27";
unicode = E027;
},
{
glyphname = uniE028;
layers = (
{
hints = (
{
horizontal = 1;
place = "{-5, 99}";
type = Stem;
},
{
horizontal = 1;
place = "{200, 100}";
type = Stem;
},
{
place = "{409, 300}";
type = Stem;
}
);
layerId = "A0563635-EBCB-42F0-BA53-80B4033C9352";
paths = (
{
closed = 1;
nodes = (
"9 433 OFFCURVE",
"21 413 OFFCURVE",
"37 406 CURVE",
"153 350 LINE",
"144 334 OFFCURVE",
"134 317 OFFCURVE",
"128 300 CURVE",
"59 300 LINE",
"54 300 LINE SMOOTH",
"26 300 OFFCURVE",
"4 276 OFFCURVE",
"4 250 CURVE SMOOTH",
"4 222 OFFCURVE",
"26 200 OFFCURVE",
"54 200 CURVE SMOOTH",
"59 200 LINE",
"109 200 LINE",
"109 177 OFFCURVE",
"111 155 OFFCURVE",
"115 134 CURVE",
"37 94 LINE",
"16 89 OFFCURVE",
"0 66 OFFCURVE",
"0 45 CURVE SMOOTH",
"0 17 OFFCURVE",
"22 -5 OFFCURVE",
"50 -5 CURVE SMOOTH",
"60 -5 OFFCURVE",
"73 0 OFFCURVE",
"81 6 CURVE",
"147 41 LINE",
"171 -5 OFFCURVE",
"209 -44 OFFCURVE",
"250 -69 CURVE",
"285 -50 OFFCURVE",
"309 -25 OFFCURVE",
"309 3 CURVE SMOOTH",
"309 147 LINE",
"309 152 LINE",
"309 156 LINE",
"309 238 LINE",
"310 241 OFFCURVE",
"310 246 OFFCURVE",
"310 249 CURVE SMOOTH",
"310 252 OFFCURVE",
"310 257 OFFCURVE",
"309 260 CURVE",
"314 283 OFFCURVE",
"335 300 OFFCURVE",
"359 300 CURVE SMOOTH",
"387 300 OFFCURVE",
"409 278 OFFCURVE",
"409 250 CURVE SMOOTH",
"409 163 LINE",
"409 158 LINE",
"409 153 LINE",
"409 147 LINE",
"409 142 LINE",
"409 138 LINE",
"409 3 LINE SMOOTH",
"409 -24 OFFCURVE",
"434 -50 OFFCURVE",
"469 -69 CURVE",
"510 -45 OFFCURVE",
"548 -5 OFFCURVE",
"572 41 CURVE",
"637 6 LINE",
"645 0 OFFCURVE",
"658 -5 OFFCURVE",
"668 -5 CURVE SMOOTH",
"696 -5 OFFCURVE",
"718 17 OFFCURVE",
"718 45 CURVE SMOOTH",
"718 66 OFFCURVE",
"702 89 OFFCURVE",
"681 94 CURVE",
"603 134 LINE",
"607 155 OFFCURVE",
"609 177 OFFCURVE",
"609 200 CURVE",
"659 200 LINE SMOOTH",
"687 200 OFFCURVE",
"709 222 OFFCURVE",
"709 250 CURVE SMOOTH",
"709 278 OFFCURVE",
"687 300 OFFCURVE",
"659 300 CURVE SMOOTH",
"591 300 LINE",
"585 317 OFFCURVE",
"575 334 OFFCURVE",
"566 350 CURVE",
"681 406 LINE",
"696 414 OFFCURVE",
"708 434 OFFCURVE",
"708 451 CURVE SMOOTH",
"708 479 OFFCURVE",
"686 501 OFFCURVE",
"658 501 CURVE SMOOTH",
"649 501 OFFCURVE",
"643 498 OFFCURVE",
"637 494 CURVE",
"506 428 LINE",
"478 450 LINE",
"556 533 OFFCURVE",
"478 700 OFFCURVE",
"359 700 CURVE SMOOTH",
"240 700 OFFCURVE",
"162 531 OFFCURVE",
"241 450 CURVE",
"212 428 LINE",
"81 494 LINE",
"74 498 OFFCURVE",
"63 501 OFFCURVE",
"55 501 CURVE SMOOTH",
"28 501 OFFCURVE",
"9 474 OFFCURVE",
"9 451 CURVE SMOOTH"
);
}
);
width = 800;
}
);
note = "28";
unicode = E028;
},
{
glyphname = uniE029;
layers = (
{
hints = (
{
place = "{600, 100}";
type = Stem;
}
);
layerId = "A0563635-EBCB-42F0-BA53-80B4033C9352";
paths = (
{
closed = 1;
nodes = (
"600 700 LINE",
"600 100 LINE",
"691 100 LINE SMOOTH",
"697 100 OFFCURVE",
"700 103 OFFCURVE",
"700 109 CURVE SMOOTH",
"700 691 LINE SMOOTH",
"700 697 OFFCURVE",
"697 700 OFFCURVE",
"691 700 CURVE SMOOTH"
);
},
{
closed = 1;
nodes = (
"210 503 LINE",
"191 500 LINE",
"9 500 LINE SMOOTH",
"3 500 OFFCURVE",
"0 497 OFFCURVE",
"0 491 CURVE SMOOTH",
"0 309 LINE SMOOTH",
"0 303 OFFCURVE",
"3 300 OFFCURVE",
"9 300 CURVE SMOOTH",
"100 300 LINE",
"203 28 LINE",
"214 3 OFFCURVE",
"247 -8 OFFCURVE",
"272 3 CURVE SMOOTH",
"297 14 OFFCURVE",
"308 47 OFFCURVE",
"297 72 CURVE SMOOTH",
"222 250 LINE",
"225 264 OFFCURVE",
"235 272 OFFCURVE",
"250 272 CURVE",
"250 275 LINE",
"500 150 LINE",
"500 650 LINE"
);
}
);
width = 800;
}
);
note = "29";
unicode = E029;
},
{
glyphname = uniE02A;
layers = (
{
hints = (
{
horizontal = 1;
place = "{0, 100}";
type = Stem;
},
{
horizontal = 1;
place = "{200, 100}";
type = Stem;
},
{
horizontal = 1;
place = "{400, 100}";
type = Stem;
},
{
horizontal = 1;
place = "{700, 100}";
type = Stem;
},
{
place = "{0, 100}";
type = Stem;
},
{
place = "{400, 100}";
type = Stem;
},
{
place = "{600, 100}";
type = Stem;
}
);
layerId = "A0563635-EBCB-42F0-BA53-80B4033C9352";
paths = (
{
closed = 1;
nodes = (
"9 800 LINE SMOOTH",
"3 800 OFFCURVE",
"0 797 OFFCURVE",
"0 791 CURVE SMOOTH",
"0 9 LINE SMOOTH",
"0 3 OFFCURVE",
"3 0 OFFCURVE",
"9 0 CURVE SMOOTH",
"691 0 LINE SMOOTH",
"697 0 OFFCURVE",
"700 3 OFFCURVE",
"700 9 CURVE SMOOTH",
"700 791 LINE SMOOTH",
"700 797 OFFCURVE",
"697 800 OFFCURVE",
"691 800 CURVE SMOOTH"
);
},
{
closed = 1;
nodes = (
"100 700 LINE",
"600 700 LINE",
"600 500 LINE",
"100 500 LINE"
);
},
{
closed = 1;
nodes = (
"100 400 LINE",
"200 400 LINE",
"200 300 LINE",
"100 300 LINE"
);
},
{
closed = 1;
nodes = (
"300 400 LINE",
"400 400 LINE",
"400 300 LINE",
"300 300 LINE"
);
},
{
closed = 1;
nodes = (
"500 400 LINE",
"600 400 LINE",
"600 100 LINE",
"500 100 LINE"
);
},
{
closed = 1;
nodes = (
"100 200 LINE",
"200 200 LINE",
"200 100 LINE",
"100 100 LINE"
);
},
{
closed = 1;
nodes = (
"300 200 LINE",
"400 200 LINE",
"400 100 LINE",
"300 100 LINE"
);
}
);
width = 800;
}
);
note = "2a";
unicode = E02A;
},
{
glyphname = uniE02B;
layers = (
{
hints = (
{
horizontal = 1;
place = "{0, 100}";
type = Stem;
},
{
horizontal = 1;
place = "{200, 100}";
type = Stem;
},
{
horizontal = 1;
place = "{400, 100}";
type = Stem;
},
{
horizontal = 1;
place = "{600, 200}";
type = Stem;
},
{
place = "{0, 100}";
type = Stem;
},
{
place = "{400, 100}";
type = Stem;
},
{
place = "{600, 100}";
type = Stem;
}
);
layerId = "A0563635-EBCB-42F0-BA53-80B4033C9352";
paths = (
{
closed = 1;
nodes = (
"0 800 LINE",
"0 600 LINE",
"700 600 LINE",
"700 800 LINE"
);
},
{
closed = 1;
nodes = (
"0 500 LINE",
"0 9 LINE SMOOTH",
"0 3 OFFCURVE",
"3 0 OFFCURVE",
"9 0 CURVE SMOOTH",
"691 0 LINE SMOOTH",
"697 0 OFFCURVE",
"700 3 OFFCURVE",
"700 9 CURVE SMOOTH",
"700 500 LINE"
);
},
{
closed = 1;
nodes = (
"100 400 LINE",
"200 400 LINE",
"200 300 LINE",
"100 300 LINE"
);
},
{
closed = 1;
nodes = (
"300 400 LINE",
"400 400 LINE",
"400 300 LINE",
"300 300 LINE"
);
},
{
closed = 1;
nodes = (
"500 400 LINE",
"600 400 LINE",
"600 300 LINE",
"500 300 LINE"
);
},
{
closed = 1;
nodes = (
"100 200 LINE",
"200 200 LINE",
"200 100 LINE",
"100 100 LINE"
);
},
{
closed = 1;
nodes = (
"300 200 LINE",
"400 200 LINE",
"400 100 LINE",
"300 100 LINE"
);
}
);
width = 800;
}
);
note = "2b";
unicode = E02B;
},
{
glyphname = uniE02C;
layers = (
{
hints = (
{
horizontal = 1;
place = "{0, 100}";
type = Stem;
},
{
horizontal = 1;
place = "{200, 200}";
type = Stem;
},
{
horizontal = 1;
place = "{500, 300}";
type = Stem;
},
{
place = "{200, 100}";
type = Stem;
},
{
place = "{400, 200}";
type = Stem;
},
{
place = "{700, 100}";
type = Stem;
},
{
horizontal = 1;
place = "{500, 100}";
type = Stem;
},
{
place = "{0, 100}";
type = Stem;
}
);
layerId = "A0563635-EBCB-42F0-BA53-80B4033C9352";
paths = (
{
closed = 1;
nodes = (
"409 800 LINE SMOOTH",
"403 800 OFFCURVE",
"399 796 OFFCURVE",
"397 791 CURVE",
"303 609 LINE",
"301 604 OFFCURVE",
"297 600 OFFCURVE",
"291 600 CURVE SMOOTH",
"150 600 LINE SMOOTH",
"67 600 OFFCURVE",
"0 533 OFFCURVE",
"0 450 CURVE SMOOTH",
"0 9 LINE SMOOTH",
"0 3 OFFCURVE",
"3 0 OFFCURVE",
"9 0 CURVE SMOOTH",
"791 0 LINE SMOOTH",
"797 0 OFFCURVE",
"800 3 OFFCURVE",
"800 9 CURVE SMOOTH",
"800 591 LINE SMOOTH",
"800 597 OFFCURVE",
"797 600 OFFCURVE",
"791 600 CURVE SMOOTH",
"709 600 LINE SMOOTH",
"703 600 OFFCURVE",
"699 604 OFFCURVE",
"697 609 CURVE",
"603 791 LINE",
"601 796 OFFCURVE",
"597 800 OFFCURVE",
"591 800 CURVE SMOOTH"
);
},
{
closed = 1;
nodes = (
"178 500 OFFCURVE",
"200 478 OFFCURVE",
"200 450 CURVE SMOOTH",
"200 422 OFFCURVE",
"178 400 OFFCURVE",
"150 400 CURVE SMOOTH",
"122 400 OFFCURVE",
"100 422 OFFCURVE",
"100 450 CURVE SMOOTH",
"100 478 OFFCURVE",
"122 500 OFFCURVE",
"150 500 CURVE SMOOTH"
);
},
{
closed = 1;
nodes = (
"610 500 OFFCURVE",
"700 410 OFFCURVE",
"700 300 CURVE SMOOTH",
"700 190 OFFCURVE",
"610 100 OFFCURVE",
"500 100 CURVE SMOOTH",
"390 100 OFFCURVE",
"300 190 OFFCURVE",
"300 300 CURVE SMOOTH",
"300 410 OFFCURVE",
"390 500 OFFCURVE",
"500 500 CURVE SMOOTH"
);
},
{
closed = 1;
nodes = (
"445 400 OFFCURVE",
"400 355 OFFCURVE",
"400 300 CURVE SMOOTH",
"400 245 OFFCURVE",
"445 200 OFFCURVE",
"500 200 CURVE SMOOTH",
"555 200 OFFCURVE",
"600 245 OFFCURVE",
"600 300 CURVE SMOOTH",
"600 355 OFFCURVE",
"555 400 OFFCURVE",
"500 400 CURVE SMOOTH"
);
}
);
width = 800;
}
);
note = "2c";
unicode = E02C;
},
{
glyphname = uniE02D;
layers = (
{
layerId = "A0563635-EBCB-42F0-BA53-80B4033C9352";
paths = (
{
closed = 1;
nodes = (
"0 600 LINE",
"400 200 LINE",
"800 600 LINE"
);
}
);
width = 800;
}
);
note = "2d";
unicode = E02D;
},
{
glyphname = uniE02E;
layers = (
{
hints = (
{
horizontal = 1;
place = "{0, 21}";
target = up;
type = BottomGhost;
}
);
layerId = "A0563635-EBCB-42F0-BA53-80B4033C9352";
paths = (
{
closed = 1;
nodes = (
"400 800 LINE",
"0 400 LINE",
"400 0 LINE"
);
}
);
width = 400;
}
);
note = "2e";
unicode = E02E;
},
{
glyphname = uniE02F;
layers = (
{
hints = (
{
horizontal = 1;
place = "{0, 21}";
target = up;
type = BottomGhost;
}
);
layerId = "A0563635-EBCB-42F0-BA53-80B4033C9352";
paths = (
{
closed = 1;
nodes = (
"0 800 LINE",
"0 0 LINE",
"400 400 LINE"
);
}
);
width = 400;
}
);
note = "2f";
unicode = E02F;
},
{
glyphname = uniE030;
layers = (
{
layerId = "A0563635-EBCB-42F0-BA53-80B4033C9352";
paths = (
{
closed = 1;
nodes = (
"400 600 LINE",
"0 200 LINE",
"800 200 LINE"
);
}
);
width = 800;
}
);
note = "30";
unicode = E030;
},
{
glyphname = uniE031;
layers = (
{
hints = (
{
horizontal = 1;
place = "{0, 100}";
type = Stem;
},
{
horizontal = 1;
place = "{500, 100}";
type = Stem;
},
{
place = "{308, 100}";
type = Stem;
},
{
place = "{608, 100}";
type = Stem;
},
{
horizontal = 1;
place = "{200, 300}";
type = Stem;
}
);
layerId = "A0563635-EBCB-42F0-BA53-80B4033C9352";
paths = (
{
closed = 1;
nodes = (
"0 522 OFFCURVE",
"23 499 OFFCURVE",
"51 499 CURVE SMOOTH",
"53 499 OFFCURVE",
"56 500 OFFCURVE",
"58 500 CURVE SMOOTH",
"208 500 LINE",
"218 475 LINE",
"245 392 OFFCURVE",
"272 308 OFFCURVE",
"299 225 CURVE SMOOTH",
"303 212 OFFCURVE",
"319 200 OFFCURVE",
"333 200 CURVE SMOOTH",
"683 200 LINE SMOOTH",
"697 200 OFFCURVE",
"714 212 OFFCURVE",
"718 225 CURVE SMOOTH",
"799 475 LINE SMOOTH",
"803 488 OFFCURVE",
"798 500 OFFCURVE",
"784 500 CURVE SMOOTH",
"340 500 LINE",
"302 572 LINE",
"295 587 OFFCURVE",
"275 600 OFFCURVE",
"258 600 CURVE SMOOTH",
"58 600 LINE",
"54 600 LINE",
"49 600 LINE",
"46 600 LINE SMOOTH",
"20 600 OFFCURVE",
"0 573 OFFCURVE",
"0 550 CURVE SMOOTH"
);
},
{
closed = 1;
nodes = (
"330 100 OFFCURVE",
"308 78 OFFCURVE",
"308 50 CURVE SMOOTH",
"308 22 OFFCURVE",
"330 0 OFFCURVE",
"358 0 CURVE SMOOTH",
"386 0 OFFCURVE",
"408 22 OFFCURVE",
"408 50 CURVE SMOOTH",
"408 78 OFFCURVE",
"386 100 OFFCURVE",
"358 100 CURVE SMOOTH"
);
},
{
closed = 1;
nodes = (
"630 100 OFFCURVE",
"608 78 OFFCURVE",
"608 50 CURVE SMOOTH",
"608 22 OFFCURVE",
"630 0 OFFCURVE",
"658 0 CURVE SMOOTH",
"686 0 OFFCURVE",
"708 22 OFFCURVE",
"708 50 CURVE SMOOTH",
"708 78 OFFCURVE",
"686 100 OFFCURVE",
"658 100 CURVE SMOOTH"
);
}
);
width = 800;
}
);
note = "31";
unicode = E031;
},
{
glyphname = uniE032;
layers = (
{
hints = (
{
horizontal = 1;
place = "{0, 21}";
target = up;
type = BottomGhost;
},
{
horizontal = 1;
place = "{100, 400}";
type = Stem;
},
{
horizontal = 1;
place = "{600, 100}";
type = Stem;
},
{
place = "{0, 200}";
type = Stem;
},
{
place = "{300, 500}";
type = Stem;
}
);
layerId = "A0563635-EBCB-42F0-BA53-80B4033C9352";
paths = (
{
closed = 1;
nodes = (
"0 700 LINE",
"0 200 LINE",
"100 300 LINE",
"200 300 LINE",
"200 600 LINE",
"500 600 LINE",
"500 700 LINE"
);
},
{
closed = 1;
nodes = (
"300 500 LINE",
"300 100 LINE",
"700 100 LINE",
"800 0 LINE",
"800 500 LINE"
);
}
);
width = 800;
}
);
note = "32";
unicode = E032;
},
{
glyphname = uniE033;
layers = (
{
layerId = "A0563635-EBCB-42F0-BA53-80B4033C9352";
paths = (
{
closed = 1;
nodes = (
"641 700 LINE",
"528 581 OFFCURVE",
"410 467 OFFCURVE",
"294 350 CURVE",
"242 399 OFFCURVE",
"191 449 OFFCURVE",
"141 500 CURVE",
"0 359 LINE",
"72 288 LINE SMOOTH",
"145 214 OFFCURVE",
"220 142 OFFCURVE",
"291 66 CURVE",
"784 559 LINE"
);
}
);
width = 800;
}
);
note = "33";
unicode = E033;
},
{
glyphname = uniE034;
layers = (
{
layerId = "A0563635-EBCB-42F0-BA53-80B4033C9352";
paths = (
{
closed = 1;
nodes = (
"150 600 LINE",
"0 450 LINE",
"400 50 LINE",
"800 450 LINE",
"650 600 LINE",
"400 350 LINE"
);
}
);
width = 800;
}
);
note = "34";
unicode = E034;
},
{
glyphname = uniE035;
layers = (
{
hints = (
{
horizontal = 1;
place = "{0, 21}";
target = up;
type = BottomGhost;
}
);
layerId = "A0563635-EBCB-42F0-BA53-80B4033C9352";
paths = (
{
closed = 1;
nodes = (
"400 800 LINE",
"0 400 LINE",
"400 0 LINE",
"550 150 LINE",
"300 400 LINE",
"550 650 LINE"
);
}
);
width = 600;
}
);
note = "35";
unicode = E035;
},
{
glyphname = uniE036;
layers = (
{
hints = (
{
horizontal = 1;
place = "{0, 21}";
target = up;
type = BottomGhost;
}
);
layerId = "A0563635-EBCB-42F0-BA53-80B4033C9352";
paths = (
{
closed = 1;
nodes = (
"150 800 LINE",
"0 650 LINE",
"250 400 LINE",
"0 150 LINE",
"150 0 LINE",
"550 400 LINE"
);
}
);
width = 600;
}
);
note = "36";
unicode = E036;
},
{
glyphname = uniE037;
layers = (
{
layerId = "A0563635-EBCB-42F0-BA53-80B4033C9352";
paths = (
{
closed = 1;
nodes = (
"400 600 LINE",
"0 200 LINE",
"150 50 LINE",
"400 300 LINE",
"650 50 LINE",
"800 200 LINE"
);
}
);
width = 800;
}
);
note = "37";
unicode = E037;
},
{
glyphname = uniE038;
layers = (
{
hints = (
{
horizontal = 1;
place = "{0, 800}";
type = Stem;
}
);
layerId = "A0563635-EBCB-42F0-BA53-80B4033C9352";
paths = (
{
closed = 1;
nodes = (
"179 800 OFFCURVE",
"0 621 OFFCURVE",
"0 400 CURVE SMOOTH",
"0 179 OFFCURVE",
"179 0 OFFCURVE",
"400 0 CURVE SMOOTH",
"621 0 OFFCURVE",
"800 179 OFFCURVE",
"800 400 CURVE SMOOTH",
"800 621 OFFCURVE",
"621 800 OFFCURVE",
"400 800 CURVE SMOOTH"
);
},
{
closed = 1;
nodes = (
"600 622 LINE",
"672 550 LINE",
"350 228 LINE",
"178 400 LINE",
"250 472 LINE",
"350 372 LINE"
);
}
);
width = 800;
}
);
note = "38";
unicode = E038;
},
{
glyphname = uniE039;
layers = (
{
hints = (
{
horizontal = 1;
place = "{0, 800}";
type = Stem;
},
{
place = "{0, 800}";
type = Stem;
}
);
layerId = "A0563635-EBCB-42F0-BA53-80B4033C9352";
paths = (
{
closed = 1;
nodes = (
"179 800 OFFCURVE",
"0 621 OFFCURVE",
"0 400 CURVE SMOOTH",
"0 179 OFFCURVE",
"179 0 OFFCURVE",
"400 0 CURVE SMOOTH",
"621 0 OFFCURVE",
"800 179 OFFCURVE",
"800 400 CURVE SMOOTH",
"800 621 OFFCURVE",
"621 800 OFFCURVE",
"400 800 CURVE SMOOTH"
);
},
{
closed = 1;
nodes = (
"250 622 LINE",
"400 472 LINE",
"550 622 LINE",
"622 550 LINE",
"472 400 LINE",
"622 250 LINE",
"550 178 LINE",
"400 328 LINE",
"250 178 LINE",
"178 250 LINE",
"328 400 LINE",
"178 550 LINE"
);
}
);
width = 800;
}
);
note = "39";
unicode = E039;
},
{
glyphname = uniE03A;
layers = (
{
hints = (
{
horizontal = 1;
place = "{0, 500}";
type = Stem;
},
{
horizontal = 1;
place = "{600, 100}";
type = Stem;
},
{
place = "{0, 100}";
type = Stem;
},
{
place = "{300, 100}";
type = Stem;
},
{
place = "{600, 100}";
type = Stem;
}
);
layerId = "A0563635-EBCB-42F0-BA53-80B4033C9352";
paths = (
{
closed = 1;
nodes = (
"322 800 OFFCURVE",
"300 778 OFFCURVE",
"300 750 CURVE SMOOTH",
"300 700 LINE",
"225 700 LINE SMOOTH",
"211 700 OFFCURVE",
"200 689 OFFCURVE",
"200 675 CURVE SMOOTH",
"200 600 LINE",
"500 600 LINE",
"500 675 LINE SMOOTH",
"500 689 OFFCURVE",
"489 700 OFFCURVE",
"475 700 CURVE SMOOTH",
"400 700 LINE",
"400 750 LINE SMOOTH",
"400 778 OFFCURVE",
"378 800 OFFCURVE",
"350 800 CURVE SMOOTH"
);
},
{
closed = 1;
nodes = (
"25 700 LINE SMOOTH",
"11 700 OFFCURVE",
"0 689 OFFCURVE",
"0 675 CURVE SMOOTH",
"0 25 LINE SMOOTH",
"0 11 OFFCURVE",
"11 0 OFFCURVE",
"25 0 CURVE SMOOTH",
"675 0 LINE SMOOTH",
"689 0 OFFCURVE",
"700 11 OFFCURVE",
"700 25 CURVE SMOOTH",
"700 675 LINE SMOOTH",
"700 689 OFFCURVE",
"689 700 OFFCURVE",
"675 700 CURVE SMOOTH",
"600 700 LINE",
"600 500 LINE",
"100 500 LINE",
"100 700 LINE"
);
}
);
width = 800;
}
);
note = "3a";
unicode = E03A;
},
{
glyphname = uniE03B;
layers = (
{
hints = (
{
horizontal = 1;
place = "{0, 100}";
type = Stem;
},
{
horizontal = 1;
place = "{700, 100}";
type = Stem;
},
{
place = "{0, 100}";
type = Stem;
},
{
place = "{350, 100}";
type = Stem;
},
{
place = "{700, 100}";
type = Stem;
}
);
layerId = "A0563635-EBCB-42F0-BA53-80B4033C9352";
paths = (
{
closed = 1;
nodes = (
"180 800 OFFCURVE",
"0 620 OFFCURVE",
"0 400 CURVE SMOOTH",
"0 180 OFFCURVE",
"180 0 OFFCURVE",
"400 0 CURVE SMOOTH",
"620 0 OFFCURVE",
"800 180 OFFCURVE",
"800 400 CURVE SMOOTH",
"800 620 OFFCURVE",
"620 800 OFFCURVE",
"400 800 CURVE SMOOTH"
);
},
{
closed = 1;
nodes = (
"566 700 OFFCURVE",
"700 566 OFFCURVE",
"700 400 CURVE SMOOTH",
"700 234 OFFCURVE",
"566 100 OFFCURVE",
"400 100 CURVE SMOOTH",
"234 100 OFFCURVE",
"100 234 OFFCURVE",
"100 400 CURVE SMOOTH",
"100 566 OFFCURVE",
"234 700 OFFCURVE",
"400 700 CURVE SMOOTH"
);
},
{
closed = 1;
nodes = (
"350 600 LINE",
"350 378 LINE",
"366 366 LINE",
"395 337 OFFCURVE",
"423 308 OFFCURVE",
"450 278 CURVE",
"522 350 LINE",
"497 372 OFFCURVE",
"473 395 OFFCURVE",
"450 419 CURVE",
"450 600 LINE"
);
}
);
width = 800;
}
);
note = "3b";
unicode = E03B;
},
{
glyphname = uniE03C;
layers = (
{
hints = (
{
horizontal = 1;
place = "{0, 21}";
target = up;
type = BottomGhost;
},
{
horizontal = 1;
place = "{500, 300}";
type = Stem;
},
{
place = "{0, 300}";
type = Stem;
},
{
place = "{400, 100}";
type = Stem;
},
{
place = "{600, 200}";
type = Stem;
}
);
layerId = "A0563635-EBCB-42F0-BA53-80B4033C9352";
paths = (
{
closed = 1;
nodes = (
"329 800 OFFCURVE",
"223 714 OFFCURVE",
"200 600 CURVE",
"90 600 OFFCURVE",
"0 510 OFFCURVE",
"0 400 CURVE SMOOTH",
"0 363 OFFCURVE",
"11 330 OFFCURVE",
"28 300 CURVE",
"300 300 LINE",
"300 350 LINE SMOOTH",
"300 433 OFFCURVE",
"367 500 OFFCURVE",
"450 500 CURVE SMOOTH",
"533 500 OFFCURVE",
"600 433 OFFCURVE",
"600 350 CURVE SMOOTH",
"600 300 LINE",
"791 300 LINE",
"797 316 OFFCURVE",
"800 332 OFFCURVE",
"800 350 CURVE SMOOTH",
"800 415 OFFCURVE",
"758 479 OFFCURVE",
"700 500 CURVE",
"700 550 LINE SMOOTH",
"700 688 OFFCURVE",
"588 800 OFFCURVE",
"450 800 CURVE SMOOTH"
);
},
{
closed = 1;
nodes = (
"434 400 LINE",
"415 394 OFFCURVE",
"400 372 OFFCURVE",
"400 352 CURVE SMOOTH",
"400 350 LINE",
"400 200 LINE",
"250 200 LINE",
"450 0 LINE",
"650 200 LINE",
"500 200 LINE",
"500 350 LINE",
"500 351 LINE SMOOTH",
"500 379 OFFCURVE",
"478 401 OFFCURVE",
"450 401 CURVE SMOOTH",
"447 401 OFFCURVE",
"444 400 OFFCURVE",
"441 400 CURVE SMOOTH",
"437 400 LINE"
);
}
);
width = 800;
}
);
note = "3c";
unicode = E03C;
},
{
glyphname = uniE03D;
layers = (
{
hints = (
{
horizontal = 1;
place = "{0, 21}";
target = up;
type = BottomGhost;
},
{
place = "{400, 100}";
type = Stem;
}
);
layerId = "A0563635-EBCB-42F0-BA53-80B4033C9352";
paths = (
{
closed = 1;
nodes = (
"329 800 OFFCURVE",
"223 714 OFFCURVE",
"200 600 CURVE",
"90 600 OFFCURVE",
"0 510 OFFCURVE",
"0 400 CURVE SMOOTH",
"0 363 OFFCURVE",
"11 330 OFFCURVE",
"28 300 CURVE",
"250 300 LINE",
"450 500 LINE",
"650 300 LINE",
"791 300 LINE",
"797 316 OFFCURVE",
"800 332 OFFCURVE",
"800 350 CURVE SMOOTH",
"800 415 OFFCURVE",
"758 479 OFFCURVE",
"700 500 CURVE",
"700 550 LINE SMOOTH",
"700 688 OFFCURVE",
"588 800 OFFCURVE",
"450 800 CURVE SMOOTH"
);
},
{
closed = 1;
nodes = (
"450 350 LINE",
"200 100 LINE",
"400 100 LINE",
"400 50 LINE SMOOTH",
"400 22 OFFCURVE",
"422 0 OFFCURVE",
"450 0 CURVE SMOOTH",
"478 0 OFFCURVE",
"500 22 OFFCURVE",
"500 50 CURVE SMOOTH",
"500 100 LINE",
"700 100 LINE"
);
}
);
width = 800;
}
);
note = "3d";
unicode = E03D;
},
{
glyphname = uniE03E;
layers = (
{
hints = (
{
horizontal = 1;
place = "{100, 600}";
type = Stem;
}
);
layerId = "A0563635-EBCB-42F0-BA53-80B4033C9352";
paths = (
{
closed = 1;
nodes = (
"329 700 OFFCURVE",
"223 614 OFFCURVE",
"200 500 CURVE",
"90 500 OFFCURVE",
"0 410 OFFCURVE",
"0 300 CURVE SMOOTH",
"0 190 OFFCURVE",
"90 100 OFFCURVE",
"200 100 CURVE SMOOTH",
"650 100 LINE SMOOTH",
"733 100 OFFCURVE",
"800 167 OFFCURVE",
"800 250 CURVE SMOOTH",
"800 315 OFFCURVE",
"758 379 OFFCURVE",
"700 400 CURVE",
"700 450 LINE SMOOTH",
"700 588 OFFCURVE",
"588 700 OFFCURVE",
"450 700 CURVE SMOOTH"
);
}
);
width = 800;
}
);
note = "3e";
unicode = E03E;
},
{
glyphname = uniE03F;
layers = (
{
hints = (
{
horizontal = 1;
place = "{0, 600}";
type = Stem;
}
);
layerId = "A0563635-EBCB-42F0-BA53-80B4033C9352";
paths = (
{
closed = 1;
nodes = (
"112 800 OFFCURVE",
"0 688 OFFCURVE",
"0 550 CURVE SMOOTH",
"0 511 OFFCURVE",
"9 477 OFFCURVE",
"25 444 CURVE",
"55 466 OFFCURVE",
"89 481 OFFCURVE",
"125 491 CURVE",
"180 615 OFFCURVE",
"307 700 OFFCURVE",
"450 700 CURVE",
"404 760 OFFCURVE",
"332 800 OFFCURVE",
"250 800 CURVE SMOOTH"
);
},
{
closed = 1;
nodes = (
"329 600 OFFCURVE",
"223 514 OFFCURVE",
"200 400 CURVE",
"90 400 OFFCURVE",
"0 310 OFFCURVE",
"0 200 CURVE SMOOTH",
"0 90 OFFCURVE",
"90 0 OFFCURVE",
"200 0 CURVE SMOOTH",
"650 0 LINE SMOOTH",
"733 0 OFFCURVE",
"800 67 OFFCURVE",
"800 150 CURVE SMOOTH",
"800 215 OFFCURVE",
"758 279 OFFCURVE",
"700 300 CURVE",
"700 350 LINE SMOOTH",
"700 488 OFFCURVE",
"588 600 OFFCURVE",
"450 600 CURVE SMOOTH"
);
}
);
width = 800;
}
);
note = "3f";
unicode = E03F;
},
{
glyphname = uniE040;
layers = (
{
layerId = "A0563635-EBCB-42F0-BA53-80B4033C9352";
paths = (
{
closed = 1;
nodes = (
"500 700 LINE",
"200 100 LINE",
"300 100 LINE",
"600 700 LINE"
);
},
{
closed = 1;
nodes = (
"100 600 LINE",
"0 400 LINE",
"100 200 LINE",
"200 200 LINE",
"100 400 LINE",
"200 600 LINE"
);
},
{
closed = 1;
nodes = (
"600 600 LINE",
"700 400 LINE",
"600 200 LINE",
"700 200 LINE",
"800 400 LINE",
"700 600 LINE"
);
}
);
width = 800;
}
);
note = "40";
unicode = E040;
},
{
glyphname = uniE041;
layers = (
{
hints = (
{
horizontal = 1;
place = "{0, 250}";
type = Stem;
},
{
horizontal = 1;
place = "{550, 250}";
type = Stem;
},
{
place = "{0, 250}";
type = Stem;
}
);
layerId = "A0563635-EBCB-42F0-BA53-80B4033C9352";
paths = (
{
closed = 1;
nodes = (
"350 800 LINE",
"300 681 LINE",
"272 669 LINE",
"153 719 LINE",
"81 647 LINE",
"131 528 LINE",
"119 500 LINE",
"0 450 LINE",
"0 350 LINE",
"119 300 LINE",
"131 272 LINE",
"81 153 LINE",
"153 81 LINE",
"272 131 LINE",
"300 119 LINE",
"350 0 LINE",
"450 0 LINE",
"500 119 LINE",
"528 131 LINE",
"647 81 LINE",
"719 153 LINE",
"669 272 LINE",
"681 300 LINE",
"800 350 LINE",
"800 450 LINE",
"681 500 LINE",
"669 528 LINE",
"719 647 LINE",
"647 719 LINE",
"528 669 LINE",
"500 681 LINE",
"450 800 LINE"
);
},
{
closed = 1;
nodes = (
"483 550 OFFCURVE",
"550 483 OFFCURVE",
"550 400 CURVE SMOOTH",
"550 317 OFFCURVE",
"483 250 OFFCURVE",
"400 250 CURVE SMOOTH",
"317 250 OFFCURVE",
"250 317 OFFCURVE",
"250 400 CURVE SMOOTH",
"250 483 OFFCURVE",
"317 550 OFFCURVE",
"400 550 CURVE SMOOTH"
);
}
);
width = 800;
}
);
note = "41";
unicode = E041;
},
{
glyphname = uniE042;
layers = (
{
hints = (
{
horizontal = 1;
place = "{0, 100}";
type = Stem;
},
{
horizontal = 1;
place = "{600, 200}";
type = Stem;
}
);
layerId = "A0563635-EBCB-42F0-BA53-80B4033C9352";
paths = (
{
closed = 1;
nodes = (
"0 800 LINE",
"0 600 LINE",
"800 600 LINE",
"800 800 LINE"
);
},
{
closed = 1;
nodes = (
"200 500 LINE",
"400 300 LINE",
"600 500 LINE"
);
},
{
closed = 1;
nodes = (
"0 100 LINE",
"0 0 LINE",
"800 0 LINE",
"800 100 LINE"
);
}
);
width = 800;
}
);
note = "42";
unicode = E042;
},
{
glyphname = uniE043;
layers = (
{
hints = (
{
horizontal = 1;
place = "{0, 21}";
target = up;
type = BottomGhost;
},
{
place = "{0, 100}";
type = Stem;
},
{
place = "{600, 200}";
type = Stem;
}
);
layerId = "A0563635-EBCB-42F0-BA53-80B4033C9352";
paths = (
{
closed = 1;
nodes = (
"0 800 LINE",
"0 0 LINE",
"100 0 LINE",
"100 800 LINE"
);
},
{
closed = 1;
nodes = (
"600 800 LINE",
"600 0 LINE",
"800 0 LINE",
"800 800 LINE"
);
},
{
closed = 1;
nodes = (
"500 600 LINE",
"300 400 LINE",
"500 200 LINE"
);
}
);
width = 800;
}
);
note = "43";
unicode = E043;
},
{
glyphname = uniE044;
layers = (
{
hints = (
{
horizontal = 1;
place = "{0, 21}";
target = up;
type = BottomGhost;
},
{
place = "{0, 200}";
type = Stem;
},
{
place = "{700, 100}";
type = Stem;
}
);
layerId = "A0563635-EBCB-42F0-BA53-80B4033C9352";
paths = (
{
closed = 1;
nodes = (
"0 800 LINE",
"0 0 LINE",
"200 0 LINE",
"200 800 LINE"
);
},
{
closed = 1;
nodes = (
"700 800 LINE",
"700 0 LINE",
"800 0 LINE",
"800 800 LINE"
);
},
{
closed = 1;
nodes = (
"300 600 LINE",
"300 200 LINE",
"500 400 LINE"
);
}
);
width = 800;
}
);
note = "44";
unicode = E044;
},
{
glyphname = uniE045;
layers = (
{
hints = (
{
horizontal = 1;
place = "{0, 200}";
type = Stem;
},
{
horizontal = 1;
place = "{700, 100}";
type = Stem;
}
);
layerId = "A0563635-EBCB-42F0-BA53-80B4033C9352";
paths = (
{
closed = 1;
nodes = (
"0 800 LINE",
"0 700 LINE",
"800 700 LINE",
"800 800 LINE"
);
},
{
closed = 1;
nodes = (
"400 500 LINE",
"200 300 LINE",
"600 300 LINE"
);
},
{
closed = 1;
nodes = (
"0 200 LINE",
"0 0 LINE",
"800 0 LINE",
"800 200 LINE"
);
}
);
width = 800;
}
);
note = "45";
unicode = E045;
},
{
glyphname = uniE046;
layers = (
{
hints = (
{
horizontal = 1;
place = "{0, 100}";
type = Stem;
},
{
horizontal = 1;
place = "{200, 100}";
type = Stem;
},
{
horizontal = 1;
place = "{400, 100}";
type = Stem;
},
{
horizontal = 1;
place = "{600, 100}";
type = Stem;
},
{
place = "{0, 100}";
type = Stem;
},
{
place = "{200, 100}";
type = Stem;
},
{
place = "{400, 100}";
type = Stem;
},
{
place = "{600, 100}";
type = Stem;
}
);
layerId = "A0563635-EBCB-42F0-BA53-80B4033C9352";
paths = (
{
closed = 1;
nodes = (
"67 700 OFFCURVE",
"0 633 OFFCURVE",
"0 550 CURVE SMOOTH",
"0 467 OFFCURVE",
"67 400 OFFCURVE",
"150 400 CURVE SMOOTH",
"200 400 LINE",
"200 300 LINE",
"150 300 LINE SMOOTH",
"67 300 OFFCURVE",
"0 233 OFFCURVE",
"0 150 CURVE SMOOTH",
"0 67 OFFCURVE",
"67 0 OFFCURVE",
"150 0 CURVE SMOOTH",
"233 0 OFFCURVE",
"300 67 OFFCURVE",
"300 150 CURVE SMOOTH",
"300 200 LINE",
"400 200 LINE",
"400 150 LINE SMOOTH",
"400 67 OFFCURVE",
"467 0 OFFCURVE",
"550 0 CURVE SMOOTH",
"633 0 OFFCURVE",
"700 67 OFFCURVE",
"700 150 CURVE SMOOTH",
"700 233 OFFCURVE",
"633 300 OFFCURVE",
"550 300 CURVE SMOOTH",
"500 300 LINE",
"500 400 LINE",
"550 400 LINE SMOOTH",
"633 400 OFFCURVE",
"700 467 OFFCURVE",
"700 550 CURVE SMOOTH",
"700 633 OFFCURVE",
"633 700 OFFCURVE",
"550 700 CURVE SMOOTH",
"467 700 OFFCURVE",
"400 633 OFFCURVE",
"400 550 CURVE SMOOTH",
"400 500 LINE",
"300 500 LINE",
"300 550 LINE SMOOTH",
"300 633 OFFCURVE",
"233 700 OFFCURVE",
"150 700 CURVE SMOOTH"
);
},
{
closed = 1;
nodes = (
"178 600 OFFCURVE",
"200 578 OFFCURVE",
"200 550 CURVE SMOOTH",
"200 500 LINE",
"150 500 LINE SMOOTH",
"122 500 OFFCURVE",
"100 522 OFFCURVE",
"100 550 CURVE SMOOTH",
"100 578 OFFCURVE",
"122 600 OFFCURVE",
"150 600 CURVE SMOOTH"
);
},
{
closed = 1;
nodes = (
"578 600 OFFCURVE",
"600 578 OFFCURVE",
"600 550 CURVE SMOOTH",
"600 522 OFFCURVE",
"578 500 OFFCURVE",
"550 500 CURVE SMOOTH",
"500 500 LINE",
"500 550 LINE SMOOTH",
"500 578 OFFCURVE",
"522 600 OFFCURVE",
"550 600 CURVE SMOOTH"
);
},
{
closed = 1;
nodes = (
"300 400 LINE",
"400 400 LINE",
"400 300 LINE",
"300 300 LINE"
);
},
{
closed = 1;
nodes = (
"200 200 LINE",
"200 150 LINE SMOOTH",
"200 122 OFFCURVE",
"178 100 OFFCURVE",
"150 100 CURVE SMOOTH",
"122 100 OFFCURVE",
"100 122 OFFCURVE",
"100 150 CURVE SMOOTH",
"100 178 OFFCURVE",
"122 200 OFFCURVE",
"150 200 CURVE SMOOTH"
);
},
{
closed = 1;
nodes = (
"500 200 LINE",
"550 200 LINE SMOOTH",
"578 200 OFFCURVE",
"600 178 OFFCURVE",
"600 150 CURVE SMOOTH",
"600 122 OFFCURVE",
"578 100 OFFCURVE",
"550 100 CURVE SMOOTH",
"522 100 OFFCURVE",
"500 122 OFFCURVE",
"500 150 CURVE SMOOTH"
);
}
);
width = 800;
}
);
note = "46";
unicode = E046;
},
{
glyphname = uniE047;
layers = (
{
hints = (
{
horizontal = 1;
place = "{0, 21}";
target = up;
type = BottomGhost;
},
{
horizontal = 1;
place = "{200, 600}";
type = Stem;
},
{
place = "{0, 800}";
type = Stem;
}
);
layerId = "A0563635-EBCB-42F0-BA53-80B4033C9352";
paths = (
{
closed = 1;
nodes = (
"0 209 LINE SMOOTH",
"0 203 OFFCURVE",
"3 200 OFFCURVE",
"9 200 CURVE SMOOTH",
"600 200 LINE",
"800 0 LINE",
"800 790 LINE SMOOTH",
"800 796 OFFCURVE",
"797 800 OFFCURVE",
"791 800 CURVE SMOOTH",
"9 800 LINE SMOOTH",
"4 800 OFFCURVE",
"0 796 OFFCURVE",
"0 791 CURVE SMOOTH"
);
}
);
width = 800;
}
);
note = "47";
unicode = E047;
},
{
glyphname = uniE048;
layers = (
{
hints = (
{
horizontal = 1;
place = "{0, 100}";
type = Stem;
},
{
horizontal = 1;
place = "{700, 100}";
type = Stem;
},
{
place = "{0, 100}";
type = Stem;
}
);
layerId = "A0563635-EBCB-42F0-BA53-80B4033C9352";
paths = (
{
closed = 1;
nodes = (
"180 800 OFFCURVE",
"0 620 OFFCURVE",
"0 400 CURVE SMOOTH",
"0 180 OFFCURVE",
"180 0 OFFCURVE",
"400 0 CURVE SMOOTH",
"620 0 OFFCURVE",
"800 180 OFFCURVE",
"800 400 CURVE SMOOTH",
"800 620 OFFCURVE",
"620 800 OFFCURVE",
"400 800 CURVE SMOOTH"
);
},
{
closed = 1;
nodes = (
"566 700 OFFCURVE",
"700 566 OFFCURVE",
"700 400 CURVE SMOOTH",
"700 234 OFFCURVE",
"566 100 OFFCURVE",
"400 100 CURVE SMOOTH",
"234 100 OFFCURVE",
"100 234 OFFCURVE",
"100 400 CURVE SMOOTH",
"100 566 OFFCURVE",
"234 700 OFFCURVE",
"400 700 CURVE SMOOTH"
);
},
{
closed = 1;
nodes = (
"600 600 LINE",
"300 500 LINE",
"200 200 LINE",
"500 300 LINE"
);
},
{
closed = 1;
nodes = (
"428 450 OFFCURVE",
"450 428 OFFCURVE",
"450 400 CURVE SMOOTH",
"450 372 OFFCURVE",
"428 350 OFFCURVE",
"400 350 CURVE SMOOTH",
"372 350 OFFCURVE",
"350 372 OFFCURVE",
"350 400 CURVE SMOOTH",
"350 428 OFFCURVE",
"372 450 OFFCURVE",
"400 450 CURVE SMOOTH"
);
}
);
width = 800;
}
);
note = "48";
unicode = E048;
},
{
glyphname = uniE049;
layers = (
{
hints = (
{
horizontal = 1;
place = "{0, 100}";
type = Stem;
},
{
horizontal = 1;
place = "{700, 100}";
type = Stem;
},
{
place = "{0, 400}";
type = Stem;
}
);
layerId = "A0563635-EBCB-42F0-BA53-80B4033C9352";
paths = (
{
closed = 1;
nodes = (
"180 800 OFFCURVE",
"0 620 OFFCURVE",
"0 400 CURVE SMOOTH",
"0 180 OFFCURVE",
"180 0 OFFCURVE",
"400 0 CURVE SMOOTH",
"620 0 OFFCURVE",
"800 180 OFFCURVE",
"800 400 CURVE SMOOTH",
"800 620 OFFCURVE",
"620 800 OFFCURVE",
"400 800 CURVE SMOOTH"
);
},
{
closed = 1;
nodes = (
"400 700 LINE",
"566 700 OFFCURVE",
"700 566 OFFCURVE",
"700 400 CURVE SMOOTH",
"700 234 OFFCURVE",
"566 100 OFFCURVE",
"400 100 CURVE"
);
}
);
width = 800;
}
);
note = "49";
unicode = E049;
},
{
glyphname = uniE04A;
layers = (
{
hints = (
{
horizontal = 1;
place = "{0, 100}";
type = Stem;
},
{
horizontal = 1;
place = "{200, 100}";
type = Stem;
},
{
horizontal = 1;
place = "{500, 100}";
type = Stem;
},
{
horizontal = 1;
place = "{700, 100}";
type = Stem;
}
);
layerId = "A0563635-EBCB-42F0-BA53-80B4033C9352";
paths = (
{
closed = 1;
nodes = (
"0 800 LINE",
"0 700 LINE",
"800 700 LINE",
"800 800 LINE"
);
},
{
closed = 1;
nodes = (
"0 600 LINE",
"0 500 LINE",
"500 500 LINE",
"500 600 LINE"
);
},
{
closed = 1;
nodes = (
"0 300 LINE",
"0 200 LINE",
"800 200 LINE",
"800 300 LINE"
);
},
{
closed = 1;
nodes = (
"0 100 LINE",
"0 0 LINE",
"600 0 LINE",
"600 100 LINE"
);
},
{
closed = 1;
nodes = (
"722 100 OFFCURVE",
"700 78 OFFCURVE",
"700 50 CURVE SMOOTH",
"700 22 OFFCURVE",
"722 0 OFFCURVE",
"750 0 CURVE SMOOTH",
"778 0 OFFCURVE",
"800 22 OFFCURVE",
"800 50 CURVE SMOOTH",
"800 78 OFFCURVE",
"778 100 OFFCURVE",
"750 100 CURVE SMOOTH"
);
}
);
width = 800;
}
);
note = "4a";
unicode = E04A;
},
{
glyphname = uniE04B;
layers = (
{
hints = (
{
place = "{100, 100}";
type = Stem;
},
{
place = "{300, 200}";
type = Stem;
},
{
place = "{600, 100}";
type = Stem;
},
{
place = "{0, 100}";
type = Stem;
},
{
place = "{200, 100}";
type = Stem;
}
);
layerId = "A0563635-EBCB-42F0-BA53-80B4033C9352";
paths = (
{
closed = 1;
nodes = (
"25 700 LINE SMOOTH",
"11 700 OFFCURVE",
"0 689 OFFCURVE",
"0 675 CURVE SMOOTH",
"0 600 LINE",
"800 600 LINE",
"800 675 LINE SMOOTH",
"800 689 OFFCURVE",
"789 700 OFFCURVE",
"775 700 CURVE SMOOTH"
);
},
{
closed = 1;
nodes = (
"0 500 LINE",
"0 125 LINE SMOOTH",
"0 111 OFFCURVE",
"11 100 OFFCURVE",
"25 100 CURVE SMOOTH",
"775 100 LINE SMOOTH",
"789 100 OFFCURVE",
"800 111 OFFCURVE",
"800 125 CURVE SMOOTH",
"800 500 LINE"
);
},
{
closed = 1;
nodes = (
"100 300 LINE",
"200 300 LINE",
"200 200 LINE",
"100 200 LINE"
);
},
{
closed = 1;
nodes = (
"300 300 LINE",
"400 300 LINE",
"400 200 LINE",
"300 200 LINE"
);
}
);
width = 800;
}
);
note = "4b";
unicode = E04B;
},
{
glyphname = uniE04C;
layers = (
{
hints = (
{
horizontal = 1;
place = "{0, 21}";
target = up;
type = BottomGhost;
},
{
horizontal = 1;
place = "{100, 100}";
type = Stem;
},
{
horizontal = 1;
place = "{600, 100}";
type = Stem;
}
);
layerId = "A0563635-EBCB-42F0-BA53-80B4033C9352";
paths = (
{
closed = 1;
nodes = (
"100 800 LINE",
"100 700 LINE",
"0 700 LINE",
"0 600 LINE",
"100 600 LINE",
"100 100 LINE",
"600 100 LINE",
"600 0 LINE",
"700 0 LINE",
"700 100 LINE",
"800 100 LINE",
"800 200 LINE",
"700 200 LINE",
"700 650 LINE",
"800 750 LINE",
"750 800 LINE",
"650 700 LINE",
"200 700 LINE",
"200 800 LINE"
);
},
{
closed = 1;
nodes = (
"200 600 LINE",
"550 600 LINE",
"200 250 LINE"
);
},
{
closed = 1;
nodes = (
"600 550 LINE",
"600 200 LINE",
"250 200 LINE"
);
}
);
width = 800;
}
);
note = "4c";
unicode = E04C;
},
{
glyphname = uniE04D;
layers = (
{
hints = (
{
horizontal = 1;
place = "{0, 100}";
type = Stem;
},
{
horizontal = 1;
place = "{400, 100}";
type = Stem;
},
{
horizontal = 1;
place = "{700, 100}";
type = Stem;
},
{
horizontal = 1;
place = "{500, 100}";
type = Stem;
},
{
place = "{0, 100}";
type = Stem;
},
{
place = "{350, 100}";
type = Stem;
},
{
place = "{700, 100}";
type = Stem;
},
{
horizontal = 1;
place = "{200, 200}";
type = Stem;
},
{
place = "{300, 200}";
type = Stem;
},
{
place = "{500, 100}";
type = Stem;
}
);
layerId = "A0563635-EBCB-42F0-BA53-80B4033C9352";
paths = (
{
closed = 1;
nodes = (
"180 800 OFFCURVE",
"0 620 OFFCURVE",
"0 400 CURVE SMOOTH",
"0 180 OFFCURVE",
"180 0 OFFCURVE",
"400 0 CURVE SMOOTH",
"620 0 OFFCURVE",
"800 180 OFFCURVE",
"800 400 CURVE SMOOTH",
"800 620 OFFCURVE",
"620 800 OFFCURVE",
"400 800 CURVE SMOOTH"
);
},
{
closed = 1;
nodes = (
"566 700 OFFCURVE",
"700 566 OFFCURVE",
"700 400 CURVE SMOOTH",
"700 234 OFFCURVE",
"566 100 OFFCURVE",
"400 100 CURVE SMOOTH",
"234 100 OFFCURVE",
"100 234 OFFCURVE",
"100 400 CURVE SMOOTH",
"100 566 OFFCURVE",
"234 700 OFFCURVE",
"400 700 CURVE SMOOTH"
);
},
{
closed = 1;
nodes = (
"372 600 OFFCURVE",
"350 578 OFFCURVE",
"350 550 CURVE SMOOTH",
"350 522 OFFCURVE",
"372 500 OFFCURVE",
"400 500 CURVE SMOOTH",
"428 500 OFFCURVE",
"450 522 OFFCURVE",
"450 550 CURVE SMOOTH",
"450 578 OFFCURVE",
"428 600 OFFCURVE",
"400 600 CURVE SMOOTH"
);
},
{
closed = 1;
nodes = (
"200 440 OFFCURVE",
"207 424 OFFCURVE",
"216 416 CURVE",
"306 325 LINE",
"300 300 LINE",
"300 245 OFFCURVE",
"345 200 OFFCURVE",
"400 200 CURVE SMOOTH",
"455 200 OFFCURVE",
"500 245 OFFCURVE",
"500 300 CURVE SMOOTH",
"500 355 OFFCURVE",
"455 400 OFFCURVE",
"400 400 CURVE",
"375 394 LINE",
"284 484 LINE",
"276 493 OFFCURVE",
"260 500 OFFCURVE",
"248 500 CURVE SMOOTH",
"240 500 LINE",
"237 500 LINE",
"234 500 LINE",
"215 494 OFFCURVE",
"200 472 OFFCURVE",
"200 452 CURVE SMOOTH"
);
},
{
closed = 1;
nodes = (
"522 500 OFFCURVE",
"500 478 OFFCURVE",
"500 450 CURVE SMOOTH",
"500 422 OFFCURVE",
"522 400 OFFCURVE",
"550 400 CURVE SMOOTH",
"578 400 OFFCURVE",
"600 422 OFFCURVE",
"600 450 CURVE SMOOTH",
"600 478 OFFCURVE",
"578 500 OFFCURVE",
"550 500 CURVE SMOOTH"
);
}
);
width = 800;
}
);
note = "4d";
unicode = E04D;
},
{
glyphname = uniE04E;
layers = (
{
hints = (
{
horizontal = 1;
place = "{0, 100}";
type = Stem;
},
{
place = "{300, 200}";
type = Stem;
}
);
layerId = "A0563635-EBCB-42F0-BA53-80B4033C9352";
paths = (
{
closed = 1;
nodes = (
"300 800 LINE",
"300 500 LINE",
"100 500 LINE",
"400 200 LINE",
"700 500 LINE",
"500 500 LINE",
"500 800 LINE"
);
},
{
closed = 1;
nodes = (
"0 100 LINE",
"0 0 LINE",
"800 0 LINE",
"800 100 LINE"
);
}
);
width = 800;
}
);
note = "4e";
unicode = E04E;
},
{
glyphname = uniE04F;
layers = (
{
hints = (
{
horizontal = 1;
place = "{0, 21}";
target = up;
type = BottomGhost;
},
{
horizontal = 1;
place = "{700, 100}";
type = Stem;
},
{
place = "{300, 200}";
type = Stem;
}
);
layerId = "A0563635-EBCB-42F0-BA53-80B4033C9352";
paths = (
{
closed = 1;
nodes = (
"0 800 LINE",
"0 700 LINE",
"800 700 LINE",
"800 800 LINE"
);
},
{
closed = 1;
nodes = (
"400 600 LINE",
"100 300 LINE",
"300 300 LINE",
"300 0 LINE",
"500 0 LINE",
"500 300 LINE",
"700 300 LINE"
);
}
);
width = 800;
}
);
note = "4f";
unicode = E04F;
},
{
glyphname = uniE050;
layers = (
{
layerId = "A0563635-EBCB-42F0-BA53-80B4033C9352";
paths = (
{
closed = 1;
nodes = (
"200 700 LINE",
"0 400 LINE",
"200 100 LINE",
"800 100 LINE",
"800 700 LINE"
);
},
{
closed = 1;
nodes = (
"350 622 LINE",
"500 472 LINE",
"650 622 LINE",
"722 550 LINE",
"572 400 LINE",
"722 250 LINE",
"650 178 LINE",
"500 328 LINE",
"350 178 LINE",
"278 250 LINE",
"428 400 LINE",
"278 550 LINE"
);
}
);
width = 800;
}
);
note = "50";
unicode = E050;
},
{
glyphname = uniE051;
layers = (
{
hints = (
{
horizontal = 1;
place = "{600, 100}";
type = Stem;
},
{
place = "{0, 100}";
type = Stem;
},
{
place = "{200, 400}";
type = Stem;
},
{
place = "{700, 100}";
type = Stem;
}
);
layerId = "A0563635-EBCB-42F0-BA53-80B4033C9352";
paths = (
{
closed = 1;
nodes = (
"180 700 OFFCURVE",
"0 520 OFFCURVE",
"0 300 CURVE",
"100 300 LINE",
"100 466 OFFCURVE",
"234 600 OFFCURVE",
"400 600 CURVE SMOOTH",
"566 600 OFFCURVE",
"700 466 OFFCURVE",
"700 300 CURVE",
"800 300 LINE",
"800 520 OFFCURVE",
"620 700 OFFCURVE",
"400 700 CURVE SMOOTH"
);
},
{
closed = 1;
nodes = (
"341 491 LINE",
"260 466 OFFCURVE",
"200 390 OFFCURVE",
"200 300 CURVE SMOOTH",
"200 190 OFFCURVE",
"290 100 OFFCURVE",
"400 100 CURVE SMOOTH",
"510 100 OFFCURVE",
"600 190 OFFCURVE",
"600 300 CURVE SMOOTH",
"600 390 OFFCURVE",
"540 466 OFFCURVE",
"459 491 CURVE",
"400 403 LINE"
);
}
);
width = 800;
}
);
note = "51";
unicode = E051;
},
{
glyphname = uniE052;
layers = (
{
hints = (
{
horizontal = 1;
place = "{0, 100}";
type = Stem;
},
{
horizontal = 1;
place = "{400, 100}";
type = Stem;
},
{
place = "{0, 100}";
type = Stem;
},
{
place = "{200, 100}";
type = Stem;
},
{
horizontal = 1;
place = "{200, 200}";
type = Stem;
},
{
horizontal = 1;
place = "{200, 100}";
type = Stem;
}
);
layerId = "A0563635-EBCB-42F0-BA53-80B4033C9352";
paths = (
{
closed = 1;
nodes = (
"0 800 LINE",
"0 0 LINE",
"700 0 LINE",
"700 400 LINE",
"300 400 LINE",
"300 800 LINE"
);
},
{
closed = 1;
nodes = (
"400 800 LINE",
"400 500 LINE",
"700 500 LINE"
);
},
{
closed = 1;
nodes = (
"100 600 LINE",
"200 600 LINE",
"200 500 LINE",
"100 500 LINE"
);
},
{
closed = 1;
nodes = (
"100 400 LINE",
"200 400 LINE",
"200 300 LINE",
"100 300 LINE"
);
},
{
closed = 1;
nodes = (
"100 200 LINE",
"500 200 LINE",
"500 100 LINE",
"100 100 LINE"
);
}
);
width = 800;
}
);
note = "52";
unicode = E052;
},
{
glyphname = uniE053;
layers = (
{
hints = (
{
horizontal = 1;
place = "{0, 100}";
type = Stem;
},
{
horizontal = 1;
place = "{500, 100}";
type = Stem;
},
{
place = "{200, 100}";
type = Stem;
},
{
place = "{400, 100}";
type = Stem;
}
);
layerId = "A0563635-EBCB-42F0-BA53-80B4033C9352";
paths = (
{
closed = 1;
nodes = (
"200 700 LINE",
"200 600 LINE",
"125 600 LINE SMOOTH",
"57 600 OFFCURVE",
"0 543 OFFCURVE",
"0 475 CURVE SMOOTH",
"0 425 LINE SMOOTH",
"0 357 OFFCURVE",
"43 300 OFFCURVE",
"109 284 CURVE SMOOTH",
"366 219 LINE SMOOTH",
"380 215 OFFCURVE",
"400 190 OFFCURVE",
"400 175 CURVE SMOOTH",
"400 125 LINE SMOOTH",
"400 111 OFFCURVE",
"389 100 OFFCURVE",
"375 100 CURVE SMOOTH",
"125 100 LINE SMOOTH",
"113 100 OFFCURVE",
"104 103 OFFCURVE",
"100 106 CURVE",
"100 200 LINE",
"0 200 LINE",
"0 100 LINE SMOOTH",
"0 66 OFFCURVE",
"21 38 OFFCURVE",
"44 22 CURVE SMOOTH",
"67 6 OFFCURVE",
"95 0 OFFCURVE",
"125 0 CURVE SMOOTH",
"200 0 LINE",
"200 -100 LINE",
"300 -100 LINE",
"300 0 LINE",
"375 0 LINE SMOOTH",
"443 0 OFFCURVE",
"500 57 OFFCURVE",
"500 125 CURVE SMOOTH",
"500 175 LINE SMOOTH",
"500 243 OFFCURVE",
"457 300 OFFCURVE",
"391 316 CURVE SMOOTH",
"134 381 LINE SMOOTH",
"120 385 OFFCURVE",
"100 410 OFFCURVE",
"100 425 CURVE SMOOTH",
"100 475 LINE SMOOTH",
"100 489 OFFCURVE",
"111 500 OFFCURVE",
"125 500 CURVE SMOOTH",
"375 500 LINE SMOOTH",
"387 500 OFFCURVE",
"396 497 OFFCURVE",
"400 494 CURVE",
"400 400 LINE",
"500 400 LINE",
"500 500 LINE SMOOTH",
"500 534 OFFCURVE",
"479 562 OFFCURVE",
"456 578 CURVE SMOOTH",
"433 594 OFFCURVE",
"405 600 OFFCURVE",
"375 600 CURVE SMOOTH",
"300 600 LINE",
"300 700 LINE"
);
}
);
width = 600;
}
);
note = "53";
unicode = E053;
},
{
glyphname = uniE054;
layers = (
{
hints = (
{
place = "{0, 300}";
type = Stem;
},
{
place = "{500, 300}";
type = Stem;
}
);
layerId = "A0563635-EBCB-42F0-BA53-80B4033C9352";
paths = (
{
closed = 1;
nodes = (
"0 700 LINE",
"0 100 LINE",
"300 400 LINE",
"300 700 LINE"
);
},
{
closed = 1;
nodes = (
"500 700 LINE",
"500 100 LINE",
"800 400 LINE",
"800 700 LINE"
);
}
);
width = 800;
}
);
note = "54";
unicode = E054;
},
{
glyphname = uniE055;
layers = (
{
hints = (
{
place = "{0, 300}";
type = Stem;
},
{
place = "{500, 300}";
type = Stem;
}
);
layerId = "A0563635-EBCB-42F0-BA53-80B4033C9352";
paths = (
{
closed = 1;
nodes = (
"300 700 LINE",
"0 400 LINE",
"0 100 LINE",
"300 100 LINE"
);
},
{
closed = 1;
nodes = (
"800 700 LINE",
"500 400 LINE",
"500 100 LINE",
"800 100 LINE"
);
}
);
width = 800;
}
);
note = "55";
unicode = E055;
},
{
glyphname = uniE056;
layers = (
{
hints = (
{
horizontal = 1;
place = "{100, 300}";
type = Stem;
},
{
horizontal = 1;
place = "{600, 100}";
type = Stem;
},
{
place = "{0, 300}";
type = Stem;
},
{
place = "{0, 100}";
type = Stem;
},
{
place = "{500, 300}";
type = Stem;
},
{
place = "{500, 100}";
type = Stem;
}
);
layerId = "A0563635-EBCB-42F0-BA53-80B4033C9352";
paths = (
{
closed = 1;
nodes = (
"300 700 LINE",
"135 700 OFFCURVE",
"0 565 OFFCURVE",
"0 400 CURVE SMOOTH",
"0 100 LINE",
"300 100 LINE",
"300 400 LINE",
"100 400 LINE",
"100 511 OFFCURVE",
"189 600 OFFCURVE",
"300 600 CURVE"
);
},
{
closed = 1;
nodes = (
"800 700 LINE",
"635 700 OFFCURVE",
"500 565 OFFCURVE",
"500 400 CURVE SMOOTH",
"500 100 LINE",
"800 100 LINE",
"800 400 LINE",
"600 400 LINE",
"600 511 OFFCURVE",
"689 600 OFFCURVE",
"800 600 CURVE"
);
}
);
width = 800;
}
);
note = "56";
unicode = E056;
},
{
glyphname = uniE057;
layers = (
{
hints = (
{
horizontal = 1;
place = "{100, 100}";
type = Stem;
},
{
horizontal = 1;
place = "{400, 300}";
type = Stem;
},
{
place = "{0, 300}";
type = Stem;
},
{
place = "{200, 100}";
type = Stem;
},
{
place = "{500, 300}";
type = Stem;
},
{
place = "{700, 100}";
type = Stem;
}
);
layerId = "A0563635-EBCB-42F0-BA53-80B4033C9352";
paths = (
{
closed = 1;
nodes = (
"0 700 LINE",
"0 400 LINE",
"200 400 LINE",
"200 289 OFFCURVE",
"111 200 OFFCURVE",
"0 200 CURVE",
"0 100 LINE",
"165 100 OFFCURVE",
"300 235 OFFCURVE",
"300 400 CURVE SMOOTH",
"300 700 LINE"
);
},
{
closed = 1;
nodes = (
"500 700 LINE",
"500 400 LINE",
"700 400 LINE",
"700 289 OFFCURVE",
"611 200 OFFCURVE",
"500 200 CURVE",
"500 100 LINE",
"665 100 OFFCURVE",
"800 235 OFFCURVE",
"800 400 CURVE SMOOTH",
"800 700 LINE"
);
}
);
width = 800;
}
);
note = "57";
unicode = E057;
},
{
glyphname = uniE058;
layers = (
{
hints = (
{
horizontal = 1;
place = "{-22, 100}";
type = Stem;
},
{
place = "{0, 100}";
type = Stem;
},
{
place = "{350, 250}";
type = Stem;
}
);
layerId = "A0563635-EBCB-42F0-BA53-80B4033C9352";
paths = (
{
closed = 1;
nodes = (
"300 800 LINE",
"266 766 LINE SMOOTH",
"255 755 OFFCURVE",
"0 496 OFFCURVE",
"0 278 CURVE SMOOTH",
"0 113 OFFCURVE",
"135 -22 OFFCURVE",
"300 -22 CURVE SMOOTH",
"465 -22 OFFCURVE",
"600 113 OFFCURVE",
"600 278 CURVE SMOOTH",
"600 496 OFFCURVE",
"345 755 OFFCURVE",
"334 766 CURVE SMOOTH"
);
},
{
closed = 1;
nodes = (
"178 328 OFFCURVE",
"200 306 OFFCURVE",
"200 278 CURVE SMOOTH",
"200 223 OFFCURVE",
"245 178 OFFCURVE",
"300 178 CURVE SMOOTH",
"328 178 OFFCURVE",
"350 156 OFFCURVE",
"350 128 CURVE SMOOTH",
"350 100 OFFCURVE",
"328 78 OFFCURVE",
"300 78 CURVE SMOOTH",
"190 78 OFFCURVE",
"100 168 OFFCURVE",
"100 278 CURVE SMOOTH",
"100 306 OFFCURVE",
"122 328 OFFCURVE",
"150 328 CURVE SMOOTH"
);
}
);
width = 600;
}
);
note = "58";
unicode = E058;
},
{
glyphname = uniE059;
layers = (
{
hints = (
{
horizontal = 1;
place = "{0, 200}";
type = Stem;
}
);
layerId = "A0563635-EBCB-42F0-BA53-80B4033C9352";
paths = (
{
closed = 1;
nodes = (
"400 800 LINE",
"0 300 LINE",
"800 300 LINE"
);
},
{
closed = 1;
nodes = (
"0 200 LINE",
"0 0 LINE",
"800 0 LINE",
"800 200 LINE"
);
}
);
width = 800;
}
);
note = "59";
unicode = E059;
},
{
glyphname = uniE05A;
layers = (
{
hints = (
{
horizontal = 1;
place = "{0, 21}";
target = up;
type = BottomGhost;
}
);
layerId = "A0563635-EBCB-42F0-BA53-80B4033C9352";
paths = (
{
closed = 1;
nodes = (
"300 800 LINE",
"0 500 LINE",
"600 500 LINE"
);
},
{
closed = 1;
nodes = (
"0 300 LINE",
"300 0 LINE",
"600 300 LINE"
);
}
);
width = 600;
}
);
note = "5a";
unicode = E05A;
},
{
glyphname = uniE05B;
layers = (
{
hints = (
{
horizontal = 1;
place = "{300, 200}";
type = Stem;
},
{
place = "{0, 200}";
type = Stem;
},
{
place = "{300, 200}";
type = Stem;
},
{
place = "{600, 200}";
type = Stem;
}
);
layerId = "A0563635-EBCB-42F0-BA53-80B4033C9352";
paths = (
{
closed = 1;
nodes = (
"0 500 LINE",
"0 300 LINE",
"200 300 LINE",
"200 500 LINE"
);
},
{
closed = 1;
nodes = (
"300 500 LINE",
"300 300 LINE",
"500 300 LINE",
"500 500 LINE"
);
},
{
closed = 1;
nodes = (
"600 500 LINE",
"600 300 LINE",
"800 300 LINE",
"800 500 LINE"
);
}
);
width = 800;
}
);
note = "5b";
unicode = E05B;
},
{
glyphname = uniE05C;
layers = (
{
layerId = "A0563635-EBCB-42F0-BA53-80B4033C9352";
paths = (
{
closed = 1;
nodes = (
"0 700 LINE",
"0 600 LINE",
"400 400 LINE",
"800 600 LINE",
"800 700 LINE"
);
},
{
closed = 1;
nodes = (
"0 500 LINE",
"0 100 LINE",
"800 100 LINE",
"800 500 LINE",
"400 300 LINE"
);
}
);
width = 800;
}
);
note = "5c";
unicode = E05C;
},
{
glyphname = uniE05D;
layers = (
{
hints = (
{
horizontal = 1;
place = "{0, 21}";
target = up;
type = BottomGhost;
},
{
place = "{0, 100}";
type = Stem;
},
{
place = "{700, 100}";
type = Stem;
}
);
layerId = "A0563635-EBCB-42F0-BA53-80B4033C9352";
paths = (
{
closed = 1;
nodes = (
"400 800 LINE",
"0 600 LINE",
"0 0 LINE",
"800 0 LINE",
"800 600 LINE"
);
},
{
closed = 1;
nodes = (
"400 688 LINE",
"700 538 LINE",
"700 350 LINE",
"400 200 LINE",
"100 350 LINE",
"100 538 LINE"
);
},
{
closed = 1;
nodes = (
"200 500 LINE",
"200 400 LINE",
"400 300 LINE",
"600 400 LINE",
"600 500 LINE"
);
}
);
width = 800;
}
);
note = "5d";
unicode = E05D;
},
{
glyphname = uniE05E;
layers = (
{
hints = (
{
horizontal = 1;
place = "{-100, 100}";
type = Stem;
},
{
horizontal = 1;
place = "{100, 100}";
type = Stem;
},
{
horizontal = 1;
place = "{300, 100}";
type = Stem;
},
{
horizontal = 1;
place = "{600, 100}";
type = Stem;
},
{
place = "{200, 100}";
type = Stem;
}
);
layerId = "A0563635-EBCB-42F0-BA53-80B4033C9352";
paths = (
{
closed = 1;
nodes = (
"414 700 OFFCURVE",
"261 572 OFFCURVE",
"216 400 CURVE",
"25 400 LINE",
"0 300 LINE",
"200 300 LINE",
"200 266 OFFCURVE",
"208 232 OFFCURVE",
"216 200 CURVE",
"19 200 LINE",
"0 100 LINE",
"256 100 LINE",
"326 -18 OFFCURVE",
"453 -100 OFFCURVE",
"600 -100 CURVE SMOOTH",
"673 -100 OFFCURVE",
"741 -79 OFFCURVE",
"800 -44 CURVE",
"800 78 LINE",
"747 30 OFFCURVE",
"678 0 OFFCURVE",
"600 0 CURVE SMOOTH",
"511 0 OFFCURVE",
"433 39 OFFCURVE",
"378 100 CURVE",
"600 100 LINE",
"616 200 LINE",
"319 200 LINE",
"308 232 OFFCURVE",
"300 264 OFFCURVE",
"300 300 CURVE",
"634 300 LINE",
"650 400 LINE",
"319 400 LINE",
"360 516 OFFCURVE",
"469 600 OFFCURVE",
"600 600 CURVE SMOOTH",
"666 600 OFFCURVE",
"726 579 OFFCURVE",
"775 544 CURVE",
"791 650 LINE",
"734 681 OFFCURVE",
"669 700 OFFCURVE",
"600 700 CURVE SMOOTH"
);
}
);
width = 800;
}
);
note = "5e";
unicode = E05E;
},
{
glyphname = uniE05F;
layers = (
{
hints = (
{
horizontal = 1;
place = "{0, 100}";
type = Stem;
},
{
horizontal = 1;
place = "{200, 100}";
type = Stem;
},
{
horizontal = 1;
place = "{400, 100}";
type = Stem;
},
{
horizontal = 1;
place = "{600, 100}";
type = Stem;
},
{
place = "{0, 100}";
type = Stem;
},
{
place = "{200, 100}";
type = Stem;
},
{
place = "{400, 100}";
type = Stem;
}
);
layerId = "A0563635-EBCB-42F0-BA53-80B4033C9352";
paths = (
{
closed = 1;
nodes = (
"0 700 LINE",
"0 600 LINE",
"700 600 LINE",
"700 700 LINE"
);
},
{
closed = 1;
nodes = (
"0 500 LINE",
"0 400 LINE",
"500 400 LINE",
"500 500 LINE"
);
},
{
closed = 1;
nodes = (
"0 300 LINE",
"0 200 LINE",
"800 200 LINE",
"800 300 LINE"
);
},
{
closed = 1;
nodes = (
"0 100 LINE",
"0 0 LINE",
"100 0 LINE",
"100 100 LINE"
);
},
{
closed = 1;
nodes = (
"200 100 LINE",
"200 0 LINE",
"300 0 LINE",
"300 100 LINE"
);
},
{
closed = 1;
nodes = (
"400 100 LINE",
"400 0 LINE",
"500 0 LINE",
"500 100 LINE"
);
}
);
width = 800;
}
);
note = "5f";
unicode = E05F;
},
{
glyphname = uniE060;
layers = (
{
hints = (
{
horizontal = 1;
place = "{0, 200}";
type = Stem;
},
{
horizontal = 1;
place = "{700, 100}";
type = Stem;
}
);
layerId = "A0563635-EBCB-42F0-BA53-80B4033C9352";
paths = (
{
closed = 1;
nodes = (
"0 800 LINE",
"0 700 LINE",
"800 700 LINE",
"800 800 LINE"
);
},
{
closed = 1;
nodes = (
"200 600 LINE",
"400 400 LINE",
"600 600 LINE"
);
},
{
closed = 1;
nodes = (
"0 200 LINE",
"0 0 LINE",
"800 0 LINE",
"800 200 LINE"
);
}
);
width = 800;
}
);
note = "60";
unicode = E060;
},
{
glyphname = uniE061;
layers = (
{
hints = (
{
horizontal = 1;
place = "{0, 21}";
target = up;
type = BottomGhost;
},
{
place = "{0, 100}";
type = Stem;
},
{
place = "{600, 200}";
type = Stem;
}
);
layerId = "A0563635-EBCB-42F0-BA53-80B4033C9352";
paths = (
{
closed = 1;
nodes = (
"0 800 LINE",
"0 0 LINE",
"100 0 LINE",
"100 800 LINE"
);
},
{
closed = 1;
nodes = (
"600 800 LINE",
"600 0 LINE",
"800 0 LINE",
"800 800 LINE"
);
},
{
closed = 1;
nodes = (
"200 600 LINE",
"200 200 LINE",
"400 400 LINE"
);
}
);
width = 800;
}
);
note = "61";
unicode = E061;
},
{
glyphname = uniE062;
layers = (
{
hints = (
{
horizontal = 1;
place = "{0, 21}";
target = up;
type = BottomGhost;
},
{
place = "{0, 200}";
type = Stem;
},
{
place = "{700, 100}";
type = Stem;
}
);
layerId = "A0563635-EBCB-42F0-BA53-80B4033C9352";
paths = (
{
closed = 1;
nodes = (
"0 800 LINE",
"0 0 LINE",
"200 0 LINE",
"200 800 LINE"
);
},
{
closed = 1;
nodes = (
"700 800 LINE",
"700 0 LINE",
"800 0 LINE",
"800 800 LINE"
);
},
{
closed = 1;
nodes = (
"600 600 LINE",
"400 400 LINE",
"600 200 LINE"
);
}
);
width = 800;
}
);
note = "62";
unicode = E062;
},
{
glyphname = uniE063;
layers = (
{
hints = (
{
horizontal = 1;
place = "{0, 100}";
type = Stem;
},
{
horizontal = 1;
place = "{600, 200}";
type = Stem;
}
);
layerId = "A0563635-EBCB-42F0-BA53-80B4033C9352";
paths = (
{
closed = 1;
nodes = (
"0 800 LINE",
"0 600 LINE",
"800 600 LINE",
"800 800 LINE"
);
},
{
closed = 1;
nodes = (
"400 400 LINE",
"200 200 LINE",
"600 200 LINE"
);
},
{
closed = 1;
nodes = (
"0 100 LINE",
"0 0 LINE",
"800 0 LINE",
"800 100 LINE"
);
}
);
width = 800;
}
);
note = "63";
unicode = E063;
},
{
glyphname = uniE064;
layers = (
{
hints = (
{
horizontal = 1;
place = "{0, 100}";
type = Stem;
},
{
horizontal = 1;
place = "{700, 100}";
type = Stem;
},
{
place = "{0, 100}";
type = Stem;
}
);
layerId = "A0563635-EBCB-42F0-BA53-80B4033C9352";
paths = (
{
closed = 1;
nodes = (
"0 800 LINE",
"0 0 LINE",
"800 0 LINE",
"800 200 LINE",
"700 200 LINE",
"700 100 LINE",
"100 100 LINE",
"100 700 LINE",
"200 700 LINE",
"200 800 LINE"
);
},
{
closed = 1;
nodes = (
"400 800 LINE",
"550 650 LINE",
"300 400 LINE",
"400 300 LINE",
"650 550 LINE",
"800 400 LINE",
"800 800 LINE"
);
}
);
width = 800;
}
);
note = "64";
unicode = E064;
},
{
glyphname = uniE065;
layers = (
{
hints = (
{
horizontal = 1;
place = "{100, 100}";
type = Stem;
},
{
horizontal = 1;
place = "{300, 100}";
type = Stem;
},
{
horizontal = 1;
place = "{600, 100}";
type = Stem;
}
);
layerId = "A0563635-EBCB-42F0-BA53-80B4033C9352";
paths = (
{
closed = 1;
nodes = (
"150 700 OFFCURVE",
"0 400 OFFCURVE",
"0 400 CURVE SMOOTH",
"0 400 OFFCURVE",
"150 100 OFFCURVE",
"403 100 CURVE SMOOTH",
"650 100 OFFCURVE",
"800 400 OFFCURVE",
"800 400 CURVE SMOOTH",
"800 400 OFFCURVE",
"650 700 OFFCURVE",
"403 700 CURVE SMOOTH"
);
},
{
closed = 1;
nodes = (
"510 600 OFFCURVE",
"600 510 OFFCURVE",
"600 400 CURVE SMOOTH",
"600 290 OFFCURVE",
"510 200 OFFCURVE",
"400 200 CURVE SMOOTH",
"290 200 OFFCURVE",
"200 290 OFFCURVE",
"200 400 CURVE SMOOTH",
"200 510 OFFCURVE",
"290 600 OFFCURVE",
"400 600 CURVE SMOOTH"
);
},
{
closed = 1;
nodes = (
"345 500 OFFCURVE",
"300 455 OFFCURVE",
"300 400 CURVE SMOOTH",
"300 345 OFFCURVE",
"345 300 OFFCURVE",
"400 300 CURVE SMOOTH",
"455 300 OFFCURVE",
"500 345 OFFCURVE",
"500 400 CURVE SMOOTH",
"500 410 OFFCURVE",
"497 419 OFFCURVE",
"494 428 CURVE",
"486 412 OFFCURVE",
"470 400 OFFCURVE",
"450 400 CURVE SMOOTH",
"422 400 OFFCURVE",
"400 422 OFFCURVE",
"400 450 CURVE SMOOTH",
"400 470 OFFCURVE",
"412 486 OFFCURVE",
"428 494 CURVE",
"419 497 OFFCURVE",
"410 500 OFFCURVE",
"400 500 CURVE SMOOTH"
);
}
);
width = 800;
}
);
note = "65";
unicode = E065;
},
{
glyphname = uniE066;
layers = (
{
layerId = "A0563635-EBCB-42F0-BA53-80B4033C9352";
paths = (
{
closed = 1;
nodes = (
"331 700 LINE",
"312 694 OFFCURVE",
"296 672 OFFCURVE",
"296 652 CURVE SMOOTH",
"296 640 OFFCURVE",
"303 624 OFFCURVE",
"312 616 CURVE",
"375 553 LINE",
"0 172 LINE",
"0 -100 LINE",
"269 -100 LINE",
"650 281 LINE",
"712 216 LINE",
"720 205 OFFCURVE",
"739 196 OFFCURVE",
"752 196 CURVE SMOOTH",
"780 196 OFFCURVE",
"802 218 OFFCURVE",
"802 246 CURVE SMOOTH",
"802 259 OFFCURVE",
"794 276 OFFCURVE",
"784 284 CURVE",
"691 378 LINE",
"756 444 LINE SMOOTH",
"814 502 OFFCURVE",
"814 598 OFFCURVE",
"756 656 CURVE SMOOTH",
"699 713 OFFCURVE",
"601 713 OFFCURVE",
"544 656 CURVE SMOOTH",
"478 591 LINE",
"384 684 LINE",
"376 693 OFFCURVE",
"359 701 OFFCURVE",
"347 701 CURVE SMOOTH",
"344 701 OFFCURVE",
"340 701 OFFCURVE",
"337 700 CURVE",
"334 700 LINE"
);
},
{
closed = 1;
nodes = (
"447 481 LINE",
"578 350 LINE",
"262 34 LINE",
"134 166 LINE"
);
}
);
width = 900;
}
);
note = "66";
unicode = E066;
},
{
glyphname = uniE067;
layers = (
{
hints = (
{
horizontal = 1;
place = "{0, 400}";
type = Stem;
},
{
place = "{0, 300}";
type = Stem;
}
);
layerId = "A0563635-EBCB-42F0-BA53-80B4033C9352";
paths = (
{
closed = 1;
nodes = (
"0 800 LINE",
"0 0 LINE",
"700 0 LINE",
"700 400 LINE",
"300 400 LINE",
"300 800 LINE"
);
},
{
closed = 1;
nodes = (
"400 800 LINE",
"400 500 LINE",
"700 500 LINE"
);
}
);
width = 800;
}
);
note = "67";
unicode = E067;
},
{
glyphname = uniE068;
layers = (
{
hints = (
{
horizontal = 1;
place = "{0, 21}";
target = up;
type = BottomGhost;
},
{
place = "{0, 400}";
type = Stem;
},
{
place = "{300, 400}";
type = Stem;
}
);
layerId = "A0563635-EBCB-42F0-BA53-80B4033C9352";
paths = (
{
closed = 1;
nodes = (
"300 600 OFFCURVE",
"0 500 OFFCURVE",
"0 300 CURVE SMOOTH",
"0 100 OFFCURVE",
"200 0 OFFCURVE",
"200 0 CURVE",
"102 198 OFFCURVE",
"400 300 OFFCURVE",
"400 500 CURVE SMOOTH",
"400 700 OFFCURVE",
"200 800 OFFCURVE",
"200 800 CURVE"
);
},
{
closed = 1;
nodes = (
"600 300 OFFCURVE",
"300 200 OFFCURVE",
"300 0 CURVE",
"600 0 LINE SMOOTH",
"640 0 OFFCURVE",
"700 50 OFFCURVE",
"700 200 CURVE SMOOTH",
"700 400 OFFCURVE",
"500 500 OFFCURVE",
"500 500 CURVE"
);
}
);
width = 800;
}
);
note = "68";
unicode = E068;
},
{
glyphname = uniE069;
layers = (
{
hints = (
{
horizontal = 1;
place = "{0, 21}";
target = up;
type = BottomGhost;
},
{
place = "{0, 100}";
type = Stem;
}
);
layerId = "A0563635-EBCB-42F0-BA53-80B4033C9352";
paths = (
{
closed = 1;
nodes = (
"0 800 LINE",
"0 0 LINE",
"100 0 LINE",
"100 800 LINE"
);
},
{
closed = 1;
nodes = (
"200 800 LINE",
"200 400 LINE",
"400 400 LINE",
"400 300 LINE",
"800 300 LINE",
"600 497 LINE",
"800 700 LINE",
"500 700 LINE",
"500 800 LINE"
);
}
);
width = 800;
}
);
note = "69";
unicode = E069;
},
{
glyphname = uniE06A;
layers = (
{
hints = (
{
horizontal = 1;
place = "{0, 21}";
target = up;
type = BottomGhost;
}
);
layerId = "A0563635-EBCB-42F0-BA53-80B4033C9352";
paths = (
{
closed = 1;
nodes = (
"150 800 LINE",
"0 500 LINE",
"200 500 LINE",
"134 300 LINE",
"0 300 LINE",
"100 0 LINE",
"400 300 LINE",
"250 300 LINE",
"400 600 LINE",
"200 600 LINE",
"300 800 LINE"
);
}
);
width = 400;
}
);
note = "6a";
unicode = E06A;
},
{
glyphname = uniE06B;
layers = (
{
hints = (
{
horizontal = 1;
place = "{0, 500}";
type = Stem;
},
{
horizontal = 1;
place = "{600, 200}";
type = Stem;
},
{
horizontal = 1;
place = "{600, 100}";
type = Stem;
}
);
layerId = "A0563635-EBCB-42F0-BA53-80B4033C9352";
paths = (
{
closed = 1;
nodes = (
"0 800 LINE",
"0 600 LINE",
"800 600 LINE",
"800 700 LINE",
"300 700 LINE",
"300 800 LINE"
);
},
{
closed = 1;
nodes = (
"0 500 LINE",
"0 50 LINE SMOOTH",
"0 22 OFFCURVE",
"22 0 OFFCURVE",
"50 0 CURVE SMOOTH",
"750 0 LINE SMOOTH",
"778 0 OFFCURVE",
"800 22 OFFCURVE",
"800 50 CURVE SMOOTH",
"800 500 LINE"
);
}
);
width = 800;
}
);
note = "6b";
unicode = E06B;
},
{
glyphname = uniE06C;
layers = (
{
hints = (
{
horizontal = 1;
place = "{0, 21}";
target = up;
type = BottomGhost;
},
{
horizontal = 1;
place = "{300, 100}";
type = Stem;
},
{
place = "{0, 300}";
type = Stem;
},
{
place = "{100, 100}";
type = Stem;
},
{
place = "{500, 100}";
type = Stem;
},
{
place = "{400, 300}";
type = Stem;
}
);
layerId = "A0563635-EBCB-42F0-BA53-80B4033C9352";
paths = (
{
closed = 1;
nodes = (
"67 800 OFFCURVE",
"0 733 OFFCURVE",
"0 650 CURVE SMOOTH",
"0 584 OFFCURVE",
"41 529 OFFCURVE",
"100 509 CURVE",
"100 291 LINE",
"41 271 OFFCURVE",
"0 216 OFFCURVE",
"0 150 CURVE SMOOTH",
"0 67 OFFCURVE",
"67 0 OFFCURVE",
"150 0 CURVE SMOOTH",
"233 0 OFFCURVE",
"300 67 OFFCURVE",
"300 150 CURVE SMOOTH",
"300 210 OFFCURVE",
"266 260 OFFCURVE",
"216 284 CURVE",
"225 293 OFFCURVE",
"236 300 OFFCURVE",
"250 300 CURVE SMOOTH",
"450 300 LINE SMOOTH",
"532 300 OFFCURVE",
"600 368 OFFCURVE",
"600 450 CURVE SMOOTH",
"600 509 LINE",
"659 529 OFFCURVE",
"700 584 OFFCURVE",
"700 650 CURVE SMOOTH",
"700 733 OFFCURVE",
"633 800 OFFCURVE",
"550 800 CURVE SMOOTH",
"467 800 OFFCURVE",
"400 733 OFFCURVE",
"400 650 CURVE SMOOTH",
"400 584 OFFCURVE",
"441 529 OFFCURVE",
"500 509 CURVE",
"500 450 LINE SMOOTH",
"500 422 OFFCURVE",
"478 400 OFFCURVE",
"450 400 CURVE SMOOTH",
"250 400 LINE SMOOTH",
"233 400 OFFCURVE",
"215 396 OFFCURVE",
"200 391 CURVE",
"200 509 LINE",
"259 529 OFFCURVE",
"300 584 OFFCURVE",
"300 650 CURVE SMOOTH",
"300 733 OFFCURVE",
"233 800 OFFCURVE",
"150 800 CURVE SMOOTH"
);
}
);
width = 800;
}
);
note = "6c";
unicode = E06C;
},
{
glyphname = uniE06D;
layers = (
{
hints = (
{
horizontal = 1;
place = "{0, 21}";
target = up;
type = BottomGhost;
}
);
layerId = "A0563635-EBCB-42F0-BA53-80B4033C9352";
paths = (
{
closed = 1;
nodes = (
"0 800 LINE",
"0 400 LINE",
"150 550 LINE",
"300 400 LINE",
"400 500 LINE",
"250 650 LINE",
"400 800 LINE"
);
},
{
closed = 1;
nodes = (
"500 400 LINE",
"400 300 LINE",
"550 150 LINE",
"400 0 LINE",
"800 0 LINE",
"800 400 LINE",
"650 250 LINE"
);
}
);
width = 800;
}
);
note = "6d";
unicode = E06D;
},
{
glyphname = uniE06E;
layers = (
{
hints = (
{
horizontal = 1;
place = "{0, 21}";
target = up;
type = BottomGhost;
}
);
layerId = "A0563635-EBCB-42F0-BA53-80B4033C9352";
paths = (
{
closed = 1;
nodes = (
"100 800 LINE",
"0 700 LINE",
"150 550 LINE",
"0 400 LINE",
"400 400 LINE",
"400 800 LINE",
"250 650 LINE"
);
},
{
closed = 1;
nodes = (
"400 400 LINE",
"400 0 LINE",
"550 150 LINE",
"700 0 LINE",
"800 100 LINE",
"650 250 LINE",
"800 400 LINE"
);
}
);
width = 800;
}
);
note = "6e";
unicode = E06E;
},
{
glyphname = uniE06F;
layers = (
{
hints = (
{
horizontal = 1;
place = "{0, 100}";
type = Stem;
},
{
horizontal = 1;
place = "{700, 100}";
type = Stem;
},
{
place = "{0, 100}";
type = Stem;
}
);
layerId = "A0563635-EBCB-42F0-BA53-80B4033C9352";
paths = (
{
closed = 1;
nodes = (
"179 800 OFFCURVE",
"0 621 OFFCURVE",
"0 400 CURVE SMOOTH",
"0 179 OFFCURVE",
"179 0 OFFCURVE",
"400 0 CURVE SMOOTH",
"621 0 OFFCURVE",
"800 179 OFFCURVE",
"800 400 CURVE SMOOTH",
"800 621 OFFCURVE",
"621 800 OFFCURVE",
"400 800 CURVE SMOOTH"
);
},
{
closed = 1;
nodes = (
"434 700 OFFCURVE",
"464 691 OFFCURVE",
"494 681 CURVE",
"473 661 OFFCURVE",
"449 643 OFFCURVE",
"453 625 CURVE SMOOTH",
"457 607 OFFCURVE",
"522 612 OFFCURVE",
"522 575 CURVE SMOOTH",
"522 548 OFFCURVE",
"480 539 OFFCURVE",
"510 509 CURVE SMOOTH",
"545 474 OFFCURVE",
"446 412 OFFCURVE",
"444 366 CURVE SMOOTH",
"441 282 OFFCURVE",
"528 269 OFFCURVE",
"597 269 CURVE SMOOTH",
"639 269 OFFCURVE",
"650 249 OFFCURVE",
"647 225 CURVE",
"593 148 OFFCURVE",
"501 100 OFFCURVE",
"400 100 CURVE SMOOTH",
"362 100 OFFCURVE",
"328 109 OFFCURVE",
"294 122 CURVE",
"316 166 OFFCURVE",
"266 253 OFFCURVE",
"219 281 CURVE",
"196 304 OFFCURVE",
"147 295 OFFCURVE",
"119 306 CURVE",
"110 333 OFFCURVE",
"101 360 OFFCURVE",
"100 390 CURVE",
"103 395 OFFCURVE",
"108 400 OFFCURVE",
"116 400 CURVE",
"175 366 LINE",
"193 370 OFFCURVE",
"102 496 OFFCURVE",
"144 522 CURVE SMOOTH",
"164 534 OFFCURVE",
"204 482 OFFCURVE",
"191 537 CURVE SMOOTH",
"179 588 OFFCURVE",
"226 565 OFFCURVE",
"256 578 CURVE SMOOTH",
"282 589 OFFCURVE",
"302 619 OFFCURVE",
"269 637 CURVE",
"247 656 LINE",
"292 683 OFFCURVE",
"344 700 OFFCURVE",
"400 700 CURVE SMOOTH"
);
},
{
closed = 1;
nodes = (
"649 569 OFFCURVE",
"664 545 OFFCURVE",
"675 519 CURVE",
"675 516 LINE",
"653 494 LINE SMOOTH",
"625 466 OFFCURVE",
"620 515 OFFCURVE",
"609 525 CURVE SMOOTH",
"596 537 OFFCURVE",
"550 523 OFFCURVE",
"544 538 CURVE SMOOTH",
"537 556 OFFCURVE",
"593 580 OFFCURVE",
"631 591 CURVE"
);
}
);
width = 800;
}
);
note = "6f";
unicode = E06F;
},
{
glyphname = uniE070;
layers = (
{
hints = (
{
horizontal = 1;
place = "{0, 100}";
type = Stem;
}
);
layerId = "A0563635-EBCB-42F0-BA53-80B4033C9352";
paths = (
{
closed = 1;
nodes = (
"703 800 LINE",
"400 500 LINE",
"300 600 LINE",
"0 297 LINE",
"100 197 LINE",
"300 400 LINE",
"400 300 LINE",
"800 700 LINE"
);
},
{
closed = 1;
nodes = (
"0 100 LINE",
"0 0 LINE",
"800 0 LINE",
"800 100 LINE"
);
}
);
width = 800;
}
);
note = "70";
unicode = E070;
},
{
glyphname = uniE071;
layers = (
{
hints = (
{
horizontal = 1;
place = "{0, 100}";
type = Stem;
},
{
horizontal = 1;
place = "{200, 100}";
type = Stem;
},
{
horizontal = 1;
place = "{400, 100}";
type = Stem;
},
{
horizontal = 1;
place = "{600, 100}";
type = Stem;
},
{
place = "{0, 100}";
type = Stem;
},
{
place = "{200, 100}";
type = Stem;
},
{
place = "{400, 100}";
type = Stem;
},
{
place = "{600, 100}";
type = Stem;
}
);
layerId = "A0563635-EBCB-42F0-BA53-80B4033C9352";
paths = (
{
closed = 1;
nodes = (
"0 700 LINE",
"0 600 LINE",
"100 600 LINE",
"100 700 LINE"
);
},
{
closed = 1;
nodes = (
"200 700 LINE",
"200 600 LINE",
"300 600 LINE",
"300 700 LINE"
);
},
{
closed = 1;
nodes = (
"400 700 LINE",
"400 600 LINE",
"500 600 LINE",
"500 700 LINE"
);
},
{
closed = 1;
nodes = (
"600 700 LINE",
"600 600 LINE",
"700 600 LINE",
"700 700 LINE"
);
},
{
closed = 1;
nodes = (
"0 500 LINE",
"0 400 LINE",
"100 400 LINE",
"100 500 LINE"
);
},
{
closed = 1;
nodes = (
"200 500 LINE",
"200 400 LINE",
"300 400 LINE",
"300 500 LINE"
);
},
{
closed = 1;
nodes = (
"400 500 LINE",
"400 400 LINE",
"500 400 LINE",
"500 500 LINE"
);
},
{
closed = 1;
nodes = (
"600 500 LINE",
"600 400 LINE",
"700 400 LINE",
"700 500 LINE"
);
},
{
closed = 1;
nodes = (
"0 300 LINE",
"0 200 LINE",
"100 200 LINE",
"100 300 LINE"
);
},
{
closed = 1;
nodes = (
"200 300 LINE",
"200 200 LINE",
"300 200 LINE",
"300 300 LINE"
);
},
{
closed = 1;
nodes = (
"400 300 LINE",
"400 200 LINE",
"500 200 LINE",
"500 300 LINE"
);
},
{
closed = 1;
nodes = (
"600 300 LINE",
"600 200 LINE",
"700 200 LINE",
"700 300 LINE"
);
},
{
closed = 1;
nodes = (
"0 100 LINE",
"0 0 LINE",
"100 0 LINE",
"100 100 LINE"
);
},
{
closed = 1;
nodes = (
"200 100 LINE",
"200 0 LINE",
"300 0 LINE",
"300 100 LINE"
);
},
{
closed = 1;
nodes = (
"400 100 LINE",
"400 0 LINE",
"500 0 LINE",
"500 100 LINE"
);
},
{
closed = 1;
nodes = (
"600 100 LINE",
"600 0 LINE",
"700 0 LINE",
"700 100 LINE"
);
}
);
width = 800;
}
);
note = "71";
unicode = E071;
},
{
glyphname = uniE072;
layers = (
{
hints = (
{
place = "{0, 200}";
type = Stem;
},
{
place = "{300, 200}";
type = Stem;
},
{
place = "{600, 200}";
type = Stem;
}
);
layerId = "A0563635-EBCB-42F0-BA53-80B4033C9352";
paths = (
{
closed = 1;
nodes = (
"0 800 LINE",
"0 600 LINE",
"200 600 LINE",
"200 800 LINE"
);
},
{
closed = 1;
nodes = (
"300 800 LINE",
"300 600 LINE",
"500 600 LINE",
"500 800 LINE"
);
},
{
closed = 1;
nodes = (
"600 800 LINE",
"600 600 LINE",
"800 600 LINE",
"800 800 LINE"
);
},
{
closed = 1;
nodes = (
"0 500 LINE",
"0 300 LINE",
"200 300 LINE",
"200 500 LINE"
);
},
{
closed = 1;
nodes = (
"300 500 LINE",
"300 300 LINE",
"500 300 LINE",
"500 500 LINE"
);
},
{
closed = 1;
nodes = (
"600 500 LINE",
"600 300 LINE",
"800 300 LINE",
"800 500 LINE"
);
},
{
closed = 1;
nodes = (
"0 200 LINE",
"0 0 LINE",
"200 0 LINE",
"200 200 LINE"
);
},
{
closed = 1;
nodes = (
"300 200 LINE",
"300 0 LINE",
"500 0 LINE",
"500 200 LINE"
);
},
{
closed = 1;
nodes = (
"600 200 LINE",
"600 0 LINE",
"800 0 LINE",
"800 200 LINE"
);
}
);
width = 800;
}
);
note = "72";
unicode = E072;
},
{
glyphname = uniE073;
layers = (
{
hints = (
{
horizontal = 1;
place = "{0, 300}";
type = Stem;
},
{
horizontal = 1;
place = "{500, 300}";
type = Stem;
},
{
place = "{0, 300}";
type = Stem;
}
);
layerId = "A0563635-EBCB-42F0-BA53-80B4033C9352";
paths = (
{
closed = 1;
nodes = (
"0 800 LINE",
"0 500 LINE",
"300 500 LINE",
"300 800 LINE"
);
},
{
closed = 1;
nodes = (
"500 800 LINE",
"500 500 LINE",
"800 500 LINE",
"800 800 LINE"
);
},
{
closed = 1;
nodes = (
"0 300 LINE",
"0 0 LINE",
"300 0 LINE",
"300 300 LINE"
);
},
{
closed = 1;
nodes = (
"500 300 LINE",
"500 0 LINE",
"800 0 LINE",
"800 300 LINE"
);
}
);
width = 800;
}
);
note = "73";
unicode = E073;
},
{
glyphname = uniE074;
layers = (
{
hints = (
{
horizontal = 1;
place = "{0, 100}";
type = Stem;
},
{
horizontal = 1;
place = "{200, 100}";
type = Stem;
},
{
horizontal = 1;
place = "{400, 400}";
type = Stem;
},
{
place = "{600, 100}";
type = Stem;
}
);
layerId = "A0563635-EBCB-42F0-BA53-80B4033C9352";
paths = (
{
closed = 1;
nodes = (
"19 800 LINE SMOOTH",
"8 800 OFFCURVE",
"0 792 OFFCURVE",
"0 781 CURVE SMOOTH",
"0 450 LINE SMOOTH",
"0 422 OFFCURVE",
"22 400 OFFCURVE",
"50 400 CURVE SMOOTH",
"650 400 LINE SMOOTH",
"678 400 OFFCURVE",
"700 422 OFFCURVE",
"700 450 CURVE SMOOTH",
"700 781 LINE SMOOTH",
"700 792 OFFCURVE",
"692 800 OFFCURVE",
"681 800 CURVE SMOOTH"
);
},
{
closed = 1;
nodes = (
"0 19 LINE SMOOTH",
"0 8 OFFCURVE",
"8 0 OFFCURVE",
"19 0 CURVE SMOOTH",
"681 0 LINE SMOOTH",
"692 0 OFFCURVE",
"700 8 OFFCURVE",
"700 19 CURVE SMOOTH",
"700 309 LINE",
"684 303 OFFCURVE",
"668 300 OFFCURVE",
"650 300 CURVE SMOOTH",
"50 300 LINE SMOOTH",
"32 300 OFFCURVE",
"16 303 OFFCURVE",
"0 309 CURVE"
);
},
{
closed = 1;
nodes = (
"578 200 OFFCURVE",
"600 178 OFFCURVE",
"600 150 CURVE SMOOTH",
"600 122 OFFCURVE",
"578 100 OFFCURVE",
"550 100 CURVE SMOOTH",
"522 100 OFFCURVE",
"500 122 OFFCURVE",
"500 150 CURVE SMOOTH",
"500 178 OFFCURVE",
"522 200 OFFCURVE",
"550 200 CURVE SMOOTH"
);
}
);
width = 800;
}
);
note = "74";
unicode = E074;
},
{
glyphname = uniE075;
layers = (
{
hints = (
{
place = "{0, 100}";
type = Stem;
},
{
place = "{300, 100}";
type = Stem;
},
{
place = "{600, 100}";
type = Stem;
},
{
place = "{100, 100}";
type = Stem;
},
{
place = "{500, 100}";
type = Stem;
}
);
layerId = "A0563635-EBCB-42F0-BA53-80B4033C9352";
paths = (
{
closed = 1;
nodes = (
"0 700 LINE",
"0 600 LINE",
"50 600 LINE SMOOTH",
"78 600 OFFCURVE",
"100 578 OFFCURVE",
"100 550 CURVE SMOOTH",
"100 150 LINE SMOOTH",
"100 122 OFFCURVE",
"78 100 OFFCURVE",
"50 100 CURVE SMOOTH",
"0 100 LINE",
"0 0 LINE",
"300 0 LINE",
"300 100 LINE",
"250 100 LINE SMOOTH",
"222 100 OFFCURVE",
"200 122 OFFCURVE",
"200 150 CURVE SMOOTH",
"200 300 LINE",
"500 300 LINE",
"500 150 LINE SMOOTH",
"500 122 OFFCURVE",
"478 100 OFFCURVE",
"450 100 CURVE SMOOTH",
"400 100 LINE",
"400 0 LINE",
"700 0 LINE",
"700 100 LINE",
"650 100 LINE SMOOTH",
"622 100 OFFCURVE",
"600 122 OFFCURVE",
"600 150 CURVE SMOOTH",
"600 550 LINE SMOOTH",
"600 578 OFFCURVE",
"622 600 OFFCURVE",
"650 600 CURVE SMOOTH",
"700 600 LINE",
"700 700 LINE",
"400 700 LINE",
"400 600 LINE",
"450 600 LINE SMOOTH",
"478 600 OFFCURVE",
"500 578 OFFCURVE",
"500 550 CURVE SMOOTH",
"500 400 LINE",
"200 400 LINE",
"200 550 LINE SMOOTH",
"200 578 OFFCURVE",
"222 600 OFFCURVE",
"250 600 CURVE SMOOTH",
"300 600 LINE",
"300 700 LINE"
);
}
);
width = 800;
}
);
note = "75";
unicode = E075;
},
{
glyphname = uniE076;
layers = (
{
hints = (
{
horizontal = 1;
place = "{0, 21}";
target = up;
type = BottomGhost;
},
{
horizontal = 1;
place = "{600, 100}";
type = Stem;
},
{
place = "{100, 100}";
type = Stem;
},
{
place = "{0, 200}";
type = Stem;
},
{
place = "{600, 100}";
type = Stem;
},
{
place = "{600, 200}";
type = Stem;
}
);
layerId = "A0563635-EBCB-42F0-BA53-80B4033C9352";
paths = (
{
closed = 1;
nodes = (
"235 700 OFFCURVE",
"100 565 OFFCURVE",
"100 400 CURVE SMOOTH",
"100 300 LINE",
"50 300 LINE SMOOTH",
"22 300 OFFCURVE",
"0 278 OFFCURVE",
"0 250 CURVE SMOOTH",
"0 50 LINE SMOOTH",
"0 22 OFFCURVE",
"22 0 OFFCURVE",
"50 0 CURVE SMOOTH",
"150 0 LINE SMOOTH",
"178 0 OFFCURVE",
"200 22 OFFCURVE",
"200 50 CURVE SMOOTH",
"200 400 LINE SMOOTH",
"200 511 OFFCURVE",
"289 600 OFFCURVE",
"400 600 CURVE SMOOTH",
"511 600 OFFCURVE",
"600 511 OFFCURVE",
"600 400 CURVE SMOOTH",
"600 50 LINE SMOOTH",
"600 22 OFFCURVE",
"622 0 OFFCURVE",
"650 0 CURVE SMOOTH",
"750 0 LINE SMOOTH",
"778 0 OFFCURVE",
"800 22 OFFCURVE",
"800 50 CURVE SMOOTH",
"800 250 LINE SMOOTH",
"800 278 OFFCURVE",
"778 300 OFFCURVE",
"750 300 CURVE SMOOTH",
"700 300 LINE",
"700 400 LINE SMOOTH",
"700 565 OFFCURVE",
"565 700 OFFCURVE",
"400 700 CURVE SMOOTH"
);
}
);
width = 800;
}
);
note = "76";
unicode = E076;
},
{
glyphname = uniE077;
layers = (
{
layerId = "A0563635-EBCB-42F0-BA53-80B4033C9352";
paths = (
{
closed = 1;
nodes = (
"0 445 OFFCURVE",
"23 395 OFFCURVE",
"59 359 CURVE SMOOTH",
"400 19 LINE",
"741 359 LINE SMOOTH",
"777 395 OFFCURVE",
"800 445 OFFCURVE",
"800 500 CURVE SMOOTH",
"800 609 OFFCURVE",
"709 700 OFFCURVE",
"600 700 CURVE SMOOTH",
"491 700 OFFCURVE",
"400 609 OFFCURVE",
"400 500 CURVE",
"400 609 OFFCURVE",
"309 700 OFFCURVE",
"200 700 CURVE SMOOTH",
"91 700 OFFCURVE",
"0 609 OFFCURVE",
"0 500 CURVE SMOOTH"
);
}
);
width = 800;
}
);
note = "77";
unicode = E077;
},
{
glyphname = uniE078;
layers = (
{
hints = (
{
horizontal = 1;
place = "{0, 21}";
target = up;
type = BottomGhost;
},
{
place = "{100, 200}";
type = Stem;
},
{
place = "{500, 200}";
type = Stem;
}
);
layerId = "A0563635-EBCB-42F0-BA53-80B4033C9352";
paths = (
{
closed = 1;
nodes = (
"400 700 LINE",
"0 400 LINE",
"100 400 LINE",
"100 0 LINE",
"300 0 LINE",
"300 200 LINE",
"500 200 LINE",
"500 0 LINE",
"700 0 LINE",
"700 403 LINE",
"800 400 LINE"
);
}
);
width = 800;
}
);
note = "78";
unicode = E078;
},
{
glyphname = uniE079;
layers = (
{
hints = (
{
horizontal = 1;
place = "{0, 100}";
type = Stem;
},
{
horizontal = 1;
place = "{700, 100}";
type = Stem;
},
{
place = "{0, 100}";
type = Stem;
}
);
layerId = "A0563635-EBCB-42F0-BA53-80B4033C9352";
paths = (
{
closed = 1;
nodes = (
"0 800 LINE",
"0 0 LINE",
"800 0 LINE",
"800 800 LINE"
);
},
{
closed = 1;
nodes = (
"100 700 LINE",
"700 700 LINE",
"700 400 LINE",
"600 500 LINE",
"500 400 LINE",
"700 200 LINE",
"700 100 LINE",
"600 100 LINE",
"200 500 LINE",
"100 400 LINE"
);
}
);
width = 800;
}
);
note = "79";
unicode = E079;
},
{
glyphname = uniE07A;
layers = (
{
hints = (
{
horizontal = 1;
place = "{0, 200}";
type = Stem;
},
{
horizontal = 1;
place = "{600, 200}";
type = Stem;
},
{
place = "{0, 100}";
type = Stem;
},
{
place = "{700, 100}";
type = Stem;
}
);
layerId = "A0563635-EBCB-42F0-BA53-80B4033C9352";
paths = (
{
closed = 1;
nodes = (
"19 800 LINE SMOOTH",
"8 800 OFFCURVE",
"0 792 OFFCURVE",
"0 781 CURVE SMOOTH",
"0 19 LINE SMOOTH",
"0 8 OFFCURVE",
"8 0 OFFCURVE",
"19 0 CURVE SMOOTH",
"781 0 LINE SMOOTH",
"792 0 OFFCURVE",
"800 8 OFFCURVE",
"800 19 CURVE SMOOTH",
"800 781 LINE SMOOTH",
"800 792 OFFCURVE",
"792 800 OFFCURVE",
"781 800 CURVE SMOOTH"
);
},
{
closed = 1;
nodes = (
"100 600 LINE",
"700 600 LINE",
"700 300 LINE",
"600 300 LINE",
"500 200 LINE",
"300 200 LINE",
"200 300 LINE",
"100 300 LINE"
);
}
);
width = 800;
}
);
note = "7a";
unicode = E07A;
},
{
glyphname = uniE07B;
layers = (
{
hints = (
{
horizontal = 1;
place = "{200, 100}";
type = Stem;
},
{
horizontal = 1;
place = "{500, 100}";
type = Stem;
},
{
place = "{0, 100}";
type = Stem;
},
{
place = "{700, 100}";
type = Stem;
}
);
layerId = "A0563635-EBCB-42F0-BA53-80B4033C9352";
paths = (
{
closed = 1;
nodes = (
"69 600 OFFCURVE",
"0 499 OFFCURVE",
"0 400 CURVE SMOOTH",
"0 301 OFFCURVE",
"69 200 OFFCURVE",
"200 200 CURVE SMOOTH",
"279 200 OFFCURVE",
"342 256 OFFCURVE",
"400 322 CURVE",
"458 256 OFFCURVE",
"519 200 OFFCURVE",
"600 200 CURVE SMOOTH",
"731 200 OFFCURVE",
"800 301 OFFCURVE",
"800 400 CURVE SMOOTH",
"800 499 OFFCURVE",
"731 600 OFFCURVE",
"600 600 CURVE SMOOTH",
"519 600 OFFCURVE",
"458 544 OFFCURVE",
"400 478 CURVE",
"342 544 OFFCURVE",
"280 600 OFFCURVE",
"200 600 CURVE SMOOTH"
);
},
{
closed = 1;
nodes = (
"242 500 OFFCURVE",
"288 453 OFFCURVE",
"334 400 CURVE",
"288 347 OFFCURVE",
"242 300 OFFCURVE",
"200 300 CURVE SMOOTH",
"126 300 OFFCURVE",
"100 354 OFFCURVE",
"100 400 CURVE SMOOTH",
"100 446 OFFCURVE",
"126 500 OFFCURVE",
"200 500 CURVE SMOOTH"
);
},
{
closed = 1;
nodes = (
"674 500 OFFCURVE",
"700 446 OFFCURVE",
"700 400 CURVE SMOOTH",
"700 354 OFFCURVE",
"674 300 OFFCURVE",
"600 300 CURVE SMOOTH",
"557 300 OFFCURVE",
"512 347 OFFCURVE",
"466 400 CURVE",
"512 453 OFFCURVE",
"557 500 OFFCURVE",
"600 500 CURVE SMOOTH"
);
}
);
width = 800;
}
);
note = "7b";
unicode = E07B;
},
{
glyphname = uniE07C;
layers = (
{
hints = (
{
horizontal = 1;
place = "{0, 100}";
type = Stem;
},
{
horizontal = 1;
place = "{450, 100}";
type = Stem;
},
{
horizontal = 1;
place = "{600, 200}";
type = Stem;
},
{
place = "{200, 100}";
type = Stem;
},
{
place = "{200, 200}";
type = Stem;
},
{
place = "{100, 100}";
type = Stem;
}
);
layerId = "A0563635-EBCB-42F0-BA53-80B4033C9352";
paths = (
{
closed = 1;
nodes = (
"245 800 OFFCURVE",
"200 755 OFFCURVE",
"200 700 CURVE SMOOTH",
"200 645 OFFCURVE",
"245 600 OFFCURVE",
"300 600 CURVE SMOOTH",
"355 600 OFFCURVE",
"400 645 OFFCURVE",
"400 700 CURVE SMOOTH",
"400 755 OFFCURVE",
"355 800 OFFCURVE",
"300 800 CURVE SMOOTH"
);
},
{
closed = 1;
nodes = (
"67 550 OFFCURVE",
"0 483 OFFCURVE",
"0 400 CURVE",
"100 400 LINE",
"100 428 OFFCURVE",
"122 450 OFFCURVE",
"150 450 CURVE SMOOTH",
"178 450 OFFCURVE",
"200 428 OFFCURVE",
"200 400 CURVE SMOOTH",
"200 372 OFFCURVE",
"100 236 OFFCURVE",
"100 150 CURVE SMOOTH",
"100 64 OFFCURVE",
"167 0 OFFCURVE",
"250 0 CURVE SMOOTH",
"333 0 OFFCURVE",
"400 67 OFFCURVE",
"400 150 CURVE",
"300 150 LINE",
"300 122 OFFCURVE",
"278 100 OFFCURVE",
"250 100 CURVE SMOOTH",
"222 100 OFFCURVE",
"200 122 OFFCURVE",
"200 150 CURVE SMOOTH",
"200 186 OFFCURVE",
"300 334 OFFCURVE",
"300 400 CURVE SMOOTH",
"300 481 OFFCURVE",
"233 550 OFFCURVE",
"150 550 CURVE SMOOTH"
);
}
);
width = 400;
}
);
note = "7c";
unicode = E07C;
},
{
glyphname = uniE07D;
layers = (
{
hints = (
{
horizontal = 1;
place = "{0, 100}";
type = Stem;
},
{
horizontal = 1;
place = "{700, 100}";
type = Stem;
}
);
layerId = "A0563635-EBCB-42F0-BA53-80B4033C9352";
paths = (
{
closed = 1;
nodes = (
"200 800 LINE",
"200 700 LINE",
"363 700 LINE",
"356 688 LINE",
"278 492 OFFCURVE",
"199 297 OFFCURVE",
"122 100 CURVE",
"0 100 LINE",
"0 0 LINE",
"500 0 LINE",
"500 100 LINE",
"338 100 LINE",
"344 112 LINE",
"422 308 OFFCURVE",
"501 503 OFFCURVE",
"578 700 CURVE",
"700 700 LINE",
"700 800 LINE"
);
}
);
width = 800;
}
);
note = "7d";
unicode = E07D;
},
{
glyphname = uniE07E;
layers = (
{
hints = (
{
horizontal = 1;
place = "{0, 100}";
type = Stem;
},
{
horizontal = 1;
place = "{200, 100}";
type = Stem;
},
{
horizontal = 1;
place = "{400, 100}";
type = Stem;
},
{
horizontal = 1;
place = "{600, 100}";
type = Stem;
}
);
layerId = "A0563635-EBCB-42F0-BA53-80B4033C9352";
paths = (
{
closed = 1;
nodes = (
"0 700 LINE",
"0 600 LINE",
"800 600 LINE",
"800 700 LINE"
);
},
{
closed = 1;
nodes = (
"0 500 LINE",
"0 400 LINE",
"800 400 LINE",
"800 500 LINE"
);
},
{
closed = 1;
nodes = (
"0 300 LINE",
"0 200 LINE",
"800 200 LINE",
"800 300 LINE"
);
},
{
closed = 1;
nodes = (
"100 100 LINE",
"100 0 LINE",
"700 0 LINE",
"700 100 LINE"
);
}
);
width = 800;
}
);
note = "7e";
unicode = E07E;
},
{
glyphname = uniE07F;
layers = (
{
hints = (
{
horizontal = 1;
place = "{0, 100}";
type = Stem;
},
{
horizontal = 1;
place = "{200, 100}";
type = Stem;
},
{
horizontal = 1;
place = "{400, 100}";
type = Stem;
},
{
horizontal = 1;
place = "{600, 100}";
type = Stem;
}
);
layerId = "A0563635-EBCB-42F0-BA53-80B4033C9352";
paths = (
{
closed = 1;
nodes = (
"0 700 LINE",
"0 600 LINE",
"800 600 LINE",
"800 700 LINE"
);
},
{
closed = 1;
nodes = (
"0 500 LINE",
"0 400 LINE",
"800 400 LINE",
"800 500 LINE"
);
},
{
closed = 1;
nodes = (
"0 300 LINE",
"0 200 LINE",
"800 200 LINE",
"800 300 LINE"
);
},
{
closed = 1;
nodes = (
"0 100 LINE",
"0 0 LINE",
"600 0 LINE",
"600 100 LINE"
);
}
);
width = 800;
}
);
note = "7f";
unicode = E07F;
},
{
glyphname = uniE080;
layers = (
{
hints = (
{
horizontal = 1;
place = "{0, 100}";
type = Stem;
},
{
horizontal = 1;
place = "{200, 100}";
type = Stem;
},
{
horizontal = 1;
place = "{400, 100}";
type = Stem;
},
{
horizontal = 1;
place = "{600, 100}";
type = Stem;
}
);
layerId = "A0563635-EBCB-42F0-BA53-80B4033C9352";
paths = (
{
closed = 1;
nodes = (
"0 700 LINE",
"0 600 LINE",
"800 600 LINE",
"800 700 LINE"
);
},
{
closed = 1;
nodes = (
"0 500 LINE",
"0 400 LINE",
"800 400 LINE",
"800 500 LINE"
);
},
{
closed = 1;
nodes = (
"0 300 LINE",
"0 200 LINE",
"800 200 LINE",
"800 300 LINE"
);
},
{
closed = 1;
nodes = (
"200 100 LINE",
"200 0 LINE",
"800 0 LINE",
"800 100 LINE"
);
}
);
width = 800;
}
);
note = "80";
unicode = E080;
},
{
glyphname = uniE081;
layers = (
{
hints = (
{
horizontal = 1;
place = "{0, 21}";
target = up;
type = BottomGhost;
},
{
horizontal = 1;
place = "{300, 200}";
type = Stem;
},
{
horizontal = 1;
place = "{700, 100}";
type = Stem;
}
);
layerId = "A0563635-EBCB-42F0-BA53-80B4033C9352";
paths = (
{
closed = 1;
nodes = (
"412 800 OFFCURVE",
"300 688 OFFCURVE",
"300 550 CURVE SMOOTH",
"300 534 OFFCURVE",
"300 518 OFFCURVE",
"303 503 CURVE",
"0 200 LINE",
"0 0 LINE",
"300 0 LINE",
"300 200 LINE",
"500 200 LINE",
"500 300 LINE",
"503 303 LINE",
"518 300 OFFCURVE",
"534 300 OFFCURVE",
"550 300 CURVE SMOOTH",
"688 300 OFFCURVE",
"800 412 OFFCURVE",
"800 550 CURVE SMOOTH",
"800 688 OFFCURVE",
"688 800 OFFCURVE",
"550 800 CURVE SMOOTH"
);
},
{
closed = 1;
nodes = (
"655 700 OFFCURVE",
"700 655 OFFCURVE",
"700 600 CURVE SMOOTH",
"700 545 OFFCURVE",
"655 500 OFFCURVE",
"600 500 CURVE SMOOTH",
"545 500 OFFCURVE",
"500 545 OFFCURVE",
"500 600 CURVE SMOOTH",
"500 655 OFFCURVE",
"545 700 OFFCURVE",
"600 700 CURVE SMOOTH"
);
}
);
width = 800;
}
);
note = "81";
unicode = E081;
},
{
glyphname = uniE082;
layers = (
{
hints = (
{
horizontal = 1;
place = "{0, 200}";
type = Stem;
},
{
horizontal = 1;
place = "{500, 100}";
type = Stem;
},
{
place = "{100, 100}";
type = Stem;
},
{
place = "{600, 100}";
type = Stem;
}
);
layerId = "A0563635-EBCB-42F0-BA53-80B4033C9352";
paths = (
{
closed = 1;
nodes = (
"134 600 LINE",
"115 594 OFFCURVE",
"100 572 OFFCURVE",
"100 552 CURVE SMOOTH",
"100 550 LINE",
"100 200 LINE",
"0 200 LINE",
"0 50 LINE SMOOTH",
"0 22 OFFCURVE",
"22 0 OFFCURVE",
"50 0 CURVE SMOOTH",
"750 0 LINE SMOOTH",
"778 0 OFFCURVE",
"800 22 OFFCURVE",
"800 50 CURVE SMOOTH",
"800 200 LINE",
"700 200 LINE",
"700 550 LINE SMOOTH",
"700 578 OFFCURVE",
"678 600 OFFCURVE",
"650 600 CURVE SMOOTH",
"150 600 LINE",
"145 600 LINE",
"141 600 LINE",
"137 600 LINE"
);
},
{
closed = 1;
nodes = (
"200 500 LINE",
"600 500 LINE",
"600 200 LINE",
"500 200 LINE",
"500 100 LINE",
"300 100 LINE",
"300 200 LINE",
"200 200 LINE"
);
}
);
width = 800;
}
);
note = "82";
unicode = E082;
},
{
glyphname = uniE083;
layers = (
{
hints = (
{
horizontal = 1;
place = "{0, 100}";
type = Stem;
},
{
horizontal = 1;
place = "{200, 100}";
type = Stem;
},
{
horizontal = 1;
place = "{400, 400}";
type = Stem;
},
{
place = "{0, 400}";
type = Stem;
},
{
place = "{500, 100}";
type = Stem;
},
{
place = "{700, 100}";
type = Stem;
}
);
layerId = "A0563635-EBCB-42F0-BA53-80B4033C9352";
paths = (
{
closed = 1;
nodes = (
"0 800 LINE",
"0 400 LINE",
"400 400 LINE",
"400 800 LINE"
);
},
{
closed = 1;
nodes = (
"500 600 LINE",
"500 300 LINE",
"200 300 LINE",
"200 200 LINE",
"600 200 LINE",
"600 600 LINE"
);
},
{
closed = 1;
nodes = (
"700 400 LINE",
"700 100 LINE",
"400 100 LINE",
"400 0 LINE",
"800 0 LINE",
"800 400 LINE"
);
}
);
width = 800;
}
);
note = "83";
unicode = E083;
},
{
glyphname = uniE084;
layers = (
{
hints = (
{
horizontal = 1;
place = "{-100, 100}";
type = Stem;
},
{
place = "{111, 307}";
type = Stem;
},
{
place = "{151, 208}";
type = Stem;
}
);
layerId = "A0563635-EBCB-42F0-BA53-80B4033C9352";
paths = (
{
closed = 1;
nodes = (
"37 544 LINE",
"16 539 OFFCURVE",
"0 516 OFFCURVE",
"0 495 CURVE SMOOTH",
"0 467 OFFCURVE",
"22 445 OFFCURVE",
"50 445 CURVE SMOOTH",
"60 445 OFFCURVE",
"73 450 OFFCURVE",
"81 456 CURVE",
"381 606 LINE SMOOTH",
"396 614 OFFCURVE",
"408 634 OFFCURVE",
"408 651 CURVE SMOOTH",
"408 679 OFFCURVE",
"386 701 OFFCURVE",
"358 701 CURVE SMOOTH",
"349 701 OFFCURVE",
"343 698 OFFCURVE",
"337 694 CURVE"
);
},
{
closed = 1;
nodes = (
"37 344 LINE",
"16 339 OFFCURVE",
"0 316 OFFCURVE",
"0 295 CURVE SMOOTH",
"0 267 OFFCURVE",
"22 245 OFFCURVE",
"50 245 CURVE SMOOTH",
"60 245 OFFCURVE",
"73 250 OFFCURVE",
"81 256 CURVE",
"481 456 LINE SMOOTH",
"496 464 OFFCURVE",
"508 484 OFFCURVE",
"508 501 CURVE SMOOTH",
"508 529 OFFCURVE",
"486 551 OFFCURVE",
"458 551 CURVE SMOOTH",
"449 551 OFFCURVE",
"443 548 OFFCURVE",
"437 544 CURVE"
);
},
{
closed = 1;
nodes = (
"137 194 LINE",
"123 186 OFFCURVE",
"111 166 OFFCURVE",
"111 150 CURVE SMOOTH",
"111 124 OFFCURVE",
"133 101 OFFCURVE",
"159 100 CURVE",
"359 100 LINE SMOOTH",
"361 100 OFFCURVE",
"365 99 OFFCURVE",
"367 99 CURVE SMOOTH",
"395 99 OFFCURVE",
"418 122 OFFCURVE",
"418 150 CURVE SMOOTH",
"418 174 OFFCURVE",
"399 196 OFFCURVE",
"375 200 CURVE",
"481 256 LINE SMOOTH",
"496 264 OFFCURVE",
"508 284 OFFCURVE",
"508 301 CURVE SMOOTH",
"508 329 OFFCURVE",
"486 351 OFFCURVE",
"458 351 CURVE SMOOTH",
"449 351 OFFCURVE",
"443 348 OFFCURVE",
"437 344 CURVE"
);
},
{
closed = 1;
nodes = (
"151 -78 OFFCURVE",
"173 -101 OFFCURVE",
"201 -101 CURVE SMOOTH",
"203 -101 OFFCURVE",
"207 -100 OFFCURVE",
"209 -100 CURVE SMOOTH",
"309 -100 LINE SMOOTH",
"337 -100 OFFCURVE",
"359 -78 OFFCURVE",
"359 -50 CURVE SMOOTH",
"359 -22 OFFCURVE",
"337 0 OFFCURVE",
"309 0 CURVE SMOOTH",
"209 0 LINE",
"204 0 LINE",
"200 0 LINE",
"197 0 LINE SMOOTH",
"171 0 OFFCURVE",
"151 -27 OFFCURVE",
"151 -50 CURVE SMOOTH"
);
}
);
width = 600;
}
);
note = "84";
unicode = E084;
},
{
glyphname = uniE085;
layers = (
{
hints = (
{
horizontal = 1;
place = "{0, 21}";
target = up;
type = BottomGhost;
},
{
horizontal = 1;
place = "{100, 100}";
type = Stem;
},
{
horizontal = 1;
place = "{600, 100}";
type = Stem;
},
{
place = "{199, 100}";
type = Stem;
},
{
place = "{499, 100}";
type = Stem;
}
);
layerId = "A0563635-EBCB-42F0-BA53-80B4033C9352";
paths = (
{
closed = 1;
nodes = (
"199 800 LINE",
"199 700 LINE",
"99 700 LINE",
"99 600 LINE",
"299 600 LINE",
"299 800 LINE"
);
},
{
closed = 1;
nodes = (
"586 797 LINE",
"530 794 OFFCURVE",
"490 774 OFFCURVE",
"458 741 CURVE SMOOTH",
"415 697 LINE",
"402 689 OFFCURVE",
"391 669 OFFCURVE",
"391 654 CURVE SMOOTH",
"391 626 OFFCURVE",
"413 604 OFFCURVE",
"441 604 CURVE SMOOTH",
"456 604 OFFCURVE",
"475 615 OFFCURVE",
"483 628 CURVE",
"527 672 LINE SMOOTH",
"561 706 OFFCURVE",
"630 713 OFFCURVE",
"671 672 CURVE SMOOTH",
"710 633 OFFCURVE",
"711 568 OFFCURVE",
"671 528 CURVE SMOOTH",
"521 378 LINE",
"508 370 OFFCURVE",
"497 350 OFFCURVE",
"497 335 CURVE SMOOTH",
"497 307 OFFCURVE",
"519 285 OFFCURVE",
"547 285 CURVE SMOOTH",
"562 285 OFFCURVE",
"582 296 OFFCURVE",
"590 309 CURVE",
"740 459 LINE SMOOTH",
"818 537 OFFCURVE",
"818 662 OFFCURVE",
"740 740 CURVE SMOOTH",
"712 768 OFFCURVE",
"679 786 OFFCURVE",
"643 794 CURVE SMOOTH",
"625 798 OFFCURVE",
"605 798 OFFCURVE",
"587 797 CURVE"
);
},
{
closed = 1;
nodes = (
"58 340 LINE SMOOTH",
"-20 262 OFFCURVE",
"-20 137 OFFCURVE",
"58 59 CURVE SMOOTH",
"114 3 OFFCURVE",
"195 -13 OFFCURVE",
"265 12 CURVE SMOOTH",
"292 22 OFFCURVE",
"318 37 OFFCURVE",
"340 59 CURVE SMOOTH",
"383 103 LINE",
"396 111 OFFCURVE",
"407 131 OFFCURVE",
"407 146 CURVE SMOOTH",
"407 174 OFFCURVE",
"385 196 OFFCURVE",
"357 196 CURVE SMOOTH",
"342 196 OFFCURVE",
"323 185 OFFCURVE",
"315 172 CURVE",
"271 128 LINE SMOOTH",
"237 94 OFFCURVE",
"168 87 OFFCURVE",
"127 128 CURVE SMOOTH",
"88 167 OFFCURVE",
"87 232 OFFCURVE",
"127 272 CURVE SMOOTH",
"277 422 LINE SMOOTH",
"285 430 OFFCURVE",
"291 446 OFFCURVE",
"291 457 CURVE SMOOTH",
"291 485 OFFCURVE",
"269 507 OFFCURVE",
"241 507 CURVE SMOOTH",
"239 507 OFFCURVE",
"235 506 OFFCURVE",
"233 506 CURVE SMOOTH",
"230 506 LINE SMOOTH",
"222 506 OFFCURVE",
"212 495 OFFCURVE",
"208 490 CURVE"
);
},
{
closed = 1;
nodes = (
"499 200 LINE",
"499 0 LINE",
"599 0 LINE",
"599 100 LINE",
"699 100 LINE",
"699 200 LINE"
);
}
);
width = 800;
}
);
note = "85";
unicode = E085;
},
{
glyphname = uniE086;
layers = (
{
hints = (
{
horizontal = 1;
place = "{256, 95}";
type = Stem;
},
{
horizontal = 1;
place = "{466, 100}";
type = Stem;
},
{
horizontal = 1;
place = "{445, 99}";
type = Stem;
}
);
layerId = "A0563635-EBCB-42F0-BA53-80B4033C9352";
paths = (
{
closed = 1;
nodes = (
"530 794 OFFCURVE",
"490 774 OFFCURVE",
"458 741 CURVE",
"445 733 OFFCURVE",
"434 713 OFFCURVE",
"434 698 CURVE SMOOTH",
"434 670 OFFCURVE",
"456 648 OFFCURVE",
"484 648 CURVE SMOOTH",
"499 648 OFFCURVE",
"519 659 OFFCURVE",
"527 672 CURVE",
"561 706 OFFCURVE",
"630 713 OFFCURVE",
"671 672 CURVE SMOOTH",
"710 633 OFFCURVE",
"711 568 OFFCURVE",
"671 528 CURVE SMOOTH",
"521 378 LINE SMOOTH",
"477 334 OFFCURVE",
"441 329 OFFCURVE",
"415 331 CURVE SMOOTH",
"389 333 OFFCURVE",
"374 344 OFFCURVE",
"374 344 CURVE",
"367 348 OFFCURVE",
"356 351 OFFCURVE",
"348 351 CURVE SMOOTH",
"320 351 OFFCURVE",
"298 328 OFFCURVE",
"298 300 CURVE SMOOTH",
"298 283 OFFCURVE",
"309 264 OFFCURVE",
"324 256 CURVE SMOOTH",
"339 248 OFFCURVE",
"358 234 OFFCURVE",
"408 231 CURVE SMOOTH",
"458 228 OFFCURVE",
"528 247 OFFCURVE",
"590 309 CURVE SMOOTH",
"740 459 LINE SMOOTH",
"818 537 OFFCURVE",
"818 662 OFFCURVE",
"740 740 CURVE SMOOTH",
"712 768 OFFCURVE",
"679 786 OFFCURVE",
"643 794 CURVE SMOOTH",
"625 798 OFFCURVE",
"604 798 OFFCURVE",
"586 797 CURVE SMOOTH"
);
},
{
closed = 1;
nodes = (
"336 568 OFFCURVE",
"268 550 OFFCURVE",
"208 490 CURVE SMOOTH",
"58 340 LINE SMOOTH",
"-20 262 OFFCURVE",
"-20 137 OFFCURVE",
"58 59 CURVE SMOOTH",
"114 3 OFFCURVE",
"195 -13 OFFCURVE",
"265 12 CURVE SMOOTH",
"292 22 OFFCURVE",
"318 37 OFFCURVE",
"340 59 CURVE",
"353 67 OFFCURVE",
"363 87 OFFCURVE",
"363 102 CURVE SMOOTH",
"363 130 OFFCURVE",
"341 152 OFFCURVE",
"313 152 CURVE SMOOTH",
"298 152 OFFCURVE",
"279 141 OFFCURVE",
"271 128 CURVE",
"237 94 OFFCURVE",
"168 87 OFFCURVE",
"127 128 CURVE SMOOTH",
"88 167 OFFCURVE",
"87 232 OFFCURVE",
"127 272 CURVE SMOOTH",
"277 422 LINE SMOOTH",
"317 462 OFFCURVE",
"352 467 OFFCURVE",
"380 466 CURVE SMOOTH",
"408 465 OFFCURVE",
"427 456 OFFCURVE",
"427 456 CURVE",
"435 450 OFFCURVE",
"448 445 OFFCURVE",
"458 445 CURVE SMOOTH",
"486 445 OFFCURVE",
"508 467 OFFCURVE",
"508 495 CURVE SMOOTH",
"508 516 OFFCURVE",
"492 539 OFFCURVE",
"471 544 CURVE SMOOTH",
"450 549 OFFCURVE",
"436 564 OFFCURVE",
"386 566 CURVE SMOOTH"
);
}
);
width = 800;
}
);
note = "86";
unicode = E086;
},
{
glyphname = uniE087;
layers = (
{
hints = (
{
horizontal = 1;
place = "{0, 100}";
type = Stem;
},
{
horizontal = 1;
place = "{200, 100}";
type = Stem;
},
{
horizontal = 1;
place = "{400, 100}";
type = Stem;
},
{
horizontal = 1;
place = "{600, 100}";
type = Stem;
},
{
place = "{0, 300}";
type = Stem;
}
);
layerId = "A0563635-EBCB-42F0-BA53-80B4033C9352";
paths = (
{
closed = 1;
nodes = (
"0 700 LINE",
"0 400 LINE",
"300 400 LINE",
"300 700 LINE"
);
},
{
closed = 1;
nodes = (
"400 700 LINE",
"400 600 LINE",
"800 600 LINE",
"800 700 LINE"
);
},
{
closed = 1;
nodes = (
"400 500 LINE",
"400 400 LINE",
"700 400 LINE",
"700 500 LINE"
);
},
{
closed = 1;
nodes = (
"0 300 LINE",
"0 0 LINE",
"300 0 LINE",
"300 300 LINE"
);
},
{
closed = 1;
nodes = (
"400 300 LINE",
"400 200 LINE",
"800 200 LINE",
"800 300 LINE"
);
},
{
closed = 1;
nodes = (
"400 100 LINE",
"400 0 LINE",
"700 0 LINE",
"700 100 LINE"
);
}
);
width = 800;
}
);
note = "87";
unicode = E087;
},
{
glyphname = uniE088;
layers = (
{
hints = (
{
horizontal = 1;
place = "{0, 100}";
type = Stem;
},
{
horizontal = 1;
place = "{200, 100}";
type = Stem;
},
{
horizontal = 1;
place = "{400, 100}";
type = Stem;
},
{
horizontal = 1;
place = "{600, 100}";
type = Stem;
},
{
place = "{0, 100}";
type = Stem;
}
);
layerId = "A0563635-EBCB-42F0-BA53-80B4033C9352";
paths = (
{
closed = 1;
nodes = (
"22 700 OFFCURVE",
"0 678 OFFCURVE",
"0 650 CURVE SMOOTH",
"0 622 OFFCURVE",
"22 600 OFFCURVE",
"50 600 CURVE SMOOTH",
"78 600 OFFCURVE",
"100 622 OFFCURVE",
"100 650 CURVE SMOOTH",
"100 678 OFFCURVE",
"78 700 OFFCURVE",
"50 700 CURVE SMOOTH"
);
},
{
closed = 1;
nodes = (
"200 700 LINE",
"200 600 LINE",
"800 600 LINE",
"800 700 LINE"
);
},
{
closed = 1;
nodes = (
"22 500 OFFCURVE",
"0 478 OFFCURVE",
"0 450 CURVE SMOOTH",
"0 422 OFFCURVE",
"22 400 OFFCURVE",
"50 400 CURVE SMOOTH",
"78 400 OFFCURVE",
"100 422 OFFCURVE",
"100 450 CURVE SMOOTH",
"100 478 OFFCURVE",
"78 500 OFFCURVE",
"50 500 CURVE SMOOTH"
);
},
{
closed = 1;
nodes = (
"200 500 LINE",
"200 400 LINE",
"800 400 LINE",
"800 500 LINE"
);
},
{
closed = 1;
nodes = (
"22 300 OFFCURVE",
"0 278 OFFCURVE",
"0 250 CURVE SMOOTH",
"0 222 OFFCURVE",
"22 200 OFFCURVE",
"50 200 CURVE SMOOTH",
"78 200 OFFCURVE",
"100 222 OFFCURVE",
"100 250 CURVE SMOOTH",
"100 278 OFFCURVE",
"78 300 OFFCURVE",
"50 300 CURVE SMOOTH"
);
},
{
closed = 1;
nodes = (
"200 300 LINE",
"200 200 LINE",
"800 200 LINE",
"800 300 LINE"
);
},
{
closed = 1;
nodes = (
"22 100 OFFCURVE",
"0 78 OFFCURVE",
"0 50 CURVE SMOOTH",
"0 22 OFFCURVE",
"22 0 OFFCURVE",
"50 0 CURVE SMOOTH",
"78 0 OFFCURVE",
"100 22 OFFCURVE",
"100 50 CURVE SMOOTH",
"100 78 OFFCURVE",
"78 100 OFFCURVE",
"50 100 CURVE SMOOTH"
);
},
{
closed = 1;
nodes = (
"200 100 LINE",
"200 0 LINE",
"800 0 LINE",
"800 100 LINE"
);
}
);
width = 800;
}
);
note = "88";
unicode = E088;
},
{
glyphname = uniE089;
layers = (
{
hints = (
{
horizontal = 1;
place = "{0, 21}";
target = up;
type = BottomGhost;
}
);
layerId = "A0563635-EBCB-42F0-BA53-80B4033C9352";
paths = (
{
closed = 1;
nodes = (
"800 800 LINE",
"0 400 LINE",
"300 300 LINE",
"400 0 LINE"
);
}
);
width = 800;
}
);
note = "89";
unicode = E089;
},
{
glyphname = uniE08A;
layers = (
{
hints = (
{
horizontal = 1;
place = "{0, 400}";
type = Stem;
},
{
horizontal = 1;
place = "{600, 100}";
type = Stem;
},
{
place = "{100, 100}";
type = Stem;
},
{
place = "{400, 100}";
type = Stem;
}
);
layerId = "A0563635-EBCB-42F0-BA53-80B4033C9352";
paths = (
{
closed = 1;
nodes = (
"190 700 OFFCURVE",
"100 610 OFFCURVE",
"100 500 CURVE SMOOTH",
"100 400 LINE",
"0 400 LINE",
"0 0 LINE",
"600 0 LINE",
"600 400 LINE",
"500 400 LINE",
"500 500 LINE SMOOTH",
"500 610 OFFCURVE",
"410 700 OFFCURVE",
"300 700 CURVE SMOOTH"
);
},
{
closed = 1;
nodes = (
"356 600 OFFCURVE",
"400 556 OFFCURVE",
"400 500 CURVE SMOOTH",
"400 400 LINE",
"200 400 LINE",
"200 500 LINE SMOOTH",
"200 556 OFFCURVE",
"244 600 OFFCURVE",
"300 600 CURVE SMOOTH"
);
}
);
width = 600;
}
);
note = "8a";
unicode = E08A;
},
{
glyphname = uniE08B;
layers = (
{
hints = (
{
horizontal = 1;
place = "{0, 400}";
type = Stem;
},
{
horizontal = 1;
place = "{700, 100}";
type = Stem;
},
{
place = "{100, 100}";
type = Stem;
},
{
place = "{400, 100}";
type = Stem;
}
);
layerId = "A0563635-EBCB-42F0-BA53-80B4033C9352";
paths = (
{
closed = 1;
nodes = (
"190 800 OFFCURVE",
"100 710 OFFCURVE",
"100 600 CURVE",
"200 600 LINE",
"200 656 OFFCURVE",
"244 700 OFFCURVE",
"300 700 CURVE SMOOTH",
"356 700 OFFCURVE",
"400 656 OFFCURVE",
"400 600 CURVE SMOOTH",
"400 400 LINE",
"0 400 LINE",
"0 0 LINE",
"600 0 LINE",
"600 400 LINE",
"500 400 LINE",
"500 600 LINE SMOOTH",
"500 710 OFFCURVE",
"410 800 OFFCURVE",
"300 800 CURVE SMOOTH"
);
}
);
width = 600;
}
);
note = "8b";
unicode = E08B;
},
{
glyphname = uniE08C;
layers = (
{
hints = (
{
horizontal = 1;
place = "{100, 100}";
type = Stem;
},
{
horizontal = 1;
place = "{600, 100}";
type = Stem;
},
{
place = "{600, 100}";
type = Stem;
}
);
layerId = "A0563635-EBCB-42F0-BA53-80B4033C9352";
paths = (
{
closed = 1;
nodes = (
"400 700 LINE",
"235 700 OFFCURVE",
"100 565 OFFCURVE",
"100 400 CURVE",
"0 400 LINE",
"150 200 LINE",
"300 400 LINE",
"200 400 LINE",
"200 511 OFFCURVE",
"289 600 OFFCURVE",
"400 600 CURVE"
);
},
{
closed = 1;
nodes = (
"650 600 LINE",
"500 400 LINE",
"600 400 LINE",
"600 289 OFFCURVE",
"511 200 OFFCURVE",
"400 200 CURVE",
"400 100 LINE",
"565 100 OFFCURVE",
"700 235 OFFCURVE",
"700 400 CURVE",
"800 400 LINE"
);
}
);
width = 800;
}
);
note = "8c";
unicode = E08C;
},
{
glyphname = uniE08D;
layers = (
{
hints = (
{
horizontal = 1;
place = "{0, 100}";
type = Stem;
},
{
horizontal = 1;
place = "{700, 100}";
type = Stem;
},
{
place = "{100, 100}";
type = Stem;
},
{
place = "{600, 100}";
type = Stem;
}
);
layerId = "A0563635-EBCB-42F0-BA53-80B4033C9352";
paths = (
{
closed = 1;
nodes = (
"100 800 LINE",
"100 600 LINE",
"200 600 LINE",
"200 700 LINE",
"600 700 LINE",
"600 500 LINE",
"500 500 LINE",
"650 250 LINE",
"800 500 LINE",
"700 500 LINE",
"700 800 LINE"
);
},
{
closed = 1;
nodes = (
"150 550 LINE",
"0 300 LINE",
"100 300 LINE",
"100 0 LINE",
"700 0 LINE",
"700 200 LINE",
"600 200 LINE",
"600 100 LINE",
"200 100 LINE",
"200 300 LINE",
"300 300 LINE"
);
}
);
width = 800;
}
);
note = "8d";
unicode = E08D;
},
{
glyphname = uniE08E;
layers = (
{
hints = (
{
horizontal = 1;
place = "{0, 21}";
target = up;
type = BottomGhost;
},
{
horizontal = 1;
place = "{100, 100}";
type = Stem;
},
{
horizontal = 1;
place = "{500, 100}";
type = Stem;
},
{
place = "{0, 100}";
type = Stem;
},
{
place = "{700, 100}";
type = Stem;
}
);
layerId = "A0563635-EBCB-42F0-BA53-80B4033C9352";
paths = (
{
closed = 1;
nodes = (
"600 700 LINE",
"600 600 LINE",
"100 600 LINE SMOOTH",
"45 600 OFFCURVE",
"0 555 OFFCURVE",
"0 500 CURVE SMOOTH",
"0 400 LINE",
"100 400 LINE",
"100 500 LINE",
"600 500 LINE",
"600 400 LINE",
"800 550 LINE"
);
},
{
closed = 1;
nodes = (
"200 300 LINE",
"0 150 LINE",
"200 0 LINE",
"200 100 LINE",
"700 100 LINE SMOOTH",
"755 100 OFFCURVE",
"800 145 OFFCURVE",
"800 200 CURVE SMOOTH",
"800 300 LINE",
"700 300 LINE",
"700 200 LINE",
"200 200 LINE"
);
}
);
width = 800;
}
);
note = "8e";
unicode = E08E;
},
{
glyphname = uniE08F;
layers = (
{
hints = (
{
horizontal = 1;
place = "{100, 100}";
type = Stem;
},
{
horizontal = 1;
place = "{700, 100}";
type = Stem;
},
{
place = "{0, 100}";
type = Stem;
},
{
place = "{600, 100}";
type = Stem;
}
);
layerId = "A0563635-EBCB-42F0-BA53-80B4033C9352";
paths = (
{
closed = 1;
nodes = (
"157 800 OFFCURVE",
"0 643 OFFCURVE",
"0 450 CURVE SMOOTH",
"0 257 OFFCURVE",
"157 100 OFFCURVE",
"350 100 CURVE SMOOTH",
"409 100 OFFCURVE",
"467 115 OFFCURVE",
"516 141 CURVE",
"519 137 OFFCURVE",
"524 131 OFFCURVE",
"528 128 CURVE",
"628 28 LINE SMOOTH",
"644 12 OFFCURVE",
"677 -2 OFFCURVE",
"700 -2 CURVE SMOOTH",
"756 -2 OFFCURVE",
"802 44 OFFCURVE",
"802 100 CURVE SMOOTH",
"802 123 OFFCURVE",
"788 156 OFFCURVE",
"772 172 CURVE SMOOTH",
"672 272 LINE SMOOTH",
"668 276 OFFCURVE",
"661 281 OFFCURVE",
"656 284 CURVE",
"683 333 OFFCURVE",
"700 390 OFFCURVE",
"700 450 CURVE SMOOTH",
"700 643 OFFCURVE",
"543 800 OFFCURVE",
"350 800 CURVE SMOOTH"
);
},
{
closed = 1;
nodes = (
"211 200 OFFCURVE",
"100 311 OFFCURVE",
"100 450 CURVE SMOOTH",
"100 589 OFFCURVE",
"211 700 OFFCURVE",
"350 700 CURVE SMOOTH",
"489 700 OFFCURVE",
"600 589 OFFCURVE",
"600 450 CURVE SMOOTH",
"600 308 OFFCURVE",
"492 200 OFFCURVE",
"350 200 CURVE SMOOTH"
);
}
);
width = 900;
}
);
note = "8f";
unicode = E08F;
},
{
glyphname = uniE090;
layers = (
{
hints = (
{
horizontal = 1;
place = "{0, 21}";
target = up;
type = BottomGhost;
},
{
horizontal = 1;
place = "{700, 100}";
type = Stem;
},
{
place = "{0, 100}";
type = Stem;
},
{
place = "{500, 100}";
type = Stem;
}
);
layerId = "A0563635-EBCB-42F0-BA53-80B4033C9352";
paths = (
{
closed = 1;
nodes = (
"134 800 OFFCURVE",
"0 666 OFFCURVE",
"0 500 CURVE SMOOTH",
"0 300 OFFCURVE",
"300 0 OFFCURVE",
"300 0 CURVE SMOOTH",
"300 0 OFFCURVE",
"600 300 OFFCURVE",
"600 500 CURVE SMOOTH",
"600 666 OFFCURVE",
"466 800 OFFCURVE",
"300 800 CURVE SMOOTH"
);
},
{
closed = 1;
nodes = (
"410 700 OFFCURVE",
"500 610 OFFCURVE",
"500 500 CURVE SMOOTH",
"500 390 OFFCURVE",
"410 300 OFFCURVE",
"300 300 CURVE SMOOTH",
"190 300 OFFCURVE",
"100 390 OFFCURVE",
"100 500 CURVE SMOOTH",
"100 610 OFFCURVE",
"190 700 OFFCURVE",
"300 700 CURVE SMOOTH"
);
}
);
width = 600;
}
);
note = "90";
unicode = E090;
},
{
glyphname = uniE091;
layers = (
{
hints = (
{
horizontal = 1;
place = "{0, 100}";
type = Stem;
},
{
horizontal = 1;
place = "{200, 100}";
type = Stem;
},
{
horizontal = 1;
place = "{500, 100}";
type = Stem;
},
{
horizontal = 1;
place = "{700, 100}";
type = Stem;
},
{
place = "{200, 100}";
type = Stem;
},
{
place = "{400, 100}";
type = Stem;
}
);
layerId = "A0563635-EBCB-42F0-BA53-80B4033C9352";
paths = (
{
closed = 1;
nodes = (
"0 800 LINE",
"0 0 LINE",
"800 0 LINE",
"800 238 LINE",
"801 241 OFFCURVE",
"801 245 OFFCURVE",
"801 248 CURVE SMOOTH",
"801 251 OFFCURVE",
"801 256 OFFCURVE",
"800 259 CURVE",
"800 800 LINE"
);
},
{
closed = 1;
nodes = (
"495 222 OFFCURVE",
"517 200 OFFCURVE",
"545 200 CURVE SMOOTH",
"550 200 LINE",
"700 200 LINE",
"700 100 LINE",
"100 100 LINE",
"100 700 LINE",
"700 700 LINE",
"700 300 LINE",
"550 300 LINE",
"545 300 LINE SMOOTH",
"517 300 OFFCURVE",
"495 276 OFFCURVE",
"495 250 CURVE SMOOTH"
);
},
{
closed = 1;
nodes = (
"267 600 OFFCURVE",
"200 533 OFFCURVE",
"200 450 CURVE SMOOTH",
"200 350 OFFCURVE",
"350 200 OFFCURVE",
"350 200 CURVE SMOOTH",
"350 200 OFFCURVE",
"500 350 OFFCURVE",
"500 450 CURVE SMOOTH",
"500 533 OFFCURVE",
"433 600 OFFCURVE",
"350 600 CURVE SMOOTH"
);
},
{
closed = 1;
nodes = (
"378 500 OFFCURVE",
"400 478 OFFCURVE",
"400 450 CURVE SMOOTH",
"400 422 OFFCURVE",
"378 400 OFFCURVE",
"350 400 CURVE SMOOTH",
"322 400 OFFCURVE",
"300 422 OFFCURVE",
"300 450 CURVE SMOOTH",
"300 478 OFFCURVE",
"322 500 OFFCURVE",
"350 500 CURVE SMOOTH"
);
}
);
width = 900;
}
);
note = "91";
unicode = E091;
},
{
glyphname = uniE092;
layers = (
{
hints = (
{
place = "{0, 200}";
type = Stem;
},
{
place = "{400, 200}";
type = Stem;
}
);
layerId = "A0563635-EBCB-42F0-BA53-80B4033C9352";
paths = (
{
closed = 1;
nodes = (
"0 700 LINE",
"0 100 LINE",
"200 100 LINE",
"200 700 LINE"
);
},
{
closed = 1;
nodes = (
"400 700 LINE",
"400 100 LINE",
"600 100 LINE",
"600 700 LINE"
);
}
);
width = 600;
}
);
note = "92";
unicode = E092;
},
{
glyphname = uniE093;
layers = (
{
layerId = "A0563635-EBCB-42F0-BA53-80B4033C9352";
paths = (
{
closed = 1;
nodes = (
"0 700 LINE",
"0 100 LINE",
"600 400 LINE"
);
}
);
width = 600;
}
);
note = "93";
unicode = E093;
},
{
glyphname = uniE094;
layers = (
{
hints = (
{
horizontal = 1;
place = "{100, 600}";
type = Stem;
},
{
place = "{0, 600}";
type = Stem;
}
);
layerId = "A0563635-EBCB-42F0-BA53-80B4033C9352";
paths = (
{
closed = 1;
nodes = (
"134 700 OFFCURVE",
"0 566 OFFCURVE",
"0 400 CURVE SMOOTH",
"0 234 OFFCURVE",
"134 100 OFFCURVE",
"300 100 CURVE SMOOTH",
"466 100 OFFCURVE",
"600 234 OFFCURVE",
"600 400 CURVE SMOOTH",
"600 566 OFFCURVE",
"466 700 OFFCURVE",
"300 700 CURVE SMOOTH"
);
}
);
width = 600;
}
);
note = "94";
unicode = E094;
},
{
glyphname = uniE095;
layers = (
{
layerId = "A0563635-EBCB-42F0-BA53-80B4033C9352";
paths = (
{
closed = 1;
nodes = (
"400 700 LINE",
"0 400 LINE",
"400 100 LINE"
);
},
{
closed = 1;
nodes = (
"400 400 LINE",
"800 100 LINE",
"800 700 LINE"
);
}
);
width = 800;
}
);
note = "95";
unicode = E095;
},
{
glyphname = uniE096;
layers = (
{
layerId = "A0563635-EBCB-42F0-BA53-80B4033C9352";
paths = (
{
closed = 1;
nodes = (
"0 700 LINE",
"0 100 LINE",
"400 400 LINE"
);
},
{
closed = 1;
nodes = (
"400 100 LINE",
"800 400 LINE",
"400 700 LINE"
);
}
);
width = 800;
}
);
note = "96";
unicode = E096;
},
{
glyphname = uniE097;
layers = (
{
hints = (
{
place = "{0, 200}";
type = Stem;
}
);
layerId = "A0563635-EBCB-42F0-BA53-80B4033C9352";
paths = (
{
closed = 1;
nodes = (
"0 700 LINE",
"0 100 LINE",
"200 100 LINE",
"200 700 LINE"
);
},
{
closed = 1;
nodes = (
"200 400 LINE",
"700 100 LINE",
"700 700 LINE"
);
}
);
width = 800;
}
);
note = "97";
unicode = E097;
},
{
glyphname = uniE098;
layers = (
{
hints = (
{
place = "{500, 200}";
type = Stem;
}
);
layerId = "A0563635-EBCB-42F0-BA53-80B4033C9352";
paths = (
{
closed = 1;
nodes = (
"0 700 LINE",
"0 100 LINE",
"500 400 LINE"
);
},
{
closed = 1;
nodes = (
"500 100 LINE",
"700 100 LINE",
"700 700 LINE",
"500 700 LINE"
);
}
);
width = 800;
}
);
note = "98";
unicode = E098;
},
{
glyphname = uniE099;
layers = (
{
hints = (
{
horizontal = 1;
place = "{100, 600}";
type = Stem;
},
{
place = "{0, 600}";
type = Stem;
}
);
layerId = "A0563635-EBCB-42F0-BA53-80B4033C9352";
paths = (
{
closed = 1;
nodes = (
"0 700 LINE",
"0 100 LINE",
"600 100 LINE",
"600 700 LINE"
);
}
);
width = 600;
}
);
note = "99";
unicode = E099;
},
{
glyphname = uniE09A;
layers = (
{
hints = (
{
horizontal = 1;
place = "{0, 21}";
target = up;
type = BottomGhost;
},
{
horizontal = 1;
place = "{200, 400}";
type = Stem;
},
{
place = "{200, 400}";
type = Stem;
}
);
layerId = "A0563635-EBCB-42F0-BA53-80B4033C9352";
paths = (
{
closed = 1;
nodes = (
"200 800 LINE",
"200 600 LINE",
"0 600 LINE",
"0 200 LINE",
"200 200 LINE",
"200 0 LINE",
"600 0 LINE",
"600 200 LINE",
"800 200 LINE",
"800 600 LINE",
"600 600 LINE",
"600 800 LINE"
);
}
);
width = 800;
}
);
note = "9a";
unicode = E09A;
},
{
glyphname = uniE09B;
layers = (
{
hints = (
{
horizontal = 1;
place = "{3, 100}";
type = Stem;
},
{
horizontal = 1;
place = "{303, 100}";
type = Stem;
},
{
horizontal = 1;
place = "{600, 100}";
type = Stem;
}
);
layerId = "A0563635-EBCB-42F0-BA53-80B4033C9352";
paths = (
{
closed = 1;
nodes = (
"0 700 LINE",
"0 600 LINE",
"800 600 LINE",
"800 700 LINE"
);
},
{
closed = 1;
nodes = (
"0 403 LINE",
"0 303 LINE",
"800 303 LINE",
"800 403 LINE"
);
},
{
closed = 1;
nodes = (
"0 103 LINE",
"0 3 LINE",
"800 3 LINE",
"800 103 LINE"
);
}
);
width = 800;
}
);
note = "9b";
unicode = E09B;
},
{
glyphname = uniE09C;
layers = (
{
hints = (
{
horizontal = 1;
place = "{-100, 100}";
type = Stem;
},
{
horizontal = 1;
place = "{106, 94}";
type = Stem;
},
{
horizontal = 1;
place = "{300, 404}";
type = Stem;
},
{
place = "{0, 100}";
type = Stem;
},
{
place = "{200, 200}";
type = Stem;
},
{
place = "{500, 100}";
type = Stem;
},
{
place = "{250, 100}";
type = Stem;
}
);
layerId = "A0563635-EBCB-42F0-BA53-80B4033C9352";
paths = (
{
closed = 1;
nodes = (
"235 690 OFFCURVE",
"200 646 OFFCURVE",
"200 602 CURVE SMOOTH",
"200 600 LINE",
"200 400 LINE SMOOTH",
"200 345 OFFCURVE",
"245 300 OFFCURVE",
"300 300 CURVE SMOOTH",
"355 300 OFFCURVE",
"400 345 OFFCURVE",
"400 400 CURVE SMOOTH",
"400 600 LINE",
"400 604 LINE SMOOTH",
"400 659 OFFCURVE",
"355 704 OFFCURVE",
"300 704 CURVE SMOOTH",
"291 704 OFFCURVE",
"285 702 OFFCURVE",
"278 700 CURVE"
);
},
{
closed = 1;
nodes = (
"34 500 LINE",
"15 494 OFFCURVE",
"0 472 OFFCURVE",
"0 452 CURVE SMOOTH",
"0 450 LINE",
"0 400 LINE SMOOTH",
"0 252 OFFCURVE",
"109 130 OFFCURVE",
"250 106 CURVE",
"250 0 LINE",
"200 0 LINE SMOOTH",
"145 0 OFFCURVE",
"100 -45 OFFCURVE",
"100 -100 CURVE",
"500 -100 LINE",
"500 -45 OFFCURVE",
"455 0 OFFCURVE",
"400 0 CURVE SMOOTH",
"350 0 LINE",
"350 106 LINE",
"491 130 OFFCURVE",
"600 252 OFFCURVE",
"600 400 CURVE SMOOTH",
"600 450 LINE SMOOTH",
"600 478 OFFCURVE",
"578 500 OFFCURVE",
"550 500 CURVE SMOOTH",
"522 500 OFFCURVE",
"500 478 OFFCURVE",
"500 450 CURVE SMOOTH",
"500 400 LINE SMOOTH",
"500 289 OFFCURVE",
"411 200 OFFCURVE",
"300 200 CURVE SMOOTH",
"189 200 OFFCURVE",
"100 289 OFFCURVE",
"100 400 CURVE SMOOTH",
"100 450 LINE",
"100 451 LINE SMOOTH",
"100 479 OFFCURVE",
"78 501 OFFCURVE",
"50 501 CURVE SMOOTH",
"47 501 OFFCURVE",
"44 500 OFFCURVE",
"41 500 CURVE SMOOTH",
"38 500 LINE"
);
}
);
width = 600;
}
);
note = "9c";
unicode = E09C;
},
{
glyphname = uniE09D;
layers = (
{
hints = (
{
horizontal = 1;
place = "{300, 200}";
type = Stem;
}
);
layerId = "A0563635-EBCB-42F0-BA53-80B4033C9352";
paths = (
{
closed = 1;
nodes = (
"0 500 LINE",
"0 300 LINE",
"800 300 LINE",
"800 500 LINE"
);
}
);
width = 800;
}
);
note = "9d";
unicode = E09D;
},
{
glyphname = uniE09E;
layers = (
{
hints = (
{
horizontal = 1;
place = "{-100, 100}";
type = Stem;
},
{
horizontal = 1;
place = "{100, 100}";
type = Stem;
},
{
horizontal = 1;
place = "{600, 100}";
type = Stem;
},
{
place = "{0, 100}";
type = Stem;
},
{
place = "{700, 100}";
type = Stem;
}
);
layerId = "A0563635-EBCB-42F0-BA53-80B4033C9352";
paths = (
{
closed = 1;
nodes = (
"34 700 LINE",
"15 694 OFFCURVE",
"0 672 OFFCURVE",
"0 652 CURVE SMOOTH",
"0 650 LINE",
"0 150 LINE SMOOTH",
"0 122 OFFCURVE",
"22 100 OFFCURVE",
"50 100 CURVE SMOOTH",
"300 100 LINE",
"300 0 LINE",
"200 0 LINE SMOOTH",
"145 0 OFFCURVE",
"100 -45 OFFCURVE",
"100 -100 CURVE",
"700 -100 LINE",
"700 -45 OFFCURVE",
"655 0 OFFCURVE",
"600 0 CURVE SMOOTH",
"500 0 LINE",
"500 100 LINE",
"750 100 LINE SMOOTH",
"778 100 OFFCURVE",
"800 122 OFFCURVE",
"800 150 CURVE SMOOTH",
"800 650 LINE SMOOTH",
"800 678 OFFCURVE",
"778 700 OFFCURVE",
"750 700 CURVE SMOOTH",
"50 700 LINE",
"45 700 LINE",
"41 700 LINE",
"38 700 LINE"
);
},
{
closed = 1;
nodes = (
"100 600 LINE",
"700 600 LINE",
"700 200 LINE",
"100 200 LINE"
);
}
);
width = 800;
}
);
note = "9e";
unicode = E09E;
},
{
glyphname = uniE09F;
layers = (
{
hints = (
{
horizontal = 1;
place = "{-78, 250}";
type = Stem;
},
{
place = "{0, 250}";
type = Stem;
}
);
layerId = "A0563635-EBCB-42F0-BA53-80B4033C9352";
paths = (
{
closed = 1;
nodes = (
"114 647 OFFCURVE",
"0 498 OFFCURVE",
"0 322 CURVE SMOOTH",
"0 101 OFFCURVE",
"179 -78 OFFCURVE",
"400 -78 CURVE SMOOTH",
"576 -78 OFFCURVE",
"725 36 OFFCURVE",
"778 194 CURVE",
"738 180 OFFCURVE",
"695 172 OFFCURVE",
"650 172 CURVE SMOOTH",
"429 172 OFFCURVE",
"250 351 OFFCURVE",
"250 572 CURVE SMOOTH",
"250 617 OFFCURVE",
"258 660 OFFCURVE",
"272 700 CURVE"
);
}
);
width = 800;
}
);
note = "9f";
unicode = E09F;
},
{
glyphname = uniE0A0;
layers = (
{
hints = (
{
horizontal = 1;
place = "{0, 21}";
target = up;
type = BottomGhost;
},
{
horizontal = 1;
place = "{300, 100}";
type = Stem;
}
);
layerId = "A0563635-EBCB-42F0-BA53-80B4033C9352";
paths = (
{
closed = 1;
nodes = (
"350 700 LINE",
"200 550 LINE",
"300 550 LINE",
"300 400 LINE",
"150 400 LINE",
"150 500 LINE",
"0 350 LINE",
"150 200 LINE",
"150 300 LINE",
"300 300 LINE",
"300 150 LINE",
"200 150 LINE",
"350 0 LINE",
"500 150 LINE",
"400 150 LINE",
"400 300 LINE",
"550 300 LINE",
"550 200 LINE",
"700 350 LINE",
"550 500 LINE",
"550 400 LINE",
"400 400 LINE",
"400 550 LINE",
"500 550 LINE"
);
}
);
width = 800;
}
);
note = a0;
unicode = E0A0;
},
{
glyphname = uniE0A1;
layers = (
{
hints = (
{
horizontal = 1;
place = "{0, 300}";
type = Stem;
},
{
horizontal = 1;
place = "{597, 203}";
type = Stem;
},
{
place = "{200, 100}";
type = Stem;
},
{
place = "{700, 100}";
type = Stem;
},
{
place = "{0, 300}";
type = Stem;
},
{
horizontal = 1;
place = "{100, 300}";
type = Stem;
},
{
place = "{500, 300}";
type = Stem;
}
);
layerId = "A0563635-EBCB-42F0-BA53-80B4033C9352";
paths = (
{
closed = 1;
nodes = (
"800 800 LINE",
"300 800 OFFCURVE",
"200 700 OFFCURVE",
"200 700 CURVE",
"200 291 LINE",
"185 296 OFFCURVE",
"167 300 OFFCURVE",
"150 300 CURVE SMOOTH",
"67 300 OFFCURVE",
"0 233 OFFCURVE",
"0 150 CURVE SMOOTH",
"0 67 OFFCURVE",
"67 0 OFFCURVE",
"150 0 CURVE SMOOTH",
"233 0 OFFCURVE",
"300 67 OFFCURVE",
"300 150 CURVE SMOOTH",
"300 547 LINE",
"373 570 OFFCURVE",
"499 591 OFFCURVE",
"700 597 CURVE",
"700 391 LINE",
"685 396 OFFCURVE",
"667 400 OFFCURVE",
"650 400 CURVE SMOOTH",
"567 400 OFFCURVE",
"500 333 OFFCURVE",
"500 250 CURVE SMOOTH",
"500 167 OFFCURVE",
"567 100 OFFCURVE",
"650 100 CURVE SMOOTH",
"733 100 OFFCURVE",
"800 167 OFFCURVE",
"800 250 CURVE SMOOTH"
);
}
);
width = 800;
}
);
note = a1;
unicode = E0A1;
},
{
glyphname = uniE0A2;
layers = (
{
layerId = "A0563635-EBCB-42F0-BA53-80B4033C9352";
paths = (
{
closed = 1;
nodes = (
"448 700 OFFCURVE",
"397 680 OFFCURVE",
"358 641 CURVE SMOOTH",
"80 369 LINE SMOOTH",
"-27 262 OFFCURVE",
"-27 88 OFFCURVE",
"80 -19 CURVE SMOOTH",
"187 -126 OFFCURVE",
"361 -126 OFFCURVE",
"468 -19 CURVE SMOOTH",
"593 106 LINE",
"524 175 LINE",
"408 62 LINE",
"399 50 LINE",
"330 -19 OFFCURVE",
"218 -19 OFFCURVE",
"149 50 CURVE SMOOTH",
"81 118 OFFCURVE",
"83 228 OFFCURVE",
"149 297 CURVE SMOOTH",
"427 572 LINE SMOOTH",
"467 612 OFFCURVE",
"532 611 OFFCURVE",
"571 572 CURVE SMOOTH",
"610 533 OFFCURVE",
"608 471 OFFCURVE",
"571 431 CURVE",
"321 184 LINE SMOOTH",
"311 174 OFFCURVE",
"293 174 OFFCURVE",
"283 184 CURVE SMOOTH",
"273 194 OFFCURVE",
"273 212 OFFCURVE",
"283 222 CURVE",
"290 225 LINE",
"380 319 LINE",
"311 388 LINE",
"215 291 LINE SMOOTH",
"167 243 OFFCURVE",
"167 164 OFFCURVE",
"215 116 CURVE SMOOTH",
"263 68 OFFCURVE",
"342 68 OFFCURVE",
"390 116 CURVE SMOOTH",
"640 360 LINE SMOOTH",
"718 438 OFFCURVE",
"718 563 OFFCURVE",
"640 641 CURVE SMOOTH",
"601 680 OFFCURVE",
"550 700 OFFCURVE",
"499 700 CURVE SMOOTH"
);
}
);
width = 700;
}
);
note = a2;
unicode = E0A2;
},
{
glyphname = uniE0A3;
layers = (
{
hints = (
{
horizontal = 1;
place = "{0, 21}";
target = up;
type = BottomGhost;
}
);
layerId = "A0563635-EBCB-42F0-BA53-80B4033C9352";
paths = (
{
closed = 1;
nodes = (
"600 800 LINE",
"500 700 LINE",
"700 500 LINE",
"800 600 LINE"
);
},
{
closed = 1;
nodes = (
"400 600 LINE",
"0 200 LINE",
"0 0 LINE",
"200 0 LINE",
"600 400 LINE"
);
}
);
width = 800;
}
);
note = a3;
unicode = E0A3;
},
{
glyphname = uniE0A4;
layers = (
{
hints = (
{
horizontal = 1;
place = "{0, 200}";
type = Stem;
},
{
horizontal = 1;
place = "{400, 400}";
type = Stem;
},
{
place = "{100, 300}";
type = Stem;
},
{
place = "{500, 200}";
type = Stem;
},
{
horizontal = 1;
place = "{300, 400}";
type = Stem;
},
{
place = "{600, 200}";
type = Stem;
}
);
layerId = "A0563635-EBCB-42F0-BA53-80B4033C9352";
paths = (
{
closed = 1;
nodes = (
"499 800 OFFCURVE",
"455 764 OFFCURVE",
"428 712 CURVE",
"473 658 OFFCURVE",
"500 584 OFFCURVE",
"500 500 CURVE SMOOTH",
"500 471 OFFCURVE",
"497 445 OFFCURVE",
"491 419 CURVE",
"510 408 OFFCURVE",
"528 400 OFFCURVE",
"550 400 CURVE SMOOTH",
"633 400 OFFCURVE",
"700 490 OFFCURVE",
"700 600 CURVE SMOOTH",
"700 710 OFFCURVE",
"633 800 OFFCURVE",
"550 800 CURVE SMOOTH"
);
},
{
closed = 1;
nodes = (
"167 700 OFFCURVE",
"100 610 OFFCURVE",
"100 500 CURVE SMOOTH",
"100 390 OFFCURVE",
"167 300 OFFCURVE",
"250 300 CURVE SMOOTH",
"333 300 OFFCURVE",
"400 390 OFFCURVE",
"400 500 CURVE SMOOTH",
"400 610 OFFCURVE",
"333 700 OFFCURVE",
"250 700 CURVE SMOOTH"
);
},
{
closed = 1;
nodes = (
"682 333 OFFCURVE",
"622 302 OFFCURVE",
"556 300 CURVE",
"583 262 OFFCURVE",
"600 216 OFFCURVE",
"600 166 CURVE SMOOTH",
"600 100 LINE",
"800 100 LINE",
"800 266 LINE SMOOTH",
"800 318 OFFCURVE",
"769 362 OFFCURVE",
"725 384 CURVE"
);
},
{
closed = 1;
nodes = (
"31 262 OFFCURVE",
"0 218 OFFCURVE",
"0 166 CURVE SMOOTH",
"0 0 LINE",
"500 0 LINE",
"500 166 LINE SMOOTH",
"500 218 OFFCURVE",
"469 262 OFFCURVE",
"425 284 CURVE",
"380 231 OFFCURVE",
"319 200 OFFCURVE",
"250 200 CURVE SMOOTH",
"181 200 OFFCURVE",
"120 231 OFFCURVE",
"75 284 CURVE"
);
}
);
width = 800;
}
);
note = a4;
unicode = E0A4;
},
{
glyphname = uniE0A5;
layers = (
{
hints = (
{
horizontal = 1;
place = "{0, 200}";
type = Stem;
},
{
horizontal = 1;
place = "{300, 500}";
type = Stem;
},
{
place = "{200, 400}";
type = Stem;
}
);
layerId = "A0563635-EBCB-42F0-BA53-80B4033C9352";
paths = (
{
closed = 1;
nodes = (
"290 800 OFFCURVE",
"200 688 OFFCURVE",
"200 550 CURVE SMOOTH",
"200 412 OFFCURVE",
"290 300 OFFCURVE",
"400 300 CURVE SMOOTH",
"510 300 OFFCURVE",
"600 412 OFFCURVE",
"600 550 CURVE SMOOTH",
"600 688 OFFCURVE",
"510 800 OFFCURVE",
"400 800 CURVE SMOOTH"
);
},
{
closed = 1;
nodes = (
"85 295 OFFCURVE",
"0 208 OFFCURVE",
"0 100 CURVE SMOOTH",
"0 0 LINE",
"800 0 LINE",
"800 100 LINE SMOOTH",
"800 208 OFFCURVE",
"715 295 OFFCURVE",
"609 300 CURVE",
"555 239 OFFCURVE",
"481 200 OFFCURVE",
"400 200 CURVE SMOOTH",
"319 200 OFFCURVE",
"245 239 OFFCURVE",
"191 300 CURVE"
);
}
);
width = 800;
}
);
note = a5;
unicode = E0A5;
},
{
glyphname = uniE0A6;
layers = (
{
hints = (
{
horizontal = 1;
place = "{0, 50}";
type = Stem;
},
{
horizontal = 1;
place = "{150, 50}";
type = Stem;
},
{
horizontal = 1;
place = "{700, 100}";
type = Stem;
},
{
place = "{0, 100}";
type = Stem;
},
{
place = "{400, 100}";
type = Stem;
},
{
place = "{0, 200}";
type = Stem;
},
{
place = "{300, 200}";
type = Stem;
}
);
layerId = "A0563635-EBCB-42F0-BA53-80B4033C9352";
paths = (
{
closed = 1;
nodes = (
"19 800 LINE SMOOTH",
"8 800 OFFCURVE",
"0 792 OFFCURVE",
"0 781 CURVE SMOOTH",
"0 19 LINE SMOOTH",
"0 8 OFFCURVE",
"8 0 OFFCURVE",
"19 0 CURVE SMOOTH",
"481 0 LINE SMOOTH",
"492 0 OFFCURVE",
"500 8 OFFCURVE",
"500 19 CURVE SMOOTH",
"500 781 LINE SMOOTH",
"500 792 OFFCURVE",
"492 800 OFFCURVE",
"481 800 CURVE SMOOTH"
);
},
{
closed = 1;
nodes = (
"100 700 LINE",
"400 700 LINE",
"400 200 LINE",
"100 200 LINE"
);
},
{
closed = 1;
nodes = (
"278 150 OFFCURVE",
"300 128 OFFCURVE",
"300 100 CURVE SMOOTH",
"300 72 OFFCURVE",
"278 50 OFFCURVE",
"250 50 CURVE SMOOTH",
"222 50 OFFCURVE",
"200 72 OFFCURVE",
"200 100 CURVE SMOOTH",
"200 128 OFFCURVE",
"222 150 OFFCURVE",
"250 150 CURVE SMOOTH"
);
}
);
width = 600;
}
);
note = a6;
unicode = E0A6;
},
{
glyphname = uniE0A7;
layers = (
{
hints = (
{
horizontal = 1;
place = "{0, 21}";
target = up;
type = BottomGhost;
}
);
layerId = "A0563635-EBCB-42F0-BA53-80B4033C9352";
paths = (
{
closed = 1;
nodes = (
"253 800 OFFCURVE",
"166 761 OFFCURVE",
"103 697 CURVE",
"400 400 LINE",
"400 797 LINE",
"384 799 OFFCURVE",
"367 800 OFFCURVE",
"350 800 CURVE SMOOTH"
);
},
{
closed = 1;
nodes = (
"500 353 LINE",
"228 81 LINE",
"289 31 OFFCURVE",
"365 0 OFFCURVE",
"450 0 CURVE SMOOTH",
"643 0 OFFCURVE",
"800 157 OFFCURVE",
"800 350 CURVE SMOOTH",
"800 526 OFFCURVE",
"669 669 OFFCURVE",
"500 694 CURVE"
);
},
{
closed = 1;
nodes = (
"91 562 LINE",
"35 508 OFFCURVE",
"0 434 OFFCURVE",
"0 350 CURVE SMOOTH",
"0 254 OFFCURVE",
"46 171 OFFCURVE",
"116 116 CURVE",
"328 328 LINE"
);
}
);
width = 800;
}
);
note = a7;
unicode = E0A7;
},
{
glyphname = uniE0A8;
layers = (
{
hints = (
{
horizontal = 1;
place = "{300, 100}";
type = Stem;
},
{
horizontal = 1;
place = "{600, 100}";
type = Stem;
},
{
place = "{300, 100}";
type = Stem;
}
);
layerId = "A0563635-EBCB-42F0-BA53-80B4033C9352";
paths = (
{
closed = 1;
nodes = (
"92 622 OFFCURVE",
"114 599 OFFCURVE",
"142 599 CURVE SMOOTH",
"144 599 OFFCURVE",
"148 600 OFFCURVE",
"150 600 CURVE SMOOTH",
"200 600 LINE",
"200 400 LINE",
"100 400 LINE SMOOTH",
"45 400 OFFCURVE",
"0 355 OFFCURVE",
"0 300 CURVE",
"300 300 LINE",
"300 0 LINE",
"344 -100 LINE",
"400 0 LINE",
"400 300 LINE",
"700 300 LINE",
"700 355 OFFCURVE",
"655 400 OFFCURVE",
"600 400 CURVE SMOOTH",
"500 400 LINE",
"500 600 LINE",
"550 600 LINE SMOOTH",
"578 600 OFFCURVE",
"600 622 OFFCURVE",
"600 650 CURVE SMOOTH",
"600 678 OFFCURVE",
"578 700 OFFCURVE",
"550 700 CURVE SMOOTH",
"150 700 LINE",
"145 700 LINE",
"141 700 LINE",
"138 700 LINE SMOOTH",
"112 700 OFFCURVE",
"92 673 OFFCURVE",
"92 650 CURVE SMOOTH"
);
}
);
width = 800;
}
);
note = a8;
unicode = E0A8;
},
{
glyphname = uniE0A9;
layers = (
{
hints = (
{
horizontal = 1;
place = "{0, 800}";
type = Stem;
},
{
place = "{0, 300}";
type = Stem;
}
);
layerId = "A0563635-EBCB-42F0-BA53-80B4033C9352";
paths = (
{
closed = 1;
nodes = (
"179 800 OFFCURVE",
"0 621 OFFCURVE",
"0 400 CURVE SMOOTH",
"0 179 OFFCURVE",
"179 0 OFFCURVE",
"400 0 CURVE SMOOTH",
"621 0 OFFCURVE",
"800 179 OFFCURVE",
"800 400 CURVE SMOOTH",
"800 621 OFFCURVE",
"621 800 OFFCURVE",
"400 800 CURVE SMOOTH"
);
},
{
closed = 1;
nodes = (
"300 600 LINE",
"600 400 LINE",
"300 200 LINE"
);
}
);
width = 800;
}
);
note = a9;
unicode = E0A9;
},
{
glyphname = uniE0AB;
layers = (
{
hints = (
{
horizontal = 1;
place = "{0, 100}";
type = Stem;
},
{
place = "{0, 100}";
type = Stem;
},
{
place = "{300, 100}";
type = Stem;
},
{
place = "{600, 100}";
type = Stem;
}
);
layerId = "A0563635-EBCB-42F0-BA53-80B4033C9352";
paths = (
{
closed = 1;
nodes = (
"300 800 LINE",
"300 400 LINE",
"400 400 LINE",
"400 800 LINE"
);
},
{
closed = 1;
nodes = (
"172 656 LINE",
"134 625 LINE SMOOTH",
"53 561 OFFCURVE",
"0 461 OFFCURVE",
"0 350 CURVE SMOOTH",
"0 157 OFFCURVE",
"157 0 OFFCURVE",
"350 0 CURVE SMOOTH",
"543 0 OFFCURVE",
"700 157 OFFCURVE",
"700 350 CURVE SMOOTH",
"700 461 OFFCURVE",
"648 561 OFFCURVE",
"566 625 CURVE SMOOTH",
"528 656 LINE",
"466 578 LINE",
"503 547 LINE SMOOTH",
"561 501 OFFCURVE",
"600 430 OFFCURVE",
"600 350 CURVE SMOOTH",
"600 211 OFFCURVE",
"489 100 OFFCURVE",
"350 100 CURVE SMOOTH",
"211 100 OFFCURVE",
"100 211 OFFCURVE",
"100 350 CURVE SMOOTH",
"100 430 OFFCURVE",
"136 501 OFFCURVE",
"194 547 CURVE SMOOTH",
"234 578 LINE"
);
}
);
width = 800;
}
);
note = ab;
unicode = E0AB;
},
{
glyphname = uniE0AC;
layers = (
{
hints = (
{
horizontal = 1;
place = "{0, 300}";
type = Stem;
},
{
horizontal = 1;
place = "{400, 100}";
type = Stem;
},
{
horizontal = 1;
place = "{600, 200}";
type = Stem;
},
{
place = "{0, 100}";
type = Stem;
},
{
place = "{200, 400}";
type = Stem;
},
{
place = "{700, 100}";
type = Stem;
}
);
layerId = "A0563635-EBCB-42F0-BA53-80B4033C9352";
paths = (
{
closed = 1;
nodes = (
"200 800 LINE",
"200 600 LINE",
"600 600 LINE",
"600 800 LINE"
);
},
{
closed = 1;
nodes = (
"9 500 LINE SMOOTH",
"3 500 OFFCURVE",
"0 497 OFFCURVE",
"0 491 CURVE SMOOTH",
"0 209 LINE SMOOTH",
"0 203 OFFCURVE",
"3 200 OFFCURVE",
"9 200 CURVE SMOOTH",
"100 200 LINE",
"100 400 LINE",
"700 400 LINE",
"700 200 LINE",
"791 200 LINE SMOOTH",
"797 200 OFFCURVE",
"800 203 OFFCURVE",
"800 209 CURVE SMOOTH",
"800 491 LINE SMOOTH",
"800 497 OFFCURVE",
"797 500 OFFCURVE",
"791 500 CURVE SMOOTH"
);
},
{
closed = 1;
nodes = (
"200 300 LINE",
"200 0 LINE",
"600 0 LINE",
"600 300 LINE"
);
}
);
width = 800;
}
);
note = ac;
unicode = E0AC;
},
{
glyphname = uniE0AD;
layers = (
{
hints = (
{
horizontal = 1;
place = "{0, 21}";
target = up;
type = BottomGhost;
},
{
horizontal = 1;
place = "{100, 100}";
type = Stem;
},
{
horizontal = 1;
place = "{300, 100}";
type = Stem;
},
{
horizontal = 1;
place = "{500, 100}";
type = Stem;
},
{
place = "{0, 100}";
type = Stem;
},
{
place = "{700, 100}";
type = Stem;
}
);
layerId = "A0563635-EBCB-42F0-BA53-80B4033C9352";
paths = (
{
closed = 1;
nodes = (
"0 700 LINE",
"0 0 LINE",
"100 0 LINE",
"100 700 LINE"
);
},
{
closed = 1;
nodes = (
"700 700 LINE",
"700 0 LINE",
"800 0 LINE",
"800 700 LINE"
);
},
{
closed = 1;
nodes = (
"200 600 LINE",
"200 500 LINE",
"400 500 LINE",
"400 600 LINE"
);
},
{
closed = 1;
nodes = (
"300 400 LINE",
"300 300 LINE",
"500 300 LINE",
"500 400 LINE"
);
},
{
closed = 1;
nodes = (
"400 200 LINE",
"400 100 LINE",
"600 100 LINE",
"600 200 LINE"
);
}
);
width = 800;
}
);
note = ad;
unicode = E0AD;
},
{
glyphname = uniE0AF;
layers = (
{
hints = (
{
horizontal = 1;
place = "{100, 600}";
type = Stem;
},
{
place = "{200, 200}";
type = Stem;
},
{
place = "{0, 200}";
type = Stem;
},
{
place = "{400, 200}";
type = Stem;
},
{
horizontal = 1;
place = "{100, 200}";
type = Stem;
}
);
layerId = "A0563635-EBCB-42F0-BA53-80B4033C9352";
paths = (
{
closed = 1;
nodes = (
"200 572 OFFCURVE",
"218 552 OFFCURVE",
"228 528 CURVE",
"231 522 OFFCURVE",
"231 512 OFFCURVE",
"231 500 CURVE",
"0 500 LINE",
"0 -100 LINE",
"231 -100 LINE",
"231 -88 OFFCURVE",
"231 -78 OFFCURVE",
"228 -72 CURVE",
"218 -48 OFFCURVE",
"200 -28 OFFCURVE",
"200 0 CURVE SMOOTH",
"200 57 OFFCURVE",
"243 100 OFFCURVE",
"300 100 CURVE SMOOTH",
"357 100 OFFCURVE",
"400 57 OFFCURVE",
"400 0 CURVE SMOOTH",
"400 -28 OFFCURVE",
"382 -48 OFFCURVE",
"372 -72 CURVE",
"369 -78 OFFCURVE",
"369 -88 OFFCURVE",
"369 -100 CURVE",
"600 -100 LINE",
"600 131 LINE",
"612 131 OFFCURVE",
"622 131 OFFCURVE",
"628 128 CURVE",
"652 118 OFFCURVE",
"672 100 OFFCURVE",
"700 100 CURVE SMOOTH",
"757 100 OFFCURVE",
"800 143 OFFCURVE",
"800 200 CURVE SMOOTH",
"800 257 OFFCURVE",
"757 300 OFFCURVE",
"700 300 CURVE SMOOTH",
"672 300 OFFCURVE",
"652 282 OFFCURVE",
"628 272 CURVE",
"622 269 OFFCURVE",
"612 269 OFFCURVE",
"600 269 CURVE",
"600 500 LINE",
"369 500 LINE",
"369 512 OFFCURVE",
"369 522 OFFCURVE",
"372 528 CURVE",
"382 552 OFFCURVE",
"400 572 OFFCURVE",
"400 600 CURVE SMOOTH",
"400 657 OFFCURVE",
"357 700 OFFCURVE",
"300 700 CURVE SMOOTH",
"243 700 OFFCURVE",
"200 657 OFFCURVE",
"200 600 CURVE SMOOTH"
);
}
);
width = 800;
}
);
note = af;
unicode = E0AF;
},
{
glyphname = uniE0B0;
layers = (
{
hints = (
{
horizontal = 1;
place = "{-100, 100}";
type = Stem;
},
{
horizontal = 1;
place = "{600, 100}";
type = Stem;
},
{
place = "{197, 100}";
type = Stem;
},
{
place = "{397, 100}";
type = Stem;
}
);
layerId = "A0563635-EBCB-42F0-BA53-80B4033C9352";
paths = (
{
closed = 1;
nodes = (
"162 700 OFFCURVE",
"99 674 OFFCURVE",
"59 634 CURVE SMOOTH",
"19 594 OFFCURVE",
"5 544 OFFCURVE",
"0 506 CURVE",
"100 494 LINE",
"104 520 OFFCURVE",
"112 544 OFFCURVE",
"131 563 CURVE SMOOTH",
"150 582 OFFCURVE",
"181 600 OFFCURVE",
"247 600 CURVE SMOOTH",
"313 600 OFFCURVE",
"349 584 OFFCURVE",
"369 566 CURVE SMOOTH",
"389 548 OFFCURVE",
"397 525 OFFCURVE",
"397 500 CURVE SMOOTH",
"397 417 OFFCURVE",
"362 394 OFFCURVE",
"312 350 CURVE SMOOTH",
"262 306 OFFCURVE",
"197 242 OFFCURVE",
"197 125 CURVE SMOOTH",
"197 100 LINE",
"297 100 LINE",
"297 125 LINE SMOOTH",
"297 208 OFFCURVE",
"328 231 OFFCURVE",
"378 275 CURVE SMOOTH",
"428 319 OFFCURVE",
"497 383 OFFCURVE",
"497 500 CURVE SMOOTH",
"497 548 OFFCURVE",
"481 602 OFFCURVE",
"438 641 CURVE SMOOTH",
"395 680 OFFCURVE",
"331 700 OFFCURVE",
"247 700 CURVE SMOOTH"
);
},
{
closed = 1;
nodes = (
"197 0 LINE",
"197 -100 LINE",
"297 -100 LINE",
"297 0 LINE"
);
}
);
width = 500;
}
);
note = b0;
unicode = E0B0;
},
{
glyphname = uniE0B1;
layers = (
{
hints = (
{
horizontal = 1;
place = "{0, 200}";
type = Stem;
},
{
horizontal = 1;
place = "{400, 400}";
type = Stem;
},
{
place = "{100, 100}";
type = Stem;
},
{
place = "{300, 100}";
type = Stem;
},
{
place = "{500, 100}";
type = Stem;
},
{
horizontal = 1;
place = "{300, 300}";
type = Stem;
}
);
layerId = "A0563635-EBCB-42F0-BA53-80B4033C9352";
paths = (
{
closed = 1;
nodes = (
"329 800 OFFCURVE",
"223 714 OFFCURVE",
"200 600 CURVE",
"90 600 OFFCURVE",
"0 510 OFFCURVE",
"0 400 CURVE SMOOTH",
"0 348 OFFCURVE",
"20 302 OFFCURVE",
"53 266 CURVE",
"79 288 OFFCURVE",
"113 300 OFFCURVE",
"150 300 CURVE SMOOTH",
"170 300 OFFCURVE",
"189 295 OFFCURVE",
"206 288 CURVE",
"223 352 OFFCURVE",
"281 400 OFFCURVE",
"350 400 CURVE SMOOTH",
"419 400 OFFCURVE",
"477 352 OFFCURVE",
"494 288 CURVE",
"511 295 OFFCURVE",
"530 300 OFFCURVE",
"550 300 CURVE SMOOTH",
"613 300 OFFCURVE",
"666 261 OFFCURVE",
"688 206 CURVE",
"752 223 OFFCURVE",
"800 281 OFFCURVE",
"800 350 CURVE SMOOTH",
"800 415 OFFCURVE",
"758 479 OFFCURVE",
"700 500 CURVE",
"700 550 LINE SMOOTH",
"700 688 OFFCURVE",
"588 800 OFFCURVE",
"450 800 CURVE SMOOTH"
);
},
{
closed = 1;
nodes = (
"334 300 LINE",
"315 294 OFFCURVE",
"300 272 OFFCURVE",
"300 252 CURVE SMOOTH",
"300 250 LINE",
"300 50 LINE SMOOTH",
"300 22 OFFCURVE",
"322 0 OFFCURVE",
"350 0 CURVE SMOOTH",
"378 0 OFFCURVE",
"400 22 OFFCURVE",
"400 50 CURVE SMOOTH",
"400 250 LINE",
"400 251 LINE SMOOTH",
"400 279 OFFCURVE",
"378 301 OFFCURVE",
"350 301 CURVE SMOOTH",
"347 301 OFFCURVE",
"344 300 OFFCURVE",
"341 300 CURVE SMOOTH",
"338 300 LINE"
);
},
{
closed = 1;
nodes = (
"134 200 LINE",
"115 194 OFFCURVE",
"100 172 OFFCURVE",
"100 152 CURVE SMOOTH",
"100 150 LINE",
"100 50 LINE SMOOTH",
"100 22 OFFCURVE",
"122 0 OFFCURVE",
"150 0 CURVE SMOOTH",
"178 0 OFFCURVE",
"200 22 OFFCURVE",
"200 50 CURVE SMOOTH",
"200 150 LINE",
"200 151 LINE SMOOTH",
"200 179 OFFCURVE",
"178 201 OFFCURVE",
"150 201 CURVE SMOOTH",
"147 201 OFFCURVE",
"144 200 OFFCURVE",
"141 200 CURVE SMOOTH",
"138 200 LINE"
);
},
{
closed = 1;
nodes = (
"534 200 LINE",
"515 194 OFFCURVE",
"500 172 OFFCURVE",
"500 152 CURVE SMOOTH",
"500 150 LINE",
"500 50 LINE SMOOTH",
"500 22 OFFCURVE",
"522 0 OFFCURVE",
"550 0 CURVE SMOOTH",
"578 0 OFFCURVE",
"600 22 OFFCURVE",
"600 50 CURVE SMOOTH",
"600 150 LINE",
"600 151 LINE SMOOTH",
"600 179 OFFCURVE",
"578 201 OFFCURVE",
"550 201 CURVE SMOOTH",
"547 201 OFFCURVE",
"544 200 OFFCURVE",
"541 200 CURVE SMOOTH",
"537 200 LINE"
);
}
);
width = 800;
}
);
note = b1;
unicode = E0B1;
},
{
glyphname = uniE0B2;
layers = (
{
hints = (
{
horizontal = 1;
place = "{0, 21}";
target = up;
type = BottomGhost;
},
{
horizontal = 1;
place = "{100, 100}";
type = Stem;
},
{
horizontal = 1;
place = "{600, 100}";
type = Stem;
}
);
layerId = "A0563635-EBCB-42F0-BA53-80B4033C9352";
paths = (
{
closed = 1;
nodes = (
"600 800 LINE",
"600 700 LINE",
"550 700 LINE SMOOTH",
"515 700 OFFCURVE",
"494 689 OFFCURVE",
"472 662 CURVE SMOOTH",
"331 484 LINE",
"178 662 LINE SMOOTH",
"156 688 OFFCURVE",
"134 700 OFFCURVE",
"100 700 CURVE SMOOTH",
"0 700 LINE",
"0 600 LINE",
"100 600 LINE",
"103 597 LINE",
"266 406 LINE",
"100 200 LINE",
"0 200 LINE",
"0 100 LINE",
"100 100 LINE SMOOTH",
"135 100 OFFCURVE",
"156 111 OFFCURVE",
"178 138 CURVE SMOOTH",
"331 328 LINE",
"497 138 LINE SMOOTH",
"519 112 OFFCURVE",
"540 100 OFFCURVE",
"575 100 CURVE SMOOTH",
"600 100 LINE",
"600 0 LINE",
"800 150 LINE",
"600 300 LINE",
"600 200 LINE",
"578 200 LINE",
"572 203 LINE",
"397 409 LINE",
"550 600 LINE",
"600 600 LINE",
"600 500 LINE",
"800 650 LINE"
);
}
);
width = 800;
}
);
note = b2;
unicode = E0B2;
},
{
glyphname = uniE0B3;
layers = (
{
hints = (
{
horizontal = 1;
place = "{0, 100}";
type = Stem;
},
{
horizontal = 1;
place = "{700, 100}";
type = Stem;
},
{
place = "{0, 100}";
type = Stem;
}
);
layerId = "A0563635-EBCB-42F0-BA53-80B4033C9352";
paths = (
{
closed = 1;
nodes = (
"180 800 OFFCURVE",
"0 620 OFFCURVE",
"0 400 CURVE SMOOTH",
"0 180 OFFCURVE",
"180 0 OFFCURVE",
"400 0 CURVE SMOOTH",
"510 0 OFFCURVE",
"612 44 OFFCURVE",
"684 116 CURVE",
"612 188 LINE",
"558 134 OFFCURVE",
"483 100 OFFCURVE",
"400 100 CURVE SMOOTH",
"234 100 OFFCURVE",
"100 234 OFFCURVE",
"100 400 CURVE SMOOTH",
"100 566 OFFCURVE",
"234 700 OFFCURVE",
"400 700 CURVE SMOOTH",
"483 700 OFFCURVE",
"555 664 OFFCURVE",
"609 609 CURVE",
"500 500 LINE",
"800 500 LINE",
"800 800 LINE",
"681 681 LINE",
"609 753 OFFCURVE",
"510 800 OFFCURVE",
"400 800 CURVE SMOOTH"
);
}
);
width = 800;
}
);
note = b3;
unicode = E0B3;
},
{
glyphname = uniE0B4;
layers = (
{
hints = (
{
horizontal = 1;
place = "{0, 21}";
target = up;
type = BottomGhost;
}
);
layerId = "A0563635-EBCB-42F0-BA53-80B4033C9352";
paths = (
{
closed = 1;
nodes = (
"400 800 LINE",
"566 634 LINE",
"166 234 LINE",
"0 400 LINE",
"0 0 LINE",
"400 0 LINE",
"234 166 LINE",
"634 566 LINE",
"800 400 LINE",
"800 800 LINE"
);
}
);
width = 800;
}
);
note = b4;
unicode = E0B4;
},
{
glyphname = uniE0B5;
layers = (
{
hints = (
{
horizontal = 1;
place = "{0, 21}";
target = up;
type = BottomGhost;
},
{
place = "{200, 100}";
type = Stem;
}
);
layerId = "A0563635-EBCB-42F0-BA53-80B4033C9352";
paths = (
{
closed = 1;
nodes = (
"250 800 LINE",
"0 500 LINE",
"200 500 LINE",
"200 300 LINE",
"0 300 LINE",
"250 0 LINE",
"500 300 LINE",
"300 300 LINE",
"300 500 LINE",
"500 500 LINE"
);
}
);
width = 600;
}
);
note = b5;
unicode = E0B5;
},
{
glyphname = uniE0B6;
layers = (
{
hints = (
{
horizontal = 1;
place = "{300, 100}";
type = Stem;
}
);
layerId = "A0563635-EBCB-42F0-BA53-80B4033C9352";
paths = (
{
closed = 1;
nodes = (
"300 600 LINE",
"0 350 LINE",
"300 100 LINE",
"300 300 LINE",
"500 300 LINE",
"500 100 LINE",
"800 350 LINE",
"500 600 LINE",
"500 400 LINE",
"300 400 LINE"
);
}
);
width = 800;
}
);
note = b6;
unicode = E0B6;
},
{
glyphname = uniE0B7;
layers = (
{
hints = (
{
horizontal = 1;
place = "{0, 21}";
target = up;
type = BottomGhost;
},
{
horizontal = 1;
place = "{600, 200}";
type = Stem;
}
);
layerId = "A0563635-EBCB-42F0-BA53-80B4033C9352";
paths = (
{
closed = 1;
nodes = (
"0 600 LINE",
"333 600 OFFCURVE",
"600 333 OFFCURVE",
"600 0 CURVE",
"800 0 LINE",
"800 441 OFFCURVE",
"441 800 OFFCURVE",
"0 800 CURVE"
);
},
{
closed = 1;
nodes = (
"0 300 LINE",
"167 300 OFFCURVE",
"300 167 OFFCURVE",
"300 0 CURVE",
"500 0 LINE",
"500 275 OFFCURVE",
"275 500 OFFCURVE",
"0 500 CURVE"
);
},
{
closed = 1;
nodes = (
"0 0 LINE",
"200 0 LINE",
"200 110 OFFCURVE",
"110 200 OFFCURVE",
"0 200 CURVE"
);
}
);
width = 800;
}
);
note = b7;
unicode = E0B7;
},
{
glyphname = uniE0B8;
layers = (
{
hints = (
{
horizontal = 1;
place = "{0, 200}";
type = Stem;
},
{
horizontal = 1;
place = "{300, 100}";
type = Stem;
},
{
horizontal = 1;
place = "{500, 100}";
type = Stem;
},
{
horizontal = 1;
place = "{700, 100}";
type = Stem;
},
{
place = "{0, 200}";
type = Stem;
},
{
place = "{300, 100}";
type = Stem;
},
{
place = "{500, 100}";
type = Stem;
},
{
place = "{700, 100}";
type = Stem;
}
);
layerId = "A0563635-EBCB-42F0-BA53-80B4033C9352";
paths = (
{
closed = 1;
nodes = (
"100 700 LINE",
"432 700 OFFCURVE",
"700 432 OFFCURVE",
"700 100 CURVE",
"800 100 LINE",
"800 486 OFFCURVE",
"486 800 OFFCURVE",
"100 800 CURVE"
);
},
{
closed = 1;
nodes = (
"100 500 LINE",
"322 500 OFFCURVE",
"500 322 OFFCURVE",
"500 100 CURVE",
"600 100 LINE",
"600 376 OFFCURVE",
"376 600 OFFCURVE",
"100 600 CURVE"
);
},
{
closed = 1;
nodes = (
"100 300 LINE",
"211 300 OFFCURVE",
"300 211 OFFCURVE",
"300 100 CURVE",
"400 100 LINE",
"400 265 OFFCURVE",
"265 400 OFFCURVE",
"100 400 CURVE"
);
},
{
closed = 1;
nodes = (
"45 200 OFFCURVE",
"0 155 OFFCURVE",
"0 100 CURVE SMOOTH",
"0 45 OFFCURVE",
"45 0 OFFCURVE",
"100 0 CURVE SMOOTH",
"155 0 OFFCURVE",
"200 45 OFFCURVE",
"200 100 CURVE SMOOTH",
"200 155 OFFCURVE",
"155 200 OFFCURVE",
"100 200 CURVE SMOOTH"
);
}
);
width = 800;
}
);
note = b8;
unicode = E0B8;
},
{
glyphname = uniE0B9;
layers = (
{
hints = (
{
horizontal = 1;
place = "{0, 100}";
type = Stem;
},
{
horizontal = 1;
place = "{700, 100}";
type = Stem;
},
{
place = "{0, 100}";
type = Stem;
},
{
place = "{200, 100}";
type = Stem;
},
{
horizontal = 1;
place = "{0, 400}";
type = Stem;
},
{
horizontal = 1;
place = "{500, 300}";
type = Stem;
}
);
layerId = "A0563635-EBCB-42F0-BA53-80B4033C9352";
paths = (
{
closed = 1;
nodes = (
"300 800 LINE SMOOTH",
"245 800 OFFCURVE",
"200 755 OFFCURVE",
"200 700 CURVE SMOOTH",
"200 150 LINE SMOOTH",
"200 122 OFFCURVE",
"178 100 OFFCURVE",
"150 100 CURVE SMOOTH",
"122 100 OFFCURVE",
"100 122 OFFCURVE",
"100 150 CURVE SMOOTH",
"100 300 LINE",
"0 300 LINE",
"0 100 LINE SMOOTH",
"0 45 OFFCURVE",
"45 0 OFFCURVE",
"100 0 CURVE SMOOTH",
"600 0 LINE SMOOTH",
"655 0 OFFCURVE",
"700 45 OFFCURVE",
"700 100 CURVE SMOOTH",
"700 400 LINE",
"300 400 LINE",
"300 650 LINE SMOOTH",
"300 678 OFFCURVE",
"322 700 OFFCURVE",
"350 700 CURVE SMOOTH",
"378 700 OFFCURVE",
"400 678 OFFCURVE",
"400 650 CURVE SMOOTH",
"400 500 LINE",
"800 500 LINE",
"800 700 LINE SMOOTH",
"800 755 OFFCURVE",
"755 800 OFFCURVE",
"700 800 CURVE SMOOTH"
);
}
);
width = 800;
}
);
note = b9;
unicode = E0B9;
},
{
glyphname = uniE0BA;
layers = (
{
hints = (
{
horizontal = 1;
place = "{0, 100}";
type = Stem;
},
{
horizontal = 1;
place = "{600, 100}";
type = Stem;
},
{
place = "{0, 100}";
type = Stem;
},
{
place = "{500, 100}";
type = Stem;
}
);
layerId = "A0563635-EBCB-42F0-BA53-80B4033C9352";
paths = (
{
closed = 1;
nodes = (
"75 700 LINE SMOOTH",
"34 700 OFFCURVE",
"0 666 OFFCURVE",
"0 625 CURVE SMOOTH",
"0 75 LINE SMOOTH",
"0 34 OFFCURVE",
"34 0 OFFCURVE",
"75 0 CURVE SMOOTH",
"525 0 LINE SMOOTH",
"566 0 OFFCURVE",
"600 34 OFFCURVE",
"600 75 CURVE SMOOTH",
"600 200 LINE",
"500 200 LINE",
"500 100 LINE",
"100 100 LINE",
"100 600 LINE",
"300 600 LINE",
"300 700 LINE"
);
},
{
closed = 1;
nodes = (
"600 700 LINE",
"600 600 LINE",
"395 600 OFFCURVE",
"229 446 OFFCURVE",
"206 247 CURVE",
"227 335 OFFCURVE",
"306 400 OFFCURVE",
"400 400 CURVE SMOOTH",
"600 400 LINE",
"600 300 LINE",
"800 500 LINE"
);
}
);
width = 800;
}
);
note = ba;
unicode = E0BA;
},
{
glyphname = uniE0BB;
layers = (
{
hints = (
{
horizontal = 1;
place = "{0, 21}";
target = up;
type = BottomGhost;
},
{
horizontal = 1;
place = "{300, 200}";
type = Stem;
}
);
layerId = "A0563635-EBCB-42F0-BA53-80B4033C9352";
paths = (
{
closed = 1;
nodes = (
"500 700 LINE",
"500 500 LINE",
"100 500 OFFCURVE",
"0 295 OFFCURVE",
"0 0 CURVE",
"52 198 OFFCURVE",
"200 300 OFFCURVE",
"400 300 CURVE SMOOTH",
"500 300 LINE",
"500 100 LINE",
"800 416 LINE"
);
}
);
width = 800;
}
);
note = bb;
unicode = E0BB;
},
{
glyphname = uniE0BC;
layers = (
{
hints = (
{
horizontal = 1;
place = "{0, 100}";
type = Stem;
}
);
layerId = "A0563635-EBCB-42F0-BA53-80B4033C9352";
paths = (
{
closed = 1;
nodes = (
"381 791 LINE",
"254 738 OFFCURVE",
"128 683 OFFCURVE",
"0 631 CURVE",
"0 600 LINE SMOOTH",
"0 434 OFFCURVE",
"67 288 OFFCURVE",
"147 181 CURVE SMOOTH",
"187 128 OFFCURVE",
"230 84 OFFCURVE",
"272 53 CURVE SMOOTH",
"314 22 OFFCURVE",
"354 0 OFFCURVE",
"400 0 CURVE SMOOTH",
"446 0 OFFCURVE",
"486 22 OFFCURVE",
"528 53 CURVE SMOOTH",
"570 84 OFFCURVE",
"613 128 OFFCURVE",
"653 181 CURVE SMOOTH",
"733 287 OFFCURVE",
"800 434 OFFCURVE",
"800 600 CURVE SMOOTH",
"800 631 LINE",
"672 683 OFFCURVE",
"546 738 OFFCURVE",
"419 791 CURVE",
"400 800 LINE"
);
},
{
closed = 1;
nodes = (
"400 100 LINE",
"396 100 OFFCURVE",
"367 107 OFFCURVE",
"334 131 CURVE SMOOTH",
"301 155 OFFCURVE",
"263 195 OFFCURVE",
"228 241 CURVE SMOOTH",
"164 326 OFFCURVE",
"114 443 OFFCURVE",
"106 569 CURVE",
"400 691 LINE"
);
}
);
width = 800;
}
);
note = bc;
unicode = E0BC;
},
{
glyphname = uniE0BD;
layers = (
{
hints = (
{
horizontal = 1;
place = "{0, 21}";
target = up;
type = BottomGhost;
},
{
place = "{0, 100}";
type = Stem;
},
{
place = "{200, 100}";
type = Stem;
},
{
place = "{400, 100}";
type = Stem;
},
{
place = "{600, 100}";
type = Stem;
}
);
layerId = "A0563635-EBCB-42F0-BA53-80B4033C9352";
paths = (
{
closed = 1;
nodes = (
"600 800 LINE",
"600 0 LINE",
"700 0 LINE",
"700 800 LINE"
);
},
{
closed = 1;
nodes = (
"400 700 LINE",
"400 0 LINE",
"500 0 LINE",
"500 700 LINE"
);
},
{
closed = 1;
nodes = (
"200 500 LINE",
"200 0 LINE",
"300 0 LINE",
"300 500 LINE"
);
},
{
closed = 1;
nodes = (
"0 300 LINE",
"0 0 LINE",
"100 0 LINE",
"100 300 LINE"
);
}
);
width = 800;
}
);
note = bd;
unicode = E0BD;
},
{
glyphname = uniE0BE;
layers = (
{
hints = (
{
horizontal = 1;
place = "{0, 21}";
target = up;
type = BottomGhost;
},
{
horizontal = 1;
place = "{500, 200}";
type = Stem;
},
{
place = "{300, 100}";
type = Stem;
},
{
horizontal = 1;
place = "{400, 200}";
type = Stem;
}
);
layerId = "A0563635-EBCB-42F0-BA53-80B4033C9352";
paths = (
{
closed = 1;
nodes = (
"300 800 LINE",
"300 700 LINE",
"100 700 LINE",
"0 600 LINE",
"100 500 LINE",
"300 500 LINE",
"300 0 LINE",
"400 0 LINE",
"400 400 LINE",
"600 400 LINE",
"700 500 LINE",
"600 600 LINE",
"400 600 LINE",
"400 800 LINE"
);
}
);
width = 800;
}
);
note = be;
unicode = E0BE;
},
{
glyphname = uniE0BF;
layers = (
{
hints = (
{
horizontal = 1;
place = "{0, 21}";
target = up;
type = BottomGhost;
},
{
horizontal = 1;
place = "{300, 100}";
type = Stem;
},
{
horizontal = 1;
place = "{500, 100}";
type = Stem;
},
{
horizontal = 1;
place = "{700, 100}";
type = Stem;
},
{
place = "{200, 100}";
type = Stem;
}
);
layerId = "A0563635-EBCB-42F0-BA53-80B4033C9352";
paths = (
{
closed = 1;
nodes = (
"200 800 LINE",
"200 200 LINE",
"0 200 LINE",
"250 0 LINE",
"500 200 LINE",
"300 200 LINE",
"300 800 LINE"
);
},
{
closed = 1;
nodes = (
"400 800 LINE",
"400 700 LINE",
"600 700 LINE",
"600 800 LINE"
);
},
{
closed = 1;
nodes = (
"400 600 LINE",
"400 500 LINE",
"700 500 LINE",
"700 600 LINE"
);
},
{
closed = 1;
nodes = (
"400 400 LINE",
"400 300 LINE",
"800 300 LINE",
"800 400 LINE"
);
}
);
width = 800;
}
);
note = bf;
unicode = E0BF;
},
{
glyphname = uniE0C0;
layers = (
{
hints = (
{
horizontal = 1;
place = "{0, 21}";
target = up;
type = BottomGhost;
},
{
horizontal = 1;
place = "{300, 100}";
type = Stem;
},
{
horizontal = 1;
place = "{500, 100}";
type = Stem;
},
{
horizontal = 1;
place = "{700, 100}";
type = Stem;
},
{
place = "{200, 100}";
type = Stem;
}
);
layerId = "A0563635-EBCB-42F0-BA53-80B4033C9352";
paths = (
{
closed = 1;
nodes = (
"200 800 LINE",
"200 200 LINE",
"0 200 LINE",
"250 0 LINE",
"500 200 LINE",
"300 200 LINE",
"300 800 LINE"
);
},
{
closed = 1;
nodes = (
"400 800 LINE",
"400 700 LINE",
"800 700 LINE",
"800 800 LINE"
);
},
{
closed = 1;
nodes = (
"400 600 LINE",
"400 500 LINE",
"700 500 LINE",
"700 600 LINE"
);
},
{
closed = 1;
nodes = (
"400 400 LINE",
"400 300 LINE",
"600 300 LINE",
"600 400 LINE"
);
}
);
width = 800;
}
);
note = c0;
unicode = E0C0;
},
{
glyphname = uniE0C1;
layers = (
{
hints = (
{
horizontal = 1;
place = "{0, 100}";
type = Stem;
},
{
horizontal = 1;
place = "{200, 100}";
type = Stem;
},
{
horizontal = 1;
place = "{400, 100}";
type = Stem;
},
{
horizontal = 1;
place = "{600, 100}";
type = Stem;
},
{
place = "{0, 100}";
type = Stem;
},
{
place = "{200, 100}";
type = Stem;
},
{
place = "{700, 100}";
type = Stem;
}
);
layerId = "A0563635-EBCB-42F0-BA53-80B4033C9352";
paths = (
{
closed = 1;
nodes = (
"75 700 LINE SMOOTH",
"34 700 OFFCURVE",
"0 666 OFFCURVE",
"0 625 CURVE SMOOTH",
"0 75 LINE SMOOTH",
"0 34 OFFCURVE",
"34 0 OFFCURVE",
"75 0 CURVE SMOOTH",
"725 0 LINE SMOOTH",
"766 0 OFFCURVE",
"800 34 OFFCURVE",
"800 75 CURVE SMOOTH",
"800 625 LINE SMOOTH",
"800 666 OFFCURVE",
"766 700 OFFCURVE",
"725 700 CURVE SMOOTH"
);
},
{
closed = 1;
nodes = (
"100 600 LINE",
"200 600 LINE",
"200 500 LINE",
"100 500 LINE"
);
},
{
closed = 1;
nodes = (
"300 600 LINE",
"700 600 LINE",
"700 500 LINE",
"300 500 LINE"
);
},
{
closed = 1;
nodes = (
"100 400 LINE",
"200 400 LINE",
"200 300 LINE",
"100 300 LINE"
);
},
{
closed = 1;
nodes = (
"300 400 LINE",
"700 400 LINE",
"700 300 LINE",
"300 300 LINE"
);
},
{
closed = 1;
nodes = (
"100 200 LINE",
"200 200 LINE",
"200 100 LINE",
"100 100 LINE"
);
},
{
closed = 1;
nodes = (
"300 200 LINE",
"700 200 LINE",
"700 100 LINE",
"300 100 LINE"
);
}
);
width = 800;
}
);
note = c1;
unicode = E0C1;
},
{
glyphname = uniE0C2;
layers = (
{
hints = (
{
horizontal = 1;
place = "{0, 21}";
target = up;
type = BottomGhost;
}
);
layerId = "A0563635-EBCB-42F0-BA53-80B4033C9352";
paths = (
{
closed = 1;
nodes = (
"400 800 LINE",
"300 500 LINE",
"0 500 LINE",
"250 300 LINE",
"150 0 LINE",
"400 200 LINE",
"650 0 LINE",
"550 300 LINE",
"800 500 LINE",
"500 500 LINE"
);
}
);
width = 800;
}
);
note = c2;
unicode = E0C2;
},
{
glyphname = uniE0C3;
layers = (
{
hints = (
{
horizontal = 1;
place = "{350, 100}";
type = Stem;
},
{
horizontal = 1;
place = "{700, 100}";
type = Stem;
},
{
horizontal = 1;
place = "{600, 100}";
type = Stem;
},
{
place = "{100, 100}";
type = Stem;
},
{
place = "{350, 100}";
type = Stem;
},
{
place = "{600, 100}";
type = Stem;
},
{
horizontal = 1;
place = "{100, 100}";
type = Stem;
},
{
place = "{0, 100}";
type = Stem;
},
{
place = "{700, 100}";
type = Stem;
}
);
layerId = "A0563635-EBCB-42F0-BA53-80B4033C9352";
paths = (
{
closed = 1;
nodes = (
"372 800 OFFCURVE",
"350 778 OFFCURVE",
"350 750 CURVE SMOOTH",
"350 722 OFFCURVE",
"372 700 OFFCURVE",
"400 700 CURVE SMOOTH",
"428 700 OFFCURVE",
"450 722 OFFCURVE",
"450 750 CURVE SMOOTH",
"450 778 OFFCURVE",
"428 800 OFFCURVE",
"400 800 CURVE SMOOTH"
);
},
{
closed = 1;
nodes = (
"122 700 OFFCURVE",
"100 678 OFFCURVE",
"100 650 CURVE SMOOTH",
"100 622 OFFCURVE",
"122 600 OFFCURVE",
"150 600 CURVE SMOOTH",
"178 600 OFFCURVE",
"200 622 OFFCURVE",
"200 650 CURVE SMOOTH",
"200 678 OFFCURVE",
"178 700 OFFCURVE",
"150 700 CURVE SMOOTH"
);
},
{
closed = 1;
nodes = (
"622 700 OFFCURVE",
"600 678 OFFCURVE",
"600 650 CURVE SMOOTH",
"600 622 OFFCURVE",
"622 600 OFFCURVE",
"650 600 CURVE SMOOTH",
"678 600 OFFCURVE",
"700 622 OFFCURVE",
"700 650 CURVE SMOOTH",
"700 678 OFFCURVE",
"678 700 OFFCURVE",
"650 700 CURVE SMOOTH"
);
},
{
closed = 1;
nodes = (
"290 600 OFFCURVE",
"200 510 OFFCURVE",
"200 400 CURVE SMOOTH",
"200 290 OFFCURVE",
"290 200 OFFCURVE",
"400 200 CURVE SMOOTH",
"510 200 OFFCURVE",
"600 290 OFFCURVE",
"600 400 CURVE SMOOTH",
"600 510 OFFCURVE",
"510 600 OFFCURVE",
"400 600 CURVE SMOOTH"
);
},
{
closed = 1;
nodes = (
"22 450 OFFCURVE",
"0 428 OFFCURVE",
"0 400 CURVE SMOOTH",
"0 372 OFFCURVE",
"22 350 OFFCURVE",
"50 350 CURVE SMOOTH",
"78 350 OFFCURVE",
"100 372 OFFCURVE",
"100 400 CURVE SMOOTH",
"100 428 OFFCURVE",
"78 450 OFFCURVE",
"50 450 CURVE SMOOTH"
);
},
{
closed = 1;
nodes = (
"722 450 OFFCURVE",
"700 428 OFFCURVE",
"700 400 CURVE SMOOTH",
"700 372 OFFCURVE",
"722 350 OFFCURVE",
"750 350 CURVE SMOOTH",
"778 350 OFFCURVE",
"800 372 OFFCURVE",
"800 400 CURVE SMOOTH",
"800 428 OFFCURVE",
"778 450 OFFCURVE",
"750 450 CURVE SMOOTH"
);
},
{
closed = 1;
nodes = (
"122 200 OFFCURVE",
"100 178 OFFCURVE",
"100 150 CURVE SMOOTH",
"100 122 OFFCURVE",
"122 100 OFFCURVE",
"150 100 CURVE SMOOTH",
"178 100 OFFCURVE",
"200 122 OFFCURVE",
"200 150 CURVE SMOOTH",
"200 178 OFFCURVE",
"178 200 OFFCURVE",
"150 200 CURVE SMOOTH"
);
},
{
closed = 1;
nodes = (
"622 200 OFFCURVE",
"600 178 OFFCURVE",
"600 150 CURVE SMOOTH",
"600 122 OFFCURVE",
"622 100 OFFCURVE",
"650 100 CURVE SMOOTH",
"678 100 OFFCURVE",
"700 122 OFFCURVE",
"700 150 CURVE SMOOTH",
"700 178 OFFCURVE",
"678 200 OFFCURVE",
"650 200 CURVE SMOOTH"
);
},
{
closed = 1;
nodes = (
"372 100 OFFCURVE",
"350 78 OFFCURVE",
"350 50 CURVE SMOOTH",
"350 22 OFFCURVE",
"372 0 OFFCURVE",
"400 0 CURVE SMOOTH",
"428 0 OFFCURVE",
"450 22 OFFCURVE",
"450 50 CURVE SMOOTH",
"450 78 OFFCURVE",
"428 100 OFFCURVE",
"400 100 CURVE SMOOTH"
);
}
);
width = 800;
}
);
note = c3;
unicode = E0C3;
},
{
glyphname = uniE0C4;
layers = (
{
hints = (
{
horizontal = 1;
place = "{0, 21}";
target = up;
type = BottomGhost;
},
{
horizontal = 1;
place = "{150, 50}";
type = Stem;
},
{
horizontal = 1;
place = "{700, 100}";
type = Stem;
},
{
place = "{0, 100}";
type = Stem;
},
{
place = "{600, 100}";
type = Stem;
}
);
layerId = "A0563635-EBCB-42F0-BA53-80B4033C9352";
paths = (
{
closed = 1;
nodes = (
"34 800 LINE SMOOTH",
"16 800 OFFCURVE",
"0 784 OFFCURVE",
"0 766 CURVE SMOOTH",
"0 34 LINE SMOOTH",
"0 16 OFFCURVE",
"16 0 OFFCURVE",
"34 0 CURVE SMOOTH",
"666 0 LINE SMOOTH",
"684 0 OFFCURVE",
"700 16 OFFCURVE",
"700 34 CURVE SMOOTH",
"700 766 LINE SMOOTH",
"700 784 OFFCURVE",
"684 800 OFFCURVE",
"666 800 CURVE SMOOTH"
);
},
{
closed = 1;
nodes = (
"100 700 LINE",
"600 700 LINE",
"600 200 LINE",
"100 200 LINE"
);
},
{
closed = 1;
nodes = (
"388 150 OFFCURVE",
"413 108 OFFCURVE",
"394 75 CURVE SMOOTH",
"375 42 OFFCURVE",
"325 42 OFFCURVE",
"306 75 CURVE SMOOTH",
"287 108 OFFCURVE",
"312 150 OFFCURVE",
"350 150 CURVE SMOOTH"
);
}
);
width = 800;
}
);
note = c4;
unicode = E0C4;
},
{
glyphname = uniE0C5;
layers = (
{
hints = (
{
horizontal = 1;
place = "{0, 21}";
target = up;
type = BottomGhost;
},
{
horizontal = 1;
place = "{700, 100}";
type = Stem;
},
{
place = "{0, 100}";
type = Stem;
}
);
layerId = "A0563635-EBCB-42F0-BA53-80B4033C9352";
paths = (
{
closed = 1;
nodes = (
"0 800 LINE",
"0 500 LINE",
"500 0 LINE",
"800 300 LINE",
"300 800 LINE"
);
},
{
closed = 1;
nodes = (
"255 700 OFFCURVE",
"300 655 OFFCURVE",
"300 600 CURVE SMOOTH",
"300 545 OFFCURVE",
"255 500 OFFCURVE",
"200 500 CURVE SMOOTH",
"145 500 OFFCURVE",
"100 545 OFFCURVE",
"100 600 CURVE SMOOTH",
"100 655 OFFCURVE",
"145 700 OFFCURVE",
"200 700 CURVE SMOOTH"
);
}
);
width = 800;
}
);
note = c5;
unicode = E0C5;
},
{
glyphname = uniE0C6;
layers = (
{
hints = (
{
horizontal = 1;
place = "{500, 100}";
type = Stem;
},
{
place = "{0, 100}";
type = Stem;
}
);
layerId = "A0563635-EBCB-42F0-BA53-80B4033C9352";
paths = (
{
closed = 1;
nodes = (
"0 600 LINE",
"0 400 LINE",
"300 100 LINE",
"500 300 LINE",
"200 600 LINE"
);
},
{
closed = 1;
nodes = (
"340 600 LINE",
"641 300 LINE",
"522 178 LINE",
"600 100 LINE",
"800 300 LINE",
"500 600 LINE"
);
},
{
closed = 1;
nodes = (
"178 500 OFFCURVE",
"200 478 OFFCURVE",
"200 450 CURVE SMOOTH",
"200 422 OFFCURVE",
"178 400 OFFCURVE",
"150 400 CURVE SMOOTH",
"122 400 OFFCURVE",
"100 422 OFFCURVE",
"100 450 CURVE SMOOTH",
"100 478 OFFCURVE",
"122 500 OFFCURVE",
"150 500 CURVE SMOOTH"
);
}
);
width = 800;
}
);
note = c6;
unicode = E0C6;
},
{
glyphname = uniE0C7;
layers = (
{
hints = (
{
horizontal = 1;
place = "{0, 100}";
type = Stem;
},
{
horizontal = 1;
place = "{200, 100}";
type = Stem;
},
{
horizontal = 1;
place = "{500, 100}";
type = Stem;
},
{
horizontal = 1;
place = "{700, 100}";
type = Stem;
},
{
place = "{200, 100}";
type = Stem;
},
{
place = "{500, 100}";
type = Stem;
}
);
layerId = "A0563635-EBCB-42F0-BA53-80B4033C9352";
paths = (
{
closed = 1;
nodes = (
"180 800 OFFCURVE",
"0 620 OFFCURVE",
"0 400 CURVE SMOOTH",
"0 180 OFFCURVE",
"180 0 OFFCURVE",
"400 0 CURVE SMOOTH",
"620 0 OFFCURVE",
"800 180 OFFCURVE",
"800 400 CURVE SMOOTH",
"800 620 OFFCURVE",
"620 800 OFFCURVE",
"400 800 CURVE SMOOTH"
);
},
{
closed = 1;
nodes = (
"566 700 OFFCURVE",
"700 566 OFFCURVE",
"700 400 CURVE SMOOTH",
"700 234 OFFCURVE",
"566 100 OFFCURVE",
"400 100 CURVE SMOOTH",
"234 100 OFFCURVE",
"100 234 OFFCURVE",
"100 400 CURVE SMOOTH",
"100 566 OFFCURVE",
"234 700 OFFCURVE",
"400 700 CURVE SMOOTH"
);
},
{
closed = 1;
nodes = (
"290 600 OFFCURVE",
"200 510 OFFCURVE",
"200 400 CURVE SMOOTH",
"200 290 OFFCURVE",
"290 200 OFFCURVE",
"400 200 CURVE SMOOTH",
"510 200 OFFCURVE",
"600 290 OFFCURVE",
"600 400 CURVE SMOOTH",
"600 510 OFFCURVE",
"510 600 OFFCURVE",
"400 600 CURVE SMOOTH"
);
},
{
closed = 1;
nodes = (
"456 500 OFFCURVE",
"500 456 OFFCURVE",
"500 400 CURVE SMOOTH",
"500 344 OFFCURVE",
"456 300 OFFCURVE",
"400 300 CURVE SMOOTH",
"344 300 OFFCURVE",
"300 344 OFFCURVE",
"300 400 CURVE SMOOTH",
"300 456 OFFCURVE",
"344 500 OFFCURVE",
"400 500 CURVE SMOOTH"
);
}
);
width = 800;
}
);
note = c7;
unicode = E0C7;
},
{
glyphname = uniE0C8;
layers = (
{
hints = (
{
horizontal = 1;
place = "{0, 100}";
type = Stem;
},
{
horizontal = 1;
place = "{600, 100}";
type = Stem;
},
{
place = "{0, 100}";
type = Stem;
}
);
layerId = "A0563635-EBCB-42F0-BA53-80B4033C9352";
paths = (
{
closed = 1;
nodes = (
"0 700 LINE",
"0 0 LINE",
"700 0 LINE",
"700 359 LINE",
"600 259 LINE",
"600 100 LINE",
"100 100 LINE",
"100 600 LINE",
"459 600 LINE",
"559 700 LINE"
);
},
{
closed = 1;
nodes = (
"700 700 LINE",
"400 400 LINE",
"300 500 LINE",
"200 400 LINE",
"400 200 LINE",
"800 600 LINE"
);
}
);
width = 800;
}
);
note = c8;
unicode = E0C8;
},
{
glyphname = uniE0C9;
layers = (
{
hints = (
{
horizontal = 1;
place = "{0, 400}";
type = Stem;
},
{
horizontal = 1;
place = "{500, 300}";
type = Stem;
},
{
place = "{700, 100}";
type = Stem;
}
);
layerId = "A0563635-EBCB-42F0-BA53-80B4033C9352";
paths = (
{
closed = 1;
nodes = (
"9 800 LINE SMOOTH",
"3 800 OFFCURVE",
"0 797 OFFCURVE",
"0 791 CURVE SMOOTH",
"0 9 LINE SMOOTH",
"0 3 OFFCURVE",
"3 0 OFFCURVE",
"9 0 CURVE SMOOTH",
"791 0 LINE SMOOTH",
"797 0 OFFCURVE",
"800 3 OFFCURVE",
"800 9 CURVE SMOOTH",
"800 791 LINE SMOOTH",
"800 797 OFFCURVE",
"797 800 OFFCURVE",
"791 800 CURVE SMOOTH"
);
},
{
closed = 1;
nodes = (
"150 722 LINE",
"322 550 LINE",
"150 378 LINE",
"78 450 LINE",
"178 550 LINE",
"78 650 LINE"
);
},
{
closed = 1;
nodes = (
"400 500 LINE",
"700 500 LINE",
"700 400 LINE",
"400 400 LINE"
);
}
);
width = 800;
}
);
note = c9;
unicode = E0C9;
},
{
glyphname = uniE0CA;
layers = (
{
hints = (
{
horizontal = 1;
place = "{0, 100}";
type = Stem;
},
{
horizontal = 1;
place = "{700, 100}";
type = Stem;
},
{
place = "{0, 50}";
type = Stem;
},
{
place = "{300, 200}";
type = Stem;
},
{
place = "{750, 50}";
type = Stem;
}
);
layerId = "A0563635-EBCB-42F0-BA53-80B4033C9352";
paths = (
{
closed = 1;
nodes = (
"0 800 LINE",
"0 600 LINE",
"50 600 LINE",
"50 655 OFFCURVE",
"95 700 OFFCURVE",
"150 700 CURVE SMOOTH",
"300 700 LINE",
"300 150 LINE SMOOTH",
"300 122 OFFCURVE",
"278 100 OFFCURVE",
"250 100 CURVE SMOOTH",
"200 100 LINE",
"200 0 LINE",
"600 0 LINE",
"600 100 LINE",
"550 100 LINE SMOOTH",
"522 100 OFFCURVE",
"500 122 OFFCURVE",
"500 150 CURVE SMOOTH",
"500 700 LINE",
"650 700 LINE SMOOTH",
"705 700 OFFCURVE",
"750 655 OFFCURVE",
"750 600 CURVE",
"800 600 LINE",
"800 800 LINE"
);
}
);
width = 800;
}
);
note = ca;
unicode = E0CA;
},
{
glyphname = uniE0CB;
layers = (
{
hints = (
{
place = "{0, 100}";
type = Stem;
},
{
place = "{200, 500}";
type = Stem;
},
{
place = "{400, 97}";
type = Stem;
}
);
layerId = "A0563635-EBCB-42F0-BA53-80B4033C9352";
paths = (
{
closed = 1;
nodes = (
"0 700 LINE",
"0 300 LINE",
"100 300 LINE",
"100 700 LINE"
);
},
{
closed = 1;
nodes = (
"200 700 LINE",
"200 300 LINE",
"228 300 OFFCURVE",
"253 291 OFFCURVE",
"272 272 CURVE SMOOTH",
"291 253 OFFCURVE",
"386 60 OFFCURVE",
"400 34 CURVE SMOOTH",
"414 8 OFFCURVE",
"440 -5 OFFCURVE",
"466 3 CURVE SMOOTH",
"492 11 OFFCURVE",
"505 40 OFFCURVE",
"497 66 CURVE SMOOTH",
"489 92 OFFCURVE",
"450 225 OFFCURVE",
"450 250 CURVE SMOOTH",
"450 275 OFFCURVE",
"472 300 OFFCURVE",
"500 300 CURVE SMOOTH",
"650 300 LINE SMOOTH",
"678 300 OFFCURVE",
"700 322 OFFCURVE",
"700 350 CURVE SMOOTH",
"700 378 OFFCURVE",
"597 669 OFFCURVE",
"597 669 CURVE",
"589 687 OFFCURVE",
"571 700 OFFCURVE",
"550 700 CURVE SMOOTH"
);
}
);
width = 800;
}
);
note = cb;
unicode = E0CB;
},
{
glyphname = uniE0CC;
layers = (
{
hints = (
{
horizontal = 1;
place = "{0, 21}";
target = up;
type = BottomGhost;
},
{
place = "{0, 100}";
type = Stem;
},
{
place = "{400, 97}";
type = Stem;
},
{
place = "{200, 500}";
type = Stem;
}
);
layerId = "A0563635-EBCB-42F0-BA53-80B4033C9352";
paths = (
{
closed = 1;
nodes = (
"386 640 OFFCURVE",
"291 447 OFFCURVE",
"272 428 CURVE SMOOTH",
"253 409 OFFCURVE",
"228 400 OFFCURVE",
"200 400 CURVE",
"200 0 LINE",
"550 0 LINE SMOOTH",
"571 0 OFFCURVE",
"589 13 OFFCURVE",
"597 31 CURVE",
"597 31 OFFCURVE",
"700 322 OFFCURVE",
"700 350 CURVE SMOOTH",
"700 378 OFFCURVE",
"678 400 OFFCURVE",
"650 400 CURVE SMOOTH",
"500 400 LINE SMOOTH",
"472 400 OFFCURVE",
"450 425 OFFCURVE",
"450 450 CURVE SMOOTH",
"450 475 OFFCURVE",
"489 608 OFFCURVE",
"497 634 CURVE SMOOTH",
"505 660 OFFCURVE",
"492 689 OFFCURVE",
"466 697 CURVE",
"447 700 LINE",
"428 698 OFFCURVE",
"410 685 OFFCURVE",
"400 666 CURVE SMOOTH"
);
},
{
closed = 1;
nodes = (
"0 400 LINE",
"0 0 LINE",
"100 0 LINE",
"100 400 LINE"
);
}
);
width = 800;
}
);
note = cc;
unicode = E0CC;
},
{
glyphname = uniE0CD;
layers = (
{
hints = (
{
horizontal = 1;
place = "{-100, 100}";
type = Stem;
},
{
horizontal = 1;
place = "{500, 97}";
type = Stem;
},
{
horizontal = 1;
place = "{600, 100}";
type = Stem;
},
{
place = "{0, 100}";
type = Stem;
}
);
layerId = "A0563635-EBCB-42F0-BA53-80B4033C9352";
paths = (
{
closed = 1;
nodes = (
"200 700 LINE",
"200 600 LINE",
"300 600 LINE",
"300 597 LINE",
"130 573 OFFCURVE",
"0 426 OFFCURVE",
"0 250 CURVE SMOOTH",
"0 57 OFFCURVE",
"157 -100 OFFCURVE",
"350 -100 CURVE SMOOTH",
"543 -100 OFFCURVE",
"700 57 OFFCURVE",
"700 250 CURVE SMOOTH",
"700 294 OFFCURVE",
"689 337 OFFCURVE",
"675 375 CURVE",
"584 338 LINE",
"595 310 OFFCURVE",
"600 281 OFFCURVE",
"600 250 CURVE SMOOTH",
"600 111 OFFCURVE",
"489 0 OFFCURVE",
"350 0 CURVE SMOOTH",
"211 0 OFFCURVE",
"100 111 OFFCURVE",
"100 250 CURVE SMOOTH",
"100 389 OFFCURVE",
"211 500 OFFCURVE",
"350 500 CURVE SMOOTH",
"380 500 OFFCURVE",
"410 495 OFFCURVE",
"438 484 CURVE",
"472 578 LINE",
"450 586 OFFCURVE",
"425 590 OFFCURVE",
"400 594 CURVE",
"400 600 LINE",
"500 600 LINE",
"500 700 LINE"
);
},
{
closed = 1;
nodes = (
"700 584 OFFCURVE",
"336 304 OFFCURVE",
"316 284 CURVE SMOOTH",
"296 264 OFFCURVE",
"296 236 OFFCURVE",
"316 216 CURVE SMOOTH",
"336 196 OFFCURVE",
"364 196 OFFCURVE",
"384 216 CURVE SMOOTH",
"404 236 OFFCURVE",
"700 584 OFFCURVE",
"700 584 CURVE SMOOTH"
);
}
);
width = 800;
}
);
note = cd;
unicode = E0CD;
},
{
glyphname = uniE0CE;
layers = (
{
hints = (
{
horizontal = 1;
place = "{0, 21}";
target = up;
type = BottomGhost;
},
{
horizontal = 1;
place = "{100, 100}";
type = Stem;
},
{
horizontal = 1;
place = "{500, 100}";
type = Stem;
}
);
layerId = "A0563635-EBCB-42F0-BA53-80B4033C9352";
paths = (
{
closed = 1;
nodes = (
"600 700 LINE",
"600 600 LINE",
"0 600 LINE",
"0 500 LINE",
"600 500 LINE",
"600 400 LINE",
"800 550 LINE"
);
},
{
closed = 1;
nodes = (
"200 300 LINE",
"0 150 LINE",
"200 0 LINE",
"200 100 LINE",
"800 100 LINE",
"800 200 LINE",
"200 200 LINE"
);
}
);
width = 800;
}
);
note = ce;
unicode = E0CE;
},
{
glyphname = uniE0CF;
layers = (
{
hints = (
{
horizontal = 1;
place = "{0, 100}";
type = Stem;
},
{
horizontal = 1;
place = "{600, 200}";
type = Stem;
},
{
place = "{100, 100}";
type = Stem;
},
{
place = "{300, 100}";
type = Stem;
},
{
place = "{500, 100}";
type = Stem;
},
{
horizontal = 1;
place = "{600, 100}";
type = Stem;
}
);
layerId = "A0563635-EBCB-42F0-BA53-80B4033C9352";
paths = (
{
closed = 1;
nodes = (
"300 800 LINE SMOOTH",
"245 800 OFFCURVE",
"200 755 OFFCURVE",
"200 700 CURVE",
"100 700 LINE SMOOTH",
"45 700 OFFCURVE",
"0 655 OFFCURVE",
"0 600 CURVE",
"700 600 LINE",
"700 655 OFFCURVE",
"655 700 OFFCURVE",
"600 700 CURVE SMOOTH",
"500 700 LINE",
"500 755 OFFCURVE",
"455 800 OFFCURVE",
"400 800 CURVE SMOOTH"
);
},
{
closed = 1;
nodes = (
"100 500 LINE",
"100 19 LINE SMOOTH",
"100 8 OFFCURVE",
"108 0 OFFCURVE",
"119 0 CURVE SMOOTH",
"581 0 LINE SMOOTH",
"592 0 OFFCURVE",
"600 8 OFFCURVE",
"600 19 CURVE SMOOTH",
"600 500 LINE",
"500 500 LINE",
"500 150 LINE SMOOTH",
"500 122 OFFCURVE",
"478 100 OFFCURVE",
"450 100 CURVE SMOOTH",
"422 100 OFFCURVE",
"400 122 OFFCURVE",
"400 150 CURVE SMOOTH",
"400 500 LINE",
"300 500 LINE",
"300 150 LINE SMOOTH",
"300 122 OFFCURVE",
"278 100 OFFCURVE",
"250 100 CURVE SMOOTH",
"222 100 OFFCURVE",
"200 122 OFFCURVE",
"200 150 CURVE SMOOTH",
"200 500 LINE"
);
}
);
width = 800;
}
);
note = cf;
unicode = E0CF;
},
{
glyphname = uniE0D0;
layers = (
{
hints = (
{
horizontal = 1;
place = "{0, 100}";
type = Stem;
},
{
horizontal = 1;
place = "{200, 100}";
type = Stem;
},
{
place = "{100, 200}";
type = Stem;
},
{
place = "{500, 100}";
type = Stem;
}
);
layerId = "A0563635-EBCB-42F0-BA53-80B4033C9352";
paths = (
{
closed = 1;
nodes = (
"100 800 LINE",
"100 400 LINE SMOOTH",
"100 290 OFFCURVE",
"212 200 OFFCURVE",
"350 200 CURVE SMOOTH",
"400 200 LINE SMOOTH",
"510 200 OFFCURVE",
"600 290 OFFCURVE",
"600 400 CURVE SMOOTH",
"600 800 LINE",
"500 800 LINE",
"500 400 LINE SMOOTH",
"500 345 OFFCURVE",
"455 300 OFFCURVE",
"400 300 CURVE SMOOTH",
"345 300 OFFCURVE",
"300 345 OFFCURVE",
"300 400 CURVE SMOOTH",
"300 800 LINE"
);
},
{
closed = 1;
nodes = (
"0 100 LINE",
"0 0 LINE",
"700 0 LINE",
"700 100 LINE"
);
}
);
width = 800;
}
);
note = d0;
unicode = E0D0;
},
{
glyphname = uniE0D1;
layers = (
{
hints = (
{
horizontal = 1;
place = "{0, 100}";
type = Stem;
},
{
horizontal = 1;
place = "{200, 500}";
type = Stem;
},
{
place = "{0, 200}";
type = Stem;
},
{
place = "{300, 200}";
type = Stem;
},
{
place = "{600, 200}";
type = Stem;
}
);
layerId = "A0563635-EBCB-42F0-BA53-80B4033C9352";
paths = (
{
closed = 1;
nodes = (
"9 700 LINE SMOOTH",
"3 700 OFFCURVE",
"0 697 OFFCURVE",
"0 691 CURVE SMOOTH",
"0 209 LINE SMOOTH",
"0 203 OFFCURVE",
"3 200 OFFCURVE",
"9 200 CURVE SMOOTH",
"191 200 LINE SMOOTH",
"197 200 OFFCURVE",
"200 203 OFFCURVE",
"200 209 CURVE SMOOTH",
"200 691 LINE SMOOTH",
"200 697 OFFCURVE",
"197 700 OFFCURVE",
"191 700 CURVE SMOOTH"
);
},
{
closed = 1;
nodes = (
"609 700 LINE SMOOTH",
"603 700 OFFCURVE",
"600 697 OFFCURVE",
"600 691 CURVE SMOOTH",
"600 209 LINE SMOOTH",
"600 203 OFFCURVE",
"603 200 OFFCURVE",
"609 200 CURVE SMOOTH",
"791 200 LINE SMOOTH",
"797 200 OFFCURVE",
"800 203 OFFCURVE",
"800 209 CURVE SMOOTH",
"800 691 LINE SMOOTH",
"800 697 OFFCURVE",
"797 700 OFFCURVE",
"791 700 CURVE SMOOTH"
);
},
{
closed = 1;
nodes = (
"309 500 LINE SMOOTH",
"303 500 OFFCURVE",
"300 497 OFFCURVE",
"300 491 CURVE SMOOTH",
"300 209 LINE SMOOTH",
"300 203 OFFCURVE",
"303 200 OFFCURVE",
"309 200 CURVE SMOOTH",
"491 200 LINE SMOOTH",
"497 200 OFFCURVE",
"500 203 OFFCURVE",
"500 209 CURVE SMOOTH",
"500 491 LINE SMOOTH",
"500 497 OFFCURVE",
"497 500 OFFCURVE",
"491 500 CURVE SMOOTH"
);
},
{
closed = 1;
nodes = (
"0 100 LINE",
"0 0 LINE",
"800 0 LINE",
"800 100 LINE"
);
}
);
width = 800;
}
);
note = d1;
unicode = E0D1;
},
{
glyphname = uniE0D2;
layers = (
{
hints = (
{
horizontal = 1;
place = "{300, 100}";
type = Stem;
},
{
horizontal = 1;
place = "{500, 200}";
type = Stem;
},
{
place = "{0, 200}";
type = Stem;
},
{
place = "{300, 200}";
type = Stem;
},
{
place = "{600, 200}";
type = Stem;
},
{
horizontal = 1;
place = "{500, 100}";
type = Stem;
},
{
horizontal = 1;
place = "{0, 200}";
type = Stem;
},
{
horizontal = 1;
place = "{100, 100}";
type = Stem;
}
);
layerId = "A0563635-EBCB-42F0-BA53-80B4033C9352";
paths = (
{
closed = 1;
nodes = (
"10 700 LINE SMOOTH",
"4 700 OFFCURVE",
"0 697 OFFCURVE",
"0 691 CURVE SMOOTH",
"0 500 LINE",
"200 500 LINE",
"200 691 LINE SMOOTH",
"200 697 OFFCURVE",
"197 700 OFFCURVE",
"191 700 CURVE SMOOTH"
);
},
{
closed = 1;
nodes = (
"610 700 LINE SMOOTH",
"605 700 OFFCURVE",
"600 697 OFFCURVE",
"600 691 CURVE SMOOTH",
"600 500 LINE",
"800 500 LINE",
"800 691 LINE SMOOTH",
"800 697 OFFCURVE",
"797 700 OFFCURVE",
"791 700 CURVE SMOOTH"
);
},
{
closed = 1;
nodes = (
"310 600 LINE SMOOTH",
"304 600 OFFCURVE",
"300 597 OFFCURVE",
"300 591 CURVE SMOOTH",
"300 500 LINE",
"500 500 LINE",
"500 591 LINE SMOOTH",
"500 597 OFFCURVE",
"497 600 OFFCURVE",
"491 600 CURVE SMOOTH"
);
},
{
closed = 1;
nodes = (
"0 400 LINE",
"0 300 LINE",
"800 300 LINE",
"800 400 LINE"
);
},
{
closed = 1;
nodes = (
"0 200 LINE",
"0 9 LINE SMOOTH",
"0 3 OFFCURVE",
"3 0 OFFCURVE",
"9 0 CURVE SMOOTH",
"191 0 LINE SMOOTH",
"197 0 OFFCURVE",
"200 3 OFFCURVE",
"200 9 CURVE SMOOTH",
"200 200 LINE"
);
},
{
closed = 1;
nodes = (
"300 200 LINE",
"300 109 LINE SMOOTH",
"300 103 OFFCURVE",
"304 100 OFFCURVE",
"310 100 CURVE SMOOTH",
"491 100 LINE SMOOTH",
"497 100 OFFCURVE",
"500 103 OFFCURVE",
"500 109 CURVE SMOOTH",
"500 200 LINE"
);
},
{
closed = 1;
nodes = (
"600 200 LINE",
"600 9 LINE SMOOTH",
"600 3 OFFCURVE",
"604 0 OFFCURVE",
"610 0 CURVE SMOOTH",
"791 0 LINE SMOOTH",
"797 0 OFFCURVE",
"800 3 OFFCURVE",
"800 9 CURVE SMOOTH",
"800 200 LINE"
);
}
);
width = 800;
}
);
note = d2;
unicode = E0D2;
},
{
glyphname = uniE0D3;
layers = (
{
hints = (
{
horizontal = 1;
place = "{0, 500}";
type = Stem;
},
{
horizontal = 1;
place = "{600, 100}";
type = Stem;
},
{
place = "{0, 200}";
type = Stem;
},
{
place = "{300, 200}";
type = Stem;
},
{
place = "{600, 200}";
type = Stem;
}
);
layerId = "A0563635-EBCB-42F0-BA53-80B4033C9352";
paths = (
{
closed = 1;
nodes = (
"0 700 LINE",
"0 600 LINE",
"800 600 LINE",
"800 700 LINE"
);
},
{
closed = 1;
nodes = (
"9 500 LINE SMOOTH",
"3 500 OFFCURVE",
"0 497 OFFCURVE",
"0 491 CURVE SMOOTH",
"0 9 LINE SMOOTH",
"0 3 OFFCURVE",
"3 0 OFFCURVE",
"9 0 CURVE SMOOTH",
"191 0 LINE SMOOTH",
"197 0 OFFCURVE",
"200 3 OFFCURVE",
"200 9 CURVE SMOOTH",
"200 491 LINE SMOOTH",
"200 497 OFFCURVE",
"197 500 OFFCURVE",
"191 500 CURVE SMOOTH"
);
},
{
closed = 1;
nodes = (
"309 500 LINE SMOOTH",
"303 500 OFFCURVE",
"300 497 OFFCURVE",
"300 491 CURVE SMOOTH",
"300 209 LINE SMOOTH",
"300 203 OFFCURVE",
"303 200 OFFCURVE",
"309 200 CURVE SMOOTH",
"491 200 LINE SMOOTH",
"497 200 OFFCURVE",
"500 203 OFFCURVE",
"500 209 CURVE SMOOTH",
"500 491 LINE SMOOTH",
"500 497 OFFCURVE",
"497 500 OFFCURVE",
"491 500 CURVE SMOOTH"
);
},
{
closed = 1;
nodes = (
"609 500 LINE SMOOTH",
"603 500 OFFCURVE",
"600 497 OFFCURVE",
"600 491 CURVE SMOOTH",
"600 9 LINE SMOOTH",
"600 3 OFFCURVE",
"603 0 OFFCURVE",
"609 0 CURVE SMOOTH",
"791 0 LINE SMOOTH",
"797 0 OFFCURVE",
"800 3 OFFCURVE",
"800 9 CURVE SMOOTH",
"800 491 LINE SMOOTH",
"800 497 OFFCURVE",
"797 500 OFFCURVE",
"791 500 CURVE SMOOTH"
);
}
);
width = 800;
}
);
note = d3;
unicode = E0D3;
},
{
glyphname = uniE0D4;
layers = (
{
hints = (
{
horizontal = 1;
place = "{100, 500}";
type = Stem;
}
);
layerId = "A0563635-EBCB-42F0-BA53-80B4033C9352";
paths = (
{
closed = 1;
nodes = (
"50 600 LINE SMOOTH",
"22 600 OFFCURVE",
"0 578 OFFCURVE",
"0 550 CURVE SMOOTH",
"0 150 LINE SMOOTH",
"0 122 OFFCURVE",
"22 100 OFFCURVE",
"50 100 CURVE SMOOTH",
"550 100 LINE SMOOTH",
"578 100 OFFCURVE",
"600 122 OFFCURVE",
"600 150 CURVE SMOOTH",
"600 300 LINE",
"700 200 LINE",
"800 200 LINE",
"800 500 LINE",
"700 500 LINE",
"600 400 LINE",
"600 550 LINE SMOOTH",
"600 578 OFFCURVE",
"578 600 OFFCURVE",
"550 600 CURVE SMOOTH"
);
}
);
width = 800;
}
);
note = d4;
unicode = E0D4;
},
{
glyphname = uniE0D5;
layers = (
{
hints = (
{
horizontal = 1;
place = "{0, 21}";
target = up;
type = BottomGhost;
},
{
horizontal = 1;
place = "{100, 100}";
type = Stem;
},
{
horizontal = 1;
place = "{600, 100}";
type = Stem;
},
{
place = "{0, 400}";
type = Stem;
},
{
place = "{500, 100}";
type = Stem;
},
{
place = "{700, 100}";
type = Stem;
}
);
layerId = "A0563635-EBCB-42F0-BA53-80B4033C9352";
paths = (
{
closed = 1;
nodes = (
"334 800 LINE",
"200 600 LINE",
"0 600 LINE",
"0 200 LINE",
"200 200 LINE",
"334 0 LINE",
"400 0 LINE",
"400 800 LINE"
);
},
{
closed = 1;
nodes = (
"500 600 LINE",
"517 600 OFFCURVE",
"534 598 OFFCURVE",
"550 594 CURVE SMOOTH",
"636 572 OFFCURVE",
"700 494 OFFCURVE",
"700 400 CURVE SMOOTH",
"700 306 OFFCURVE",
"636 228 OFFCURVE",
"550 206 CURVE SMOOTH",
"534 202 OFFCURVE",
"517 200 OFFCURVE",
"500 200 CURVE",
"500 100 LINE",
"525 100 OFFCURVE",
"549 103 OFFCURVE",
"572 109 CURVE",
"575 109 LINE",
"705 142 OFFCURVE",
"800 260 OFFCURVE",
"800 400 CURVE SMOOTH",
"800 540 OFFCURVE",
"705 657 OFFCURVE",
"575 690 CURVE SMOOTH",
"552 696 OFFCURVE",
"526 700 OFFCURVE",
"500 700 CURVE"
);
},
{
closed = 1;
nodes = (
"500 500 LINE",
"500 300 LINE",
"525 303 LINE",
"568 314 OFFCURVE",
"600 354 OFFCURVE",
"600 400 CURVE SMOOTH",
"600 446 OFFCURVE",
"569 486 OFFCURVE",
"525 497 CURVE"
);
}
);
width = 800;
}
);
note = d5;
unicode = E0D5;
},
{
glyphname = uniE0D6;
layers = (
{
hints = (
{
horizontal = 1;
place = "{0, 21}";
target = up;
type = BottomGhost;
},
{
place = "{0, 400}";
type = Stem;
},
{
place = "{500, 100}";
type = Stem;
}
);
layerId = "A0563635-EBCB-42F0-BA53-80B4033C9352";
paths = (
{
closed = 1;
nodes = (
"334 800 LINE",
"200 600 LINE",
"0 600 LINE",
"0 200 LINE",
"200 200 LINE",
"334 0 LINE",
"400 0 LINE",
"400 800 LINE"
);
},
{
closed = 1;
nodes = (
"500 500 LINE",
"500 300 LINE",
"525 303 LINE",
"568 314 OFFCURVE",
"600 354 OFFCURVE",
"600 400 CURVE SMOOTH",
"600 446 OFFCURVE",
"569 486 OFFCURVE",
"525 497 CURVE"
);
}
);
width = 600;
}
);
note = d6;
unicode = E0D6;
},
{
glyphname = uniE0D7;
layers = (
{
hints = (
{
horizontal = 1;
place = "{0, 21}";
target = up;
type = BottomGhost;
},
{
place = "{0, 400}";
type = Stem;
}
);
layerId = "A0563635-EBCB-42F0-BA53-80B4033C9352";
paths = (
{
closed = 1;
nodes = (
"334 800 LINE",
"200 600 LINE",
"0 600 LINE",
"0 200 LINE",
"200 200 LINE",
"334 0 LINE",
"400 0 LINE",
"400 800 LINE"
);
}
);
width = 400;
}
);
note = d7;
unicode = E0D7;
},
{
glyphname = uniE0D8;
layers = (
{
hints = (
{
horizontal = 1;
place = "{0, 100}";
type = Stem;
},
{
horizontal = 1;
place = "{200, 100}";
type = Stem;
}
);
layerId = "A0563635-EBCB-42F0-BA53-80B4033C9352";
paths = (
{
closed = 1;
nodes = (
"309 800 LINE SMOOTH",
"303 800 OFFCURVE",
"299 796 OFFCURVE",
"297 791 CURVE SMOOTH",
"3 109 LINE",
"0 90 LINE",
"0 9 LINE SMOOTH",
"0 3 OFFCURVE",
"3 0 OFFCURVE",
"9 0 CURVE SMOOTH",
"691 0 LINE SMOOTH",
"697 0 OFFCURVE",
"700 3 OFFCURVE",
"700 9 CURVE SMOOTH",
"700 90 LINE",
"697 109 LINE",
"403 791 LINE SMOOTH",
"401 796 OFFCURVE",
"397 800 OFFCURVE",
"391 800 CURVE SMOOTH"
);
},
{
closed = 1;
nodes = (
"300 500 LINE",
"400 500 LINE",
"400 300 LINE",
"300 300 LINE"
);
},
{
closed = 1;
nodes = (
"300 200 LINE",
"400 200 LINE",
"400 100 LINE",
"300 100 LINE"
);
}
);
width = 800;
}
);
note = d8;
unicode = E0D8;
},
{
glyphname = uniE0D9;
layers = (
{
hints = (
{
horizontal = 1;
place = "{0, 200}";
type = Stem;
},
{
horizontal = 1;
place = "{400, 100}";
type = Stem;
},
{
horizontal = 1;
place = "{700, 100}";
type = Stem;
},
{
place = "{275, 200}";
type = Stem;
}
);
layerId = "A0563635-EBCB-42F0-BA53-80B4033C9352";
paths = (
{
closed = 1;
nodes = (
"237 800 OFFCURVE",
"109 761 OFFCURVE",
"0 691 CURVE",
"53 609 LINE",
"146 668 OFFCURVE",
"256 700 OFFCURVE",
"375 700 CURVE SMOOTH",
"495 700 OFFCURVE",
"607 669 OFFCURVE",
"700 609 CURVE",
"753 691 LINE",
"644 761 OFFCURVE",
"513 800 OFFCURVE",
"375 800 CURVE SMOOTH"
);
},
{
closed = 1;
nodes = (
"296 500 OFFCURVE",
"224 478 OFFCURVE",
"162 438 CURVE",
"216 353 LINE",
"263 383 OFFCURVE",
"315 400 OFFCURVE",
"375 400 CURVE SMOOTH",
"434 400 OFFCURVE",
"492 383 OFFCURVE",
"538 353 CURVE",
"591 438 LINE",
"529 477 OFFCURVE",
"453 500 OFFCURVE",
"375 500 CURVE SMOOTH"
);
},
{
closed = 1;
nodes = (
"320 200 OFFCURVE",
"275 155 OFFCURVE",
"275 100 CURVE SMOOTH",
"275 45 OFFCURVE",
"320 0 OFFCURVE",
"375 0 CURVE SMOOTH",
"430 0 OFFCURVE",
"475 45 OFFCURVE",
"475 100 CURVE SMOOTH",
"475 155 OFFCURVE",
"430 200 OFFCURVE",
"375 200 CURVE SMOOTH"
);
}
);
width = 800;
}
);
note = d9;
unicode = E0D9;
},
{
glyphname = uniE0DA;
layers = (
{
hints = (
{
horizontal = 1;
place = "{0, 50}";
type = Stem;
},
{
horizontal = 1;
place = "{300, 200}";
type = Stem;
},
{
place = "{301, 200}";
type = Stem;
}
);
layerId = "A0563635-EBCB-42F0-BA53-80B4033C9352";
paths = (
{
closed = 1;
nodes = (
"413 800 OFFCURVE",
"301 688 OFFCURVE",
"301 550 CURVE SMOOTH",
"301 518 OFFCURVE",
"309 487 OFFCURVE",
"320 459 CURVE",
"29 172 LINE SMOOTH",
"-10 133 OFFCURVE",
"-10 67 OFFCURVE",
"29 28 CURVE SMOOTH",
"49 8 OFFCURVE",
"75 0 OFFCURVE",
"101 0 CURVE SMOOTH",
"127 0 OFFCURVE",
"153 8 OFFCURVE",
"173 28 CURVE SMOOTH",
"461 319 LINE",
"489 308 OFFCURVE",
"519 300 OFFCURVE",
"551 300 CURVE SMOOTH",
"689 300 OFFCURVE",
"801 412 OFFCURVE",
"801 550 CURVE SMOOTH",
"801 566 OFFCURVE",
"801 582 OFFCURVE",
"798 597 CURVE",
"701 500 LINE",
"501 500 LINE",
"501 700 LINE",
"598 797 LINE",
"583 800 OFFCURVE",
"567 800 OFFCURVE",
"551 800 CURVE SMOOTH"
);
},
{
closed = 1;
nodes = (
"129 150 OFFCURVE",
"151 128 OFFCURVE",
"151 100 CURVE SMOOTH",
"151 72 OFFCURVE",
"129 50 OFFCURVE",
"101 50 CURVE SMOOTH",
"73 50 OFFCURVE",
"51 72 OFFCURVE",
"51 100 CURVE SMOOTH",
"51 128 OFFCURVE",
"73 150 OFFCURVE",
"101 150 CURVE SMOOTH"
);
}
);
width = 900;
}
);
note = da;
unicode = E0DA;
},
